<svg id="Color" enable-background="new 0 0 24 24" height="512" viewBox="0 0 24 24" width="512" xmlns="http://www.w3.org/2000/svg"><path d="m23.571 8.502c-3.4-1.613-5.691-.156-6.517.546-.315.268-.354.741-.087 1.057.183.215.458.29.715.24l.332 1.687-.038.011c-.401.102-.646.509-.544.911.086.34.392.566.727.566l.185-.023c4.849-1.226 5.603-4.016 5.634-4.134.086-.346-.083-.707-.407-.861z" fill="#ffb74d"/><path d="m23.98 9.01-6.161 2.028.196.994-.038.011c-.401.102-.646.509-.544.911.086.34.392.566.727.566l.185-.023c4.849-1.226 5.603-4.016 5.634-4.134.028-.119.028-.239.001-.353z" fill="#de9f43"/><path d="m7.032 10.105c.268-.315.229-.789-.087-1.057-.828-.701-3.116-2.158-6.516-.546-.324.154-.493.515-.407.861.03.118.785 2.908 5.634 4.134l.185.023c.335 0 .641-.226.727-.566.102-.401-.143-.809-.544-.911l-.038-.011.332-1.687c.257.05.532-.024.714-.24z" fill="#ffb74d"/><path d="m.007 9.076c-.013.094-.009.191.015.288.03.118.785 2.908 5.634 4.134l.185.023c.335 0 .641-.226.727-.566.102-.401-.143-.809-.544-.911l-.038-.011.174-.884z" fill="#de9f43"/><path d="m12 6.034c-3.428 0-6.974 2.25-6.974 6.016 0 1.532.627 3.272 1.72 4.773.755 1.037 1.153 2.201 1.153 3.366 0 1.997 1.625 3.622 3.622 3.622h.957c1.997 0 3.622-1.625 3.622-3.623 0-1.165.398-2.329 1.153-3.365 1.093-1.501 1.72-3.241 1.72-4.773.001-3.766-3.545-6.016-6.973-6.016z" fill="#ffe082"/><path d="m12 20.938c-.236 0-.458-.111-.6-.3l-1.436-1.915c-.171-.228-.198-.531-.071-.786.127-.254.387-.415.671-.415h2.873c.284 0 .544.161.671.415s.1.558-.071.786l-1.437 1.916c-.142.188-.364.299-.6.299z" fill="#607d8b"/><path d="m12 6.034c-3.428 0-6.974 2.25-6.974 6.016 0 1.532.627 3.272 1.72 4.773.755 1.037 1.153 2.201 1.153 3.366 0 1.997 1.625 3.622 3.622 3.622h.479v-2.872c-.236 0-.458-.111-.6-.3l-1.436-1.915c-.171-.228-.198-.531-.071-.786.127-.254.387-.415.671-.415h1.436z" fill="#dec371"/><path d="m12 17.523h-1.437c-.284 0-.544.161-.671.415s-.1.558.071.786l1.436 1.915c.142.189.363.3.6.3v-3.416z" fill="#546d79"/><g><path d="m9.111 8.348c-.078 0-.166-.009-.241-.027-3.776-.9-6.969-3.401-8.759-6.861-.253-.491-.062-1.094.43-1.348.49-.256 1.094-.062 1.348.429 1.519 2.936 4.224 5.06 7.424 5.83.452.097.794.498.794.978-.001.551-.443.999-.996.999z" fill="#607d8b"/></g><g><path d="m9.146 8.397c-.143 0-.288-.031-.427-.096-.182-.086-.365-.184-.535-.294-2.013-1.252-3.146-3.511-2.94-5.885.047-.55.514-.967 1.082-.91.551.047.958.532.91 1.082-.14 1.621.634 3.163 2.02 4.024.11.072.215.126.318.175.499.236.712.832.477 1.332-.171.361-.53.572-.905.572z" fill="#607d8b"/></g><path d="m10.085 13.279c-.414 0-.75-.336-.75-.75 0-.229-.415-.229-.415 0 0 .414-.336.75-.75.75s-.75-.336-.75-.75c0-.941.767-1.708 1.708-1.708s1.707.766 1.707 1.708c0 .414-.336.75-.75.75z" fill="#607d8b"/><path d="m9.127 10.821c-.941.001-1.707.766-1.707 1.708 0 .414.336.75.75.75s.75-.336.75-.75c0-.114.103-.171.207-.171z" fill="#546d79"/><path d="m15.83 13.279c-.414 0-.75-.336-.75-.75 0-.229-.415-.229-.415 0 0 .414-.336.75-.75.75s-.75-.336-.75-.75c0-.941.766-1.708 1.707-1.708s1.708.766 1.708 1.708c0 .414-.336.75-.75.75z" fill="#607d8b"/><path d="m14.872 10.821c-.941 0-1.707.766-1.707 1.708 0 .414.336.75.75.75s.75-.336.75-.75c0-.114.104-.171.208-.171h.001v-1.536h-.002z" fill="#546d79"/><path d="m14.897 8.348c-.452 0-.862-.309-.972-.768-.128-.537.203-1.077.741-1.205 3.209-.765 5.923-2.892 7.444-5.834.253-.491.856-.684 1.348-.429.491.254.683.857.43 1.348-1.79 3.46-4.982 5.96-8.759 6.861z" fill="#607d8b"/><path d="m14.855 8.397c-.375 0-.734-.211-.905-.573-.235-.5-.022-1.095.477-1.332.103-.049.208-.103.305-.166 1.4-.871 2.174-2.413 2.034-4.034-.048-.55.359-1.035.91-1.082.558-.056 1.034.36 1.082.91.205 2.374-.928 4.633-2.955 5.895-.156.101-.339.199-.52.285-.14.066-.286.097-.428.097z" fill="#607d8b"/><g fill="#546d79"><g><path d="m23-.001c-.362 0-.711.198-.888.541-.873 1.688-2.138 3.108-3.665 4.156-.46 1.353-1.378 2.531-2.645 3.319-.134.086-.287.171-.442.247 3.676-.946 6.775-3.414 8.529-6.804.253-.491.062-1.094-.43-1.348-.147-.075-.304-.111-.459-.111z"/><path d="m18.451 4.683-4.502 3.141c.171.361.53.573.905.573.143 0 .288-.031.427-.096.026-.012.052-.025.078-.038.155-.076.308-.161.442-.247 1.267-.788 2.185-1.967 2.645-3.319.002-.005.004-.009.005-.014z"/></g><g><path d="m1-.001c.362 0 .711.198.888.541.873 1.688 2.138 3.108 3.665 4.156.46 1.353 1.378 2.531 2.645 3.319.134.088.287.172.442.248-3.676-.945-6.775-3.414-8.529-6.803-.253-.491-.062-1.094.43-1.348.147-.077.305-.113.459-.113z"/><path d="m5.549 4.683 4.502 3.141c-.171.362-.53.573-.906.573-.143 0-.288-.031-.427-.096-.025-.012-.052-.025-.078-.038-.155-.076-.308-.16-.442-.247-1.267-.788-2.185-1.967-2.645-3.319-.001-.005-.003-.009-.004-.014z"/></g></g></svg>