<svg width="48" height="48" xmlns="http://www.w3.org/2000/svg">
 <defs>
  <filter id="svg_4_blur">
   <feGaussianBlur stdDeviation="0.1" in="SourceGraphic"/>
  </filter>
 </defs>
 <g>
  <title>background</title>
  <rect fill="none" id="canvas_background" height="50" width="50" y="-1" x="-1"/>
 </g>
 <g>
  <title>Layer 1</title>
  <g id="svg_5">
   <path filter="url(#svg_4_blur)" id="svg_1" fill="#ffd54f" d="m29.20945,10.47249c-0.11336,-0.34296 -0.42176,-0.58725 -0.78624,-0.61974l-9.28492,-0.83515l-3.67033,-8.51993c-0.28646,-0.66547 -1.39451,-0.66547 -1.68218,0l-3.67033,8.51993l-9.28492,0.83515c-0.36447,0.03249 -0.67287,0.27678 -0.78624,0.61974s-0.00853,0.71962 0.26452,0.95789l7.02129,6.10234l-2.07104,9.0398c-0.08045,0.35259 0.05851,0.71962 0.35594,0.93142c0.29621,0.21179 0.69238,0.22864 1.00565,0.04332l8.00622,-4.74613l8.005,4.74613c0.14506,0.08544 0.30718,0.12876 0.47052,0.12876c0.18894,0 0.37666,-0.05776 0.53513,-0.17208c0.29743,-0.21179 0.43639,-0.57762 0.35594,-0.93142l-2.07104,-9.0398l7.02129,-6.10234c0.27427,-0.23827 0.3791,-0.61493 0.26574,-0.95789z"/>
   <path filter="url(#svg_4_blur)" id="svg_2" fill="#ffb300" d="m21.78224,16.92983l-2.40138,-7.33701c-0.1219,-0.37305 -0.47418,-0.62576 -0.87035,-0.62576l-7.76852,0c-0.39617,0 -0.74845,0.25271 -0.87035,0.62576l-2.40138,7.33581c-0.12068,0.37064 0.01219,0.77618 0.33034,1.00603l6.28503,4.53434c0.1609,0.11552 0.34985,0.17449 0.53879,0.17449s0.3791,-0.05776 0.53879,-0.17449l6.28503,-4.53434c0.32181,-0.22864 0.45468,-0.63418 0.334,-1.00482z"/>
   <path filter="url(#svg_4_blur)" id="svg_3" fill="#deb945" d="m14.62687,-0.00174c-0.34863,0 -0.69725,0.16607 -0.84109,0.4994l-3.67033,8.51993l-9.28492,0.83515c-0.36447,0.03249 -0.67287,0.27678 -0.78624,0.61974s-0.00853,0.71962 0.26452,0.95789l7.02129,6.10234l-2.07104,9.0398c-0.08045,0.35259 0.05851,0.71962 0.35594,0.93142c0.15847,0.11432 0.34741,0.17088 0.53513,0.17088c0.16212,0 0.32547,-0.04212 0.47052,-0.12876l8.00622,-4.74493l0,-0.15764c-0.18894,0 -0.3791,-0.05776 -0.53879,-0.17449l-6.28503,-4.53434c-0.31937,-0.22985 -0.45224,-0.63538 -0.33034,-1.00603l2.40016,-7.33581c0.1219,-0.37305 0.47418,-0.62576 0.87035,-0.62576l3.88365,0l0,-8.9688z"/>
   <path filter="url(#svg_4_blur)" id="svg_4" fill="#de9c00" d="m14.62687,8.96826l-3.88487,0c-0.39617,0 -0.74845,0.25271 -0.87035,0.62576l-2.40138,7.33581c-0.12068,0.37064 0.01219,0.77618 0.33034,1.00603l6.28503,4.53434c0.1609,0.11552 0.34985,0.17449 0.53879,0.17449l0,-13.67642l0.00244,0z"/>
  </g>
  <g id="svg_10">
   <path filter="url(#svg_4_blur)" id="svg_6" fill="#ffd54f" d="m47.94199,29.62456c-0.1195,-0.36095 -0.44459,-0.61804 -0.82879,-0.65224l-9.78744,-0.87894l-3.86898,-8.96668c-0.30196,-0.70036 -1.46998,-0.70036 -1.77323,0l-3.86898,8.96668l-9.78744,0.87894c-0.3842,0.03419 -0.70929,0.29129 -0.82879,0.65224s-0.00899,0.75736 0.27883,1.00812l7.4013,6.42232l-2.18313,9.5138c-0.08481,0.37108 0.06168,0.75736 0.3752,0.98026c0.31224,0.2229 0.72985,0.24063 1.06008,0.04559l8.43953,-4.995l8.43825,4.995c0.15291,0.08992 0.32381,0.13551 0.49599,0.13551c0.19917,0 0.39705,-0.06079 0.56409,-0.18111c0.31353,-0.2229 0.46001,-0.60791 0.3752,-0.98026l-2.18313,-9.5138l7.4013,-6.42232c0.28911,-0.25076 0.39962,-0.64717 0.28012,-1.00812z"/>
   <path filter="url(#svg_4_blur)" id="svg_7" fill="#ffb300" d="m40.11281,36.4205l-2.53135,-7.72173c-0.12849,-0.39261 -0.49984,-0.65857 -0.91745,-0.65857l-8.18897,0c-0.41761,0 -0.78896,0.26596 -0.91745,0.65857l-2.53135,7.72047c-0.12721,0.39008 0.01285,0.81688 0.34822,1.05878l6.62519,4.7721c0.16961,0.12158 0.36878,0.18364 0.56795,0.18364s0.39962,-0.06079 0.56795,-0.18364l6.62519,-4.7721c0.33923,-0.24063 0.47929,-0.66744 0.35208,-1.05751z"/>
   <path filter="url(#svg_4_blur)" id="svg_8" fill="#deb945" d="m32.57017,18.60112c-0.36749,0 -0.73499,0.17477 -0.88661,0.52559l-3.86898,8.96668l-9.78744,0.87894c-0.3842,0.03419 -0.70929,0.29129 -0.82879,0.65224s-0.00899,0.75736 0.27883,1.00812l7.4013,6.42232l-2.18313,9.5138c-0.08481,0.37108 0.06168,0.75736 0.3752,0.98026c0.16704,0.12032 0.36621,0.17984 0.56409,0.17984c0.1709,0 0.34308,-0.04433 0.49599,-0.13551l8.43953,-4.99373l0,-0.16591c-0.19917,0 -0.39962,-0.06079 -0.56795,-0.18364l-6.62519,-4.7721c-0.33666,-0.2419 -0.47672,-0.6687 -0.34822,-1.05878l2.53006,-7.72047c0.12849,-0.39261 0.49984,-0.65857 0.91745,-0.65857l4.09384,0l0,-9.43908z"/>
   <path filter="url(#svg_4_blur)" id="svg_9" fill="#de9c00" d="m32.57017,28.04146l-4.09513,0c-0.41761,0 -0.78896,0.26596 -0.91745,0.65857l-2.53135,7.72047c-0.12721,0.39008 0.01285,0.81688 0.34822,1.05878l6.62519,4.7721c0.16961,0.12158 0.36878,0.18364 0.56795,0.18364l0,-14.39355l0.00257,0z"/>
  </g>
 </g>
</svg>