<svg width="60" height="60" xmlns="http://www.w3.org/2000/svg">

 <g>
  <title>background</title>
  <rect fill="none" id="canvas_background" height="62" width="62" y="-1" x="-1"/>
 </g>
 <g>
  <title>Layer 1</title>
  <g id="svg_9">
   <path id="svg_1" fill="#ef5350" d="m23.47072,18.54792l-18.5,0c-0.414,0 -0.75,0.336 -0.75,0.75l0,10.75c0,1.517 1.233,2.75 2.75,2.75l14.5,0c1.517,0 2.75,-1.233 2.75,-2.75l0,-10.75c0,-0.414 -0.336,-0.75 -0.75,-0.75z"/>
   <path id="svg_2" fill="#ffd54f" d="m16.47072,28.79792c-0.146,0 -0.29,-0.043 -0.416,-0.126l-1.834,-1.223l-1.834,1.223c-0.229,0.152 -0.527,0.168 -0.77,0.037c-0.244,-0.13 -0.396,-0.385 -0.396,-0.661l0,-7.75c0,-0.414 0.336,-0.75 0.75,-0.75l4.5,0c0.414,0 0.75,0.336 0.75,0.75l0,7.75c0,0.276 -0.152,0.531 -0.396,0.661c-0.111,0.059 -0.233,0.089 -0.354,0.089z"/>
   <path id="svg_3" fill="#ffd54f" d="m18.94472,9.49892c-1.002,-1.001 -2.747,-1.001 -3.747,0c-0.365,0.365 -0.698,1.123 -0.977,1.929c-0.279,-0.806 -0.612,-1.565 -0.977,-1.929c-1,-1.001 -2.745,-1.001 -3.747,0c-0.501,0.5 -0.776,1.166 -0.776,1.874c0,0.707 0.275,1.373 0.776,1.873c0.832,0.832 3.702,1.519 4.562,1.709l0.162,0.018l0.162,-0.018c0.859,-0.19 3.729,-0.877 4.561,-1.709c0.501,-0.5 0.776,-1.166 0.776,-1.873c0.001,-0.708 -0.274,-1.374 -0.775,-1.874zm-8.387,2.686c-0.217,-0.216 -0.337,-0.505 -0.337,-0.812c0,-0.308 0.12,-0.597 0.337,-0.814c0.218,-0.217 0.506,-0.336 0.813,-0.336s0.596,0.119 0.813,0.336l0,0.001c0.265,0.265 0.675,1.414 1.009,2.635c-1.22,-0.335 -2.37,-0.745 -2.635,-1.01zm7.326,0c-0.265,0.265 -1.415,0.675 -2.635,1.009c0.334,-1.22 0.744,-2.37 1.009,-2.635c0.217,-0.217 0.506,-0.336 0.813,-0.336c0.308,0 0.596,0.119 0.813,0.337c0.217,0.216 0.337,0.505 0.337,0.813c0,0.307 -0.12,0.596 -0.337,0.812z"/>
   <path id="svg_4" fill="#e53935" d="m24.47072,13.79792l-20.5,0c-0.965,0 -1.75,0.785 -1.75,1.75l0,3.5c0,0.965 0.785,1.75 1.75,1.75l20.5,0c0.965,0 1.75,-0.785 1.75,-1.75l0,-3.5c0,-0.965 -0.785,-1.75 -1.75,-1.75z"/>
   <path id="svg_5" fill="#d04846" d="m11.22072,20.79792l-7,0l0,9.25c0,1.517 1.233,2.75 2.75,2.75l7.25,0l0,-5.349l-1.834,1.223c-0.125,0.083 -0.271,0.126 -0.417,0.126c-0.121,0 -0.242,-0.029 -0.352,-0.089c-0.245,-0.13 -0.397,-0.385 -0.397,-0.661l0,-7.25z"/>
   <path id="svg_6" fill="#deb945" d="m14.22072,20.79792l-3,0l0,7.25c0,0.276 0.152,0.531 0.396,0.661c0.11,0.059 0.231,0.089 0.352,0.089c0.146,0 0.292,-0.042 0.417,-0.126l1.835,-1.223l0,-6.651z"/>
   <path id="svg_7" fill="#deb945" d="m13.19272,13.19392c-1.22,-0.334 -2.37,-0.744 -2.635,-1.009c-0.217,-0.216 -0.337,-0.505 -0.337,-0.812c0,-0.308 0.12,-0.597 0.337,-0.814c0.218,-0.217 0.506,-0.336 0.813,-0.336s0.596,0.119 0.813,0.336l0,0.001c0.265,0.264 0.675,1.414 1.009,2.634zm-1.821,-4.446c-0.687,0 -1.374,0.25 -1.875,0.751c-0.501,0.5 -0.776,1.166 -0.776,1.874c0,0.707 0.275,1.373 0.776,1.873c0.194,0.193 0.497,0.379 0.859,0.552l3.865,0l0,-2.37c-0.279,-0.806 -0.612,-1.565 -0.977,-1.929c-0.5,-0.501 -1.186,-0.751 -1.872,-0.751z"/>
   <path id="svg_8" fill="#c7322e" d="m14.22072,13.79792l-3.865,0l-6.385,0c-0.965,0 -1.75,0.785 -1.75,1.75l0,3.5c0,0.965 0.785,1.75 1.75,1.75l0.25,0l7,0l3,0l0,-7z"/>
  </g>
  <g id="svg_18">
   <path id="svg_10" fill="#ef5350" d="m54.35906,11.81872l-18.5,0c-0.414,0 -0.75,0.336 -0.75,0.75l0,10.75c0,1.517 1.233,2.75 2.75,2.75l14.5,0c1.517,0 2.75,-1.233 2.75,-2.75l0,-10.75c0,-0.414 -0.336,-0.75 -0.75,-0.75z"/>
   <path id="svg_11" fill="#ffd54f" d="m47.35906,22.06872c-0.146,0 -0.29,-0.043 -0.416,-0.126l-1.834,-1.223l-1.834,1.223c-0.229,0.152 -0.527,0.168 -0.77,0.037c-0.244,-0.13 -0.396,-0.385 -0.396,-0.661l0,-7.75c0,-0.414 0.336,-0.75 0.75,-0.75l4.5,0c0.414,0 0.75,0.336 0.75,0.75l0,7.75c0,0.276 -0.152,0.531 -0.396,0.661c-0.111,0.059 -0.233,0.089 -0.354,0.089z"/>
   <path id="svg_12" fill="#ffd54f" d="m49.83306,2.76972c-1.002,-1.001 -2.747,-1.001 -3.747,0c-0.365,0.365 -0.698,1.123 -0.977,1.929c-0.279,-0.806 -0.612,-1.565 -0.977,-1.929c-1,-1.001 -2.745,-1.001 -3.747,0c-0.501,0.5 -0.776,1.166 -0.776,1.874c0,0.707 0.275,1.373 0.776,1.873c0.832,0.832 3.702,1.519 4.562,1.709l0.162,0.018l0.162,-0.018c0.859,-0.19 3.729,-0.877 4.561,-1.709c0.501,-0.5 0.776,-1.166 0.776,-1.873c0.001,-0.708 -0.274,-1.374 -0.775,-1.874zm-8.387,2.686c-0.217,-0.216 -0.337,-0.505 -0.337,-0.812c0,-0.308 0.12,-0.597 0.337,-0.814c0.218,-0.217 0.506,-0.336 0.813,-0.336s0.596,0.119 0.813,0.336l0,0.001c0.265,0.265 0.675,1.414 1.009,2.635c-1.22,-0.335 -2.37,-0.745 -2.635,-1.01zm7.326,0c-0.265,0.265 -1.415,0.675 -2.635,1.009c0.334,-1.22 0.744,-2.37 1.009,-2.635c0.217,-0.217 0.506,-0.336 0.813,-0.336c0.308,0 0.596,0.119 0.813,0.337c0.217,0.216 0.337,0.505 0.337,0.813c0,0.307 -0.12,0.596 -0.337,0.812z"/>
   <path id="svg_13" fill="#e53935" d="m55.35906,7.06872l-20.5,0c-0.965,0 -1.75,0.785 -1.75,1.75l0,3.5c0,0.965 0.785,1.75 1.75,1.75l20.5,0c0.965,0 1.75,-0.785 1.75,-1.75l0,-3.5c0,-0.965 -0.785,-1.75 -1.75,-1.75z"/>
   <path id="svg_14" fill="#d04846" d="m42.10906,14.06872l-7,0l0,9.25c0,1.517 1.233,2.75 2.75,2.75l7.25,0l0,-5.349l-1.834,1.223c-0.125,0.083 -0.271,0.126 -0.417,0.126c-0.121,0 -0.242,-0.029 -0.352,-0.089c-0.245,-0.13 -0.397,-0.385 -0.397,-0.661l0,-7.25z"/>
   <path id="svg_15" fill="#deb945" d="m45.10906,14.06872l-3,0l0,7.25c0,0.276 0.152,0.531 0.396,0.661c0.11,0.059 0.231,0.089 0.352,0.089c0.146,0 0.292,-0.042 0.417,-0.126l1.835,-1.223l0,-6.651z"/>
   <path id="svg_16" fill="#deb945" d="m44.08106,6.46472c-1.22,-0.334 -2.37,-0.744 -2.635,-1.009c-0.217,-0.216 -0.337,-0.505 -0.337,-0.812c0,-0.308 0.12,-0.597 0.337,-0.814c0.218,-0.217 0.506,-0.336 0.813,-0.336s0.596,0.119 0.813,0.336l0,0.001c0.265,0.264 0.675,1.414 1.009,2.634zm-1.821,-4.446c-0.687,0 -1.374,0.25 -1.875,0.751c-0.501,0.5 -0.776,1.166 -0.776,1.874c0,0.707 0.275,1.373 0.776,1.873c0.194,0.193 0.497,0.379 0.859,0.552l3.865,0l0,-2.37c-0.279,-0.806 -0.612,-1.565 -0.977,-1.929c-0.5,-0.501 -1.186,-0.751 -1.872,-0.751z"/>
   <path id="svg_17" fill="#c7322e" d="m45.10906,7.06872l-3.865,0l-6.385,0c-0.965,0 -1.75,0.785 -1.75,1.75l0,3.5c0,0.965 0.785,1.75 1.75,1.75l0.25,0l7,0l3,0l0,-7z"/>
  </g>
  <g id="svg_27">
   <path id="svg_19" fill="#ef5350" d="m46.01412,42.37196l-18.5,0c-0.414,0 -0.75,0.336 -0.75,0.75l0,10.75c0,1.517 1.233,2.75 2.75,2.75l14.5,0c1.517,0 2.75,-1.233 2.75,-2.75l0,-10.75c0,-0.414 -0.336,-0.75 -0.75,-0.75z"/>
   <path id="svg_20" fill="#ffd54f" d="m39.01412,52.62196c-0.146,0 -0.29,-0.043 -0.416,-0.126l-1.834,-1.223l-1.834,1.223c-0.229,0.152 -0.527,0.168 -0.77,0.037c-0.244,-0.13 -0.396,-0.385 -0.396,-0.661l0,-7.75c0,-0.414 0.336,-0.75 0.75,-0.75l4.5,0c0.414,0 0.75,0.336 0.75,0.75l0,7.75c0,0.276 -0.152,0.531 -0.396,0.661c-0.111,0.059 -0.233,0.089 -0.354,0.089z"/>
   <path id="svg_21" fill="#ffd54f" d="m41.48812,33.32296c-1.002,-1.001 -2.747,-1.001 -3.747,0c-0.365,0.365 -0.698,1.123 -0.977,1.929c-0.279,-0.806 -0.612,-1.565 -0.977,-1.929c-1,-1.001 -2.745,-1.001 -3.747,0c-0.501,0.5 -0.776,1.166 -0.776,1.874c0,0.707 0.275,1.373 0.776,1.873c0.832,0.832 3.702,1.519 4.562,1.709l0.162,0.018l0.162,-0.018c0.859,-0.19 3.729,-0.877 4.561,-1.709c0.501,-0.5 0.776,-1.166 0.776,-1.873c0.001,-0.708 -0.274,-1.374 -0.775,-1.874zm-8.387,2.686c-0.217,-0.216 -0.337,-0.505 -0.337,-0.812c0,-0.308 0.12,-0.597 0.337,-0.814c0.218,-0.217 0.506,-0.336 0.813,-0.336s0.596,0.119 0.813,0.336l0,0.001c0.265,0.265 0.675,1.414 1.009,2.635c-1.22,-0.335 -2.37,-0.745 -2.635,-1.01zm7.326,0c-0.265,0.265 -1.415,0.675 -2.635,1.009c0.334,-1.22 0.744,-2.37 1.009,-2.635c0.217,-0.217 0.506,-0.336 0.813,-0.336c0.308,0 0.596,0.119 0.813,0.337c0.217,0.216 0.337,0.505 0.337,0.813c0,0.307 -0.12,0.596 -0.337,0.812z"/>
   <path id="svg_22" fill="#e53935" d="m47.01412,37.62196l-20.5,0c-0.965,0 -1.75,0.785 -1.75,1.75l0,3.5c0,0.965 0.785,1.75 1.75,1.75l20.5,0c0.965,0 1.75,-0.785 1.75,-1.75l0,-3.5c0,-0.965 -0.785,-1.75 -1.75,-1.75z"/>
   <path id="svg_23" fill="#d04846" d="m33.76412,44.62196l-7,0l0,9.25c0,1.517 1.233,2.75 2.75,2.75l7.25,0l0,-5.349l-1.834,1.223c-0.125,0.083 -0.271,0.126 -0.417,0.126c-0.121,0 -0.242,-0.029 -0.352,-0.089c-0.245,-0.13 -0.397,-0.385 -0.397,-0.661l0,-7.25z"/>
   <path id="svg_24" fill="#deb945" d="m36.76412,44.62196l-3,0l0,7.25c0,0.276 0.152,0.531 0.396,0.661c0.11,0.059 0.231,0.089 0.352,0.089c0.146,0 0.292,-0.042 0.417,-0.126l1.835,-1.223l0,-6.651z"/>
   <path id="svg_25" fill="#deb945" d="m35.73612,37.01796c-1.22,-0.334 -2.37,-0.744 -2.635,-1.009c-0.217,-0.216 -0.337,-0.505 -0.337,-0.812c0,-0.308 0.12,-0.597 0.337,-0.814c0.218,-0.217 0.506,-0.336 0.813,-0.336s0.596,0.119 0.813,0.336l0,0.001c0.265,0.264 0.675,1.414 1.009,2.634zm-1.821,-4.446c-0.687,0 -1.374,0.25 -1.875,0.751c-0.501,0.5 -0.776,1.166 -0.776,1.874c0,0.707 0.275,1.373 0.776,1.873c0.194,0.193 0.497,0.379 0.859,0.552l3.865,0l0,-2.37c-0.279,-0.806 -0.612,-1.565 -0.977,-1.929c-0.5,-0.501 -1.186,-0.751 -1.872,-0.751z"/>
   <path id="svg_26" fill="#c7322e" d="m36.76412,37.62196l-3.865,0l-6.385,0c-0.965,0 -1.75,0.785 -1.75,1.75l0,3.5c0,0.965 0.785,1.75 1.75,1.75l0.25,0l7,0l3,0l0,-7z"/>
  </g>
 </g>
</svg>