<svg width="60" height="60" xmlns="http://www.w3.org/2000/svg">

 <g>
  <title>background</title>
  <rect fill="none" id="canvas_background" height="62" width="62" y="-1" x="-1"/>
 </g>
 <g>
  <title>Layer 1</title>
  <g id="svg_7">
   <path id="svg_1" fill="#ef5350" d="m20.40403,4.792c-1.769,-1.985 -4.26,-2.992 -7.404,-2.992c-10.585,0 -11.164,7.857 -11.169,7.936c-0.021,0.366 0.226,0.694 0.583,0.775l2.52,0.57c0.258,0.059 0.52,-0.021 0.702,-0.208c0.371,-0.381 0.835,-0.557 1.394,-0.572c0.396,0.244 0.369,2.559 -0.266,5.105l-0.01,0.05c-0.077,0.399 0.182,0.762 0.579,0.85c0.393,0.084 0.796,-0.181 0.895,-0.575l0.032,-0.131l13.495,0c0.001,0.351 0.234,0.667 0.593,0.736l0.144,0.014c0.352,0 0.666,-0.249 0.735,-0.607l0.019,-0.107c0.031,-0.277 0.74,-6.825 -2.842,-10.844z"/>
   <path id="svg_2" fill="#e3f2fd" d="m22.00003,15.05l-14,0c-1.654,0 -3,1.346 -3,3s1.346,3 3,3l14,0c1.654,0 3,-1.346 3,-3s-1.346,-3 -3,-3z"/>
   <path id="svg_3" fill="#d04846" d="m13.00003,1.8c-10.585,0 -11.164,7.857 -11.169,7.936c-0.021,0.366 0.226,0.694 0.583,0.775l2.52,0.57c0.056,0.013 0.112,0.019 0.168,0.019c0.2,0 0.392,-0.08 0.534,-0.227c0.371,-0.381 0.835,-0.557 1.394,-0.572c0.39,0.241 0.37,2.498 -0.241,5.004c0.37,-0.164 0.78,-0.255 1.211,-0.255l7,0l0,-13.101c-0.634,-0.099 -1.301,-0.149 -2,-0.149z"/>
   <path id="svg_4" fill="#c6d3dc" d="m15.00003,15.05l-7,0c-0.431,0 -0.841,0.091 -1.211,0.255c-1.053,0.467 -1.789,1.521 -1.789,2.745c0,1.654 1.346,3 3,3l7,0l0,-6z"/>
   <path id="svg_5" fill="#e3f2fd" d="m3.50003,9.05c-1.379,0 -2.5,1.122 -2.5,2.5s1.121,2.5 2.5,2.5s2.5,-1.122 2.5,-2.5c0,-1.379 -1.121,-2.5 -2.5,-2.5z"/>
   <path id="svg_6" fill="#c6d3dc" d="m3.50003,9.05c-1.379,0 -2.5,1.122 -2.5,2.5s1.121,2.5 2.5,2.5l0,-5z"/>
  </g>
  <g id="svg_14">
   <path id="svg_8" fill="#ef5350" d="m53.40513,8.54212c-1.769,-1.985 -4.26,-2.992 -7.404,-2.992c-10.585,0 -11.164,7.857 -11.169,7.936c-0.021,0.366 0.226,0.694 0.583,0.775l2.52,0.57c0.258,0.059 0.52,-0.021 0.702,-0.208c0.371,-0.381 0.835,-0.557 1.394,-0.572c0.396,0.244 0.369,2.559 -0.266,5.105l-0.01,0.05c-0.077,0.399 0.182,0.762 0.579,0.85c0.393,0.084 0.796,-0.181 0.895,-0.575l0.032,-0.131l13.495,0c0.001,0.351 0.234,0.667 0.593,0.736l0.144,0.014c0.352,0 0.666,-0.249 0.735,-0.607l0.019,-0.107c0.031,-0.277 0.74,-6.825 -2.842,-10.844z"/>
   <path id="svg_9" fill="#e3f2fd" d="m55.00113,18.80012l-14,0c-1.654,0 -3,1.346 -3,3s1.346,3 3,3l14,0c1.654,0 3,-1.346 3,-3s-1.346,-3 -3,-3z"/>
   <path id="svg_10" fill="#d04846" d="m46.00113,5.55012c-10.585,0 -11.164,7.857 -11.169,7.936c-0.021,0.366 0.226,0.694 0.583,0.775l2.52,0.57c0.056,0.013 0.112,0.019 0.168,0.019c0.2,0 0.392,-0.08 0.534,-0.227c0.371,-0.381 0.835,-0.557 1.394,-0.572c0.39,0.241 0.37,2.498 -0.241,5.004c0.37,-0.164 0.78,-0.255 1.211,-0.255l7,0l0,-13.101c-0.634,-0.099 -1.301,-0.149 -2,-0.149z"/>
   <path id="svg_11" fill="#c6d3dc" d="m48.00113,18.80012l-7,0c-0.431,0 -0.841,0.091 -1.211,0.255c-1.053,0.467 -1.789,1.521 -1.789,2.745c0,1.654 1.346,3 3,3l7,0l0,-6z"/>
   <path id="svg_12" fill="#e3f2fd" d="m36.50113,12.80012c-1.379,0 -2.5,1.122 -2.5,2.5s1.121,2.5 2.5,2.5s2.5,-1.122 2.5,-2.5c0,-1.379 -1.121,-2.5 -2.5,-2.5z"/>
   <path id="svg_13" fill="#c6d3dc" d="m36.50113,12.80012c-1.379,0 -2.5,1.122 -2.5,2.5s1.121,2.5 2.5,2.5l0,-5z"/>
  </g>
  <g id="svg_21">
   <path id="svg_15" fill="#ef5350" d="m20.65404,37.7931c-1.769,-1.985 -4.26,-2.992 -7.404,-2.992c-10.585,0 -11.164,7.857 -11.169,7.936c-0.021,0.366 0.226,0.694 0.583,0.775l2.52,0.57c0.258,0.059 0.52,-0.021 0.702,-0.208c0.371,-0.381 0.835,-0.557 1.394,-0.572c0.396,0.244 0.369,2.559 -0.266,5.105l-0.01,0.05c-0.077,0.399 0.182,0.762 0.579,0.85c0.393,0.084 0.796,-0.181 0.895,-0.575l0.032,-0.131l13.495,0c0.001,0.351 0.234,0.667 0.593,0.736l0.144,0.014c0.352,0 0.666,-0.249 0.735,-0.607l0.019,-0.107c0.031,-0.277 0.74,-6.825 -2.842,-10.844z"/>
   <path id="svg_16" fill="#e3f2fd" d="m22.25004,48.0511l-14,0c-1.654,0 -3,1.346 -3,3s1.346,3 3,3l14,0c1.654,0 3,-1.346 3,-3s-1.346,-3 -3,-3z"/>
   <path id="svg_17" fill="#d04846" d="m13.25004,34.8011c-10.585,0 -11.164,7.857 -11.169,7.936c-0.021,0.366 0.226,0.694 0.583,0.775l2.52,0.57c0.056,0.013 0.112,0.019 0.168,0.019c0.2,0 0.392,-0.08 0.534,-0.227c0.371,-0.381 0.835,-0.557 1.394,-0.572c0.39,0.241 0.37,2.498 -0.241,5.004c0.37,-0.164 0.78,-0.255 1.211,-0.255l7,0l0,-13.101c-0.634,-0.099 -1.301,-0.149 -2,-0.149z"/>
   <path id="svg_18" fill="#c6d3dc" d="m15.25004,48.0511l-7,0c-0.431,0 -0.841,0.091 -1.211,0.255c-1.053,0.467 -1.789,1.521 -1.789,2.745c0,1.654 1.346,3 3,3l7,0l0,-6z"/>
   <path id="svg_19" fill="#e3f2fd" d="m3.75004,42.0511c-1.379,0 -2.5,1.122 -2.5,2.5s1.121,2.5 2.5,2.5s2.5,-1.122 2.5,-2.5c0,-1.379 -1.121,-2.5 -2.5,-2.5z"/>
   <path id="svg_20" fill="#c6d3dc" d="m3.75004,42.0511c-1.379,0 -2.5,1.122 -2.5,2.5s1.121,2.5 2.5,2.5l0,-5z"/>
  </g>
  <g id="svg_28">
   <path id="svg_22" fill="#ef5350" d="m53.40513,41.54322c-1.769,-1.985 -4.26,-2.992 -7.404,-2.992c-10.585,0 -11.164,7.857 -11.169,7.936c-0.021,0.366 0.226,0.694 0.583,0.775l2.52,0.57c0.258,0.059 0.52,-0.021 0.702,-0.208c0.371,-0.381 0.835,-0.557 1.394,-0.572c0.396,0.244 0.369,2.559 -0.266,5.105l-0.01,0.05c-0.077,0.399 0.182,0.762 0.579,0.85c0.393,0.084 0.796,-0.181 0.895,-0.575l0.032,-0.131l13.495,0c0.001,0.351 0.234,0.667 0.593,0.736l0.144,0.014c0.352,0 0.666,-0.249 0.735,-0.607l0.019,-0.107c0.031,-0.277 0.74,-6.825 -2.842,-10.844z"/>
   <path id="svg_23" fill="#e3f2fd" d="m55.00113,51.80122l-14,0c-1.654,0 -3,1.346 -3,3s1.346,3 3,3l14,0c1.654,0 3,-1.346 3,-3s-1.346,-3 -3,-3z"/>
   <path id="svg_24" fill="#d04846" d="m46.00113,38.55122c-10.585,0 -11.164,7.857 -11.169,7.936c-0.021,0.366 0.226,0.694 0.583,0.775l2.52,0.57c0.056,0.013 0.112,0.019 0.168,0.019c0.2,0 0.392,-0.08 0.534,-0.227c0.371,-0.381 0.835,-0.557 1.394,-0.572c0.39,0.241 0.37,2.498 -0.241,5.004c0.37,-0.164 0.78,-0.255 1.211,-0.255l7,0l0,-13.101c-0.634,-0.099 -1.301,-0.149 -2,-0.149z"/>
   <path id="svg_25" fill="#c6d3dc" d="m48.00113,51.80122l-7,0c-0.431,0 -0.841,0.091 -1.211,0.255c-1.053,0.467 -1.789,1.521 -1.789,2.745c0,1.654 1.346,3 3,3l7,0l0,-6z"/>
   <path id="svg_26" fill="#e3f2fd" d="m36.50113,45.80122c-1.379,0 -2.5,1.122 -2.5,2.5s1.121,2.5 2.5,2.5s2.5,-1.122 2.5,-2.5c0,-1.379 -1.121,-2.5 -2.5,-2.5z"/>
   <path id="svg_27" fill="#c6d3dc" d="m36.50113,45.80122c-1.379,0 -2.5,1.122 -2.5,2.5s1.121,2.5 2.5,2.5l0,-5z"/>
  </g>
 </g>
</svg>