<svg width="60" height="60" xmlns="http://www.w3.org/2000/svg">

 <g>
  <title>background</title>
  <rect fill="none" id="canvas_background" height="62" width="62" y="-1" x="-1"/>
 </g>
 <g>
  <title>Layer 1</title>
  <g id="svg_10">
   <path id="svg_1" fill="#607d8b" d="m14.06818,5.63782c-0.414,0 -0.75,-0.336 -0.75,-0.75l0,-2.106c0,-0.578 -0.471,-1.05 -1.05,-1.05l-0.9,0c-0.579,0 -1.05,0.472 -1.05,1.05l0,2.106c0,0.414 -0.336,0.75 -0.75,0.75s-0.75,-0.336 -0.75,-0.75l0,-2.106c0,-1.406 1.144,-2.55 2.55,-2.55l0.9,0c1.406,0 2.55,1.143 2.55,2.55l0,2.106c0,0.414 -0.336,0.75 -0.75,0.75z"/>
   <path id="svg_2" fill="#66bb6a" d="m21.81818,14.23182l0,0.141c-0.01,0.649 -0.08,1.279 -0.21,1.899c-0.11,0.521 -0.26,1.03 -0.45,1.521c-1.44,3.759 -5.09,6.439 -9.34,6.439s-7.9,-2.68 -9.34,-6.439c-0.19,-0.49 -0.34,-1 -0.45,-1.521c-0.13,-0.62 -0.2,-1.25 -0.21,-1.9l0,-0.14c0,-0.62 0.06,-1.229 0.17,-1.819c0.86,-4.651 4.94,-8.181 9.83,-8.181c4.88,0 8.97,3.53 9.83,8.17c0.11,0.59 0.17,1.21 0.17,1.83z"/>
   <path id="svg_3" fill="#ef5350" d="m21.81818,14.23182l0,0.141l-3.59,-2.57l-2.47,2.47c-0.28,0.28 -0.72,0.3 -1.02,0.04l-2.92,-2.501l-2.92,2.5c-0.3,0.26 -0.74,0.24 -1.02,-0.04l-2.47,-2.47l-3.59,2.57l0,-0.14c0,-0.62 0.06,-1.229 0.17,-1.819l3.06,-2.2c0.3,-0.21 0.71,-0.181 0.97,0.08l2.43,2.43l2.88,-2.47c0.28,-0.24 0.7,-0.24 0.98,0l2.88,2.47l2.43,-2.43c0.26,-0.261 0.67,-0.29 0.97,-0.08l3.06,2.189c0.11,0.59 0.17,1.21 0.17,1.83z"/>
   <path id="svg_4" fill="#ef5350" d="m21.60818,16.27182c-0.11,0.521 -0.26,1.03 -0.45,1.521l-2.93,-2.091l-2.47,2.471c-0.28,0.279 -0.72,0.29 -1.02,0.04l-2.92,-2.511l-2.92,2.51c-0.3,0.25 -0.74,0.239 -1.02,-0.04l-2.47,-2.47l-2.93,2.09c-0.19,-0.49 -0.34,-1 -0.45,-1.521l3.03,-2.16c0.29,-0.22 0.7,-0.18 0.96,0.08l2.43,2.431l2.88,-2.471c0.28,-0.239 0.7,-0.239 0.98,0l2.88,2.471l2.43,-2.431c0.26,-0.26 0.67,-0.3 0.96,-0.08l3.03,2.161z"/>
   <path id="svg_5" fill="#546d79" d="m11.81818,0.23182l-0.45,0c-1.406,0 -2.55,1.143 -2.55,2.55l0,1.91c0.485,-0.153 0.986,-0.27 1.5,-0.348l0,-1.562c0,-0.578 0.471,-1.05 1.05,-1.05l0.45,0l0,-1.5z"/>
   <path id="svg_6" fill="#59a35c" d="m5.40818,11.80182l-3.59,2.57l0,-0.14l0,0.141c0.01,0.649 0.08,1.279 0.21,1.899c0.11,0.521 0.26,1.03 0.45,1.521c1.44,3.759 5.09,6.439 9.34,6.439l0,-8.53l-2.92,2.51c-0.143,0.119 -0.317,0.179 -0.491,0.179c-0.191,0 -0.382,-0.073 -0.529,-0.219l-2.47,-2.47l-2.93,2.09c-0.19,-0.49 -0.34,-1 -0.45,-1.521l3.03,-2.16c0.127,-0.096 0.277,-0.143 0.427,-0.143c0.193,0 0.387,0.077 0.533,0.223l2.43,2.431l2.88,-2.471c0.14,-0.12 0.315,-0.179 0.49,-0.179l0,-2.16l-2.92,2.5c-0.142,0.123 -0.315,0.183 -0.487,0.183c-0.193,0 -0.385,-0.075 -0.533,-0.223l-2.47,-2.47zm6.41,-7.57c-0.51,0 -1.011,0.038 -1.5,0.112c-0.514,0.078 -1.015,0.195 -1.5,0.348c-3.486,1.1 -6.153,4.064 -6.83,7.721l3.06,-2.2c0.133,-0.093 0.287,-0.139 0.44,-0.139c0.193,0 0.385,0.073 0.53,0.219l2.43,2.43l2.88,-2.47c0.14,-0.12 0.315,-0.18 0.49,-0.18l0,-5.841z"/>
   <g id="svg_7" fill="#d04846">
    <path id="svg_8" d="m11.81818,10.07182c-0.175,0 -0.35,0.06 -0.49,0.18l-2.88,2.47l-2.43,-2.43c-0.145,-0.145 -0.337,-0.219 -0.53,-0.219c-0.153,0 -0.307,0.046 -0.44,0.139l-3.06,2.2c-0.11,0.59 -0.17,1.2 -0.17,1.82l0,0.141l3.59,-2.57l2.47,2.47c0.148,0.148 0.34,0.223 0.533,0.223c0.173,0 0.346,-0.06 0.487,-0.183l2.92,-2.5l0,-1.741z"/>
    <path id="svg_9" d="m5.48518,13.96882c-0.15,0 -0.3,0.046 -0.427,0.143l-3.03,2.16c0.11,0.521 0.26,1.03 0.45,1.521l2.93,-2.091l2.47,2.471c0.147,0.146 0.337,0.219 0.529,0.219c0.174,0 0.349,-0.06 0.491,-0.179l2.92,-2.511l0,-1.73c-0.175,0 -0.35,0.06 -0.49,0.179l-2.88,2.471l-2.43,-2.43c-0.146,-0.146 -0.34,-0.223 -0.533,-0.223z"/>
   </g>
  </g>
  <g id="svg_20">
   <path id="svg_11" fill="#607d8b" d="m14.61363,41.09207c-0.414,0 -0.75,-0.336 -0.75,-0.75l0,-2.106c0,-0.578 -0.471,-1.05 -1.05,-1.05l-0.9,0c-0.579,0 -1.05,0.472 -1.05,1.05l0,2.106c0,0.414 -0.336,0.75 -0.75,0.75s-0.75,-0.336 -0.75,-0.75l0,-2.106c0,-1.406 1.144,-2.55 2.55,-2.55l0.9,0c1.406,0 2.55,1.143 2.55,2.55l0,2.106c0,0.414 -0.336,0.75 -0.75,0.75z"/>
   <path id="svg_12" fill="#66bb6a" d="m22.36363,49.68607l0,0.141c-0.01,0.649 -0.08,1.279 -0.21,1.899c-0.11,0.521 -0.26,1.03 -0.45,1.521c-1.44,3.759 -5.09,6.439 -9.34,6.439s-7.9,-2.68 -9.34,-6.439c-0.19,-0.49 -0.34,-1 -0.45,-1.521c-0.13,-0.62 -0.2,-1.25 -0.21,-1.9l0,-0.14c0,-0.62 0.06,-1.229 0.17,-1.819c0.86,-4.651 4.94,-8.181 9.83,-8.181c4.88,0 8.97,3.53 9.83,8.17c0.11,0.59 0.17,1.21 0.17,1.83z"/>
   <path id="svg_13" fill="#ef5350" d="m22.36363,49.68607l0,0.141l-3.59,-2.57l-2.47,2.47c-0.28,0.28 -0.72,0.3 -1.02,0.04l-2.92,-2.501l-2.92,2.5c-0.3,0.26 -0.74,0.24 -1.02,-0.04l-2.47,-2.47l-3.59,2.57l0,-0.14c0,-0.62 0.06,-1.229 0.17,-1.819l3.06,-2.2c0.3,-0.21 0.71,-0.181 0.97,0.08l2.43,2.43l2.88,-2.47c0.28,-0.24 0.7,-0.24 0.98,0l2.88,2.47l2.43,-2.43c0.26,-0.261 0.67,-0.29 0.97,-0.08l3.06,2.189c0.11,0.59 0.17,1.21 0.17,1.83z"/>
   <path id="svg_14" fill="#ef5350" d="m22.15363,51.72607c-0.11,0.521 -0.26,1.03 -0.45,1.521l-2.93,-2.091l-2.47,2.471c-0.28,0.279 -0.72,0.29 -1.02,0.04l-2.92,-2.511l-2.92,2.51c-0.3,0.25 -0.74,0.239 -1.02,-0.04l-2.47,-2.47l-2.93,2.09c-0.19,-0.49 -0.34,-1 -0.45,-1.521l3.03,-2.16c0.29,-0.22 0.7,-0.18 0.96,0.08l2.43,2.431l2.88,-2.471c0.28,-0.239 0.7,-0.239 0.98,0l2.88,2.471l2.43,-2.431c0.26,-0.26 0.67,-0.3 0.96,-0.08l3.03,2.161z"/>
   <path id="svg_15" fill="#546d79" d="m12.36363,35.68607l-0.45,0c-1.406,0 -2.55,1.143 -2.55,2.55l0,1.91c0.485,-0.153 0.986,-0.27 1.5,-0.348l0,-1.562c0,-0.578 0.471,-1.05 1.05,-1.05l0.45,0l0,-1.5z"/>
   <path id="svg_16" fill="#59a35c" d="m5.95363,47.25607l-3.59,2.57l0,-0.14l0,0.141c0.01,0.649 0.08,1.279 0.21,1.899c0.11,0.521 0.26,1.03 0.45,1.521c1.44,3.759 5.09,6.439 9.34,6.439l0,-8.53l-2.92,2.51c-0.143,0.119 -0.317,0.179 -0.491,0.179c-0.191,0 -0.382,-0.073 -0.529,-0.219l-2.47,-2.47l-2.93,2.09c-0.19,-0.49 -0.34,-1 -0.45,-1.521l3.03,-2.16c0.127,-0.096 0.277,-0.143 0.427,-0.143c0.193,0 0.387,0.077 0.533,0.223l2.43,2.431l2.88,-2.471c0.14,-0.12 0.315,-0.179 0.49,-0.179l0,-2.16l-2.92,2.5c-0.142,0.123 -0.315,0.183 -0.487,0.183c-0.193,0 -0.385,-0.075 -0.533,-0.223l-2.47,-2.47zm6.41,-7.57c-0.51,0 -1.011,0.038 -1.5,0.112c-0.514,0.078 -1.015,0.195 -1.5,0.348c-3.486,1.1 -6.153,4.064 -6.83,7.721l3.06,-2.2c0.133,-0.093 0.287,-0.139 0.44,-0.139c0.193,0 0.385,0.073 0.53,0.219l2.43,2.43l2.88,-2.47c0.14,-0.12 0.315,-0.18 0.49,-0.18l0,-5.841z"/>
   <g id="svg_19" fill="#d04846">
    <path id="svg_17" d="m12.36363,45.52607c-0.175,0 -0.35,0.06 -0.49,0.18l-2.88,2.47l-2.43,-2.43c-0.145,-0.145 -0.337,-0.219 -0.53,-0.219c-0.153,0 -0.307,0.046 -0.44,0.139l-3.06,2.2c-0.11,0.59 -0.17,1.2 -0.17,1.82l0,0.141l3.59,-2.57l2.47,2.47c0.148,0.148 0.34,0.223 0.533,0.223c0.173,0 0.346,-0.06 0.487,-0.183l2.92,-2.5l0,-1.741z"/>
    <path id="svg_18" d="m6.03063,49.42307c-0.15,0 -0.3,0.046 -0.427,0.143l-3.03,2.16c0.11,0.521 0.26,1.03 0.45,1.521l2.93,-2.091l2.47,2.471c0.147,0.146 0.337,0.219 0.529,0.219c0.174,0 0.349,-0.06 0.491,-0.179l2.92,-2.511l0,-1.73c-0.175,0 -0.35,0.06 -0.49,0.179l-2.88,2.471l-2.43,-2.43c-0.146,-0.146 -0.34,-0.223 -0.533,-0.223z"/>
   </g>
  </g>
  <g id="svg_30">
   <path id="svg_21" fill="#607d8b" d="m32.24985,24.18312c-0.414,0 -0.75,-0.336 -0.75,-0.75l0,-2.106c0,-0.578 -0.471,-1.05 -1.05,-1.05l-0.9,0c-0.579,0 -1.05,0.472 -1.05,1.05l0,2.106c0,0.414 -0.336,0.75 -0.75,0.75s-0.75,-0.336 -0.75,-0.75l0,-2.106c0,-1.406 1.144,-2.55 2.55,-2.55l0.9,0c1.406,0 2.55,1.143 2.55,2.55l0,2.106c0,0.414 -0.336,0.75 -0.75,0.75z"/>
   <path id="svg_22" fill="#66bb6a" d="m39.99985,32.77712l0,0.141c-0.01,0.649 -0.08,1.279 -0.21,1.899c-0.11,0.521 -0.26,1.03 -0.45,1.521c-1.44,3.759 -5.09,6.439 -9.34,6.439s-7.9,-2.68 -9.34,-6.439c-0.19,-0.49 -0.34,-1 -0.45,-1.521c-0.13,-0.62 -0.2,-1.25 -0.21,-1.9l0,-0.14c0,-0.62 0.06,-1.229 0.17,-1.819c0.86,-4.651 4.94,-8.181 9.83,-8.181c4.88,0 8.97,3.53 9.83,8.17c0.11,0.59 0.17,1.21 0.17,1.83z"/>
   <path id="svg_23" fill="#ef5350" d="m39.99985,32.77712l0,0.141l-3.59,-2.57l-2.47,2.47c-0.28,0.28 -0.72,0.3 -1.02,0.04l-2.92,-2.501l-2.92,2.5c-0.3,0.26 -0.74,0.24 -1.02,-0.04l-2.47,-2.47l-3.59,2.57l0,-0.14c0,-0.62 0.06,-1.229 0.17,-1.819l3.06,-2.2c0.3,-0.21 0.71,-0.181 0.97,0.08l2.43,2.43l2.88,-2.47c0.28,-0.24 0.7,-0.24 0.98,0l2.88,2.47l2.43,-2.43c0.26,-0.261 0.67,-0.29 0.97,-0.08l3.06,2.189c0.11,0.59 0.17,1.21 0.17,1.83z"/>
   <path id="svg_24" fill="#ef5350" d="m39.78985,34.81712c-0.11,0.521 -0.26,1.03 -0.45,1.521l-2.93,-2.091l-2.47,2.471c-0.28,0.279 -0.72,0.29 -1.02,0.04l-2.92,-2.511l-2.92,2.51c-0.3,0.25 -0.74,0.239 -1.02,-0.04l-2.47,-2.47l-2.93,2.09c-0.19,-0.49 -0.34,-1 -0.45,-1.521l3.03,-2.16c0.29,-0.22 0.7,-0.18 0.96,0.08l2.43,2.431l2.88,-2.471c0.28,-0.239 0.7,-0.239 0.98,0l2.88,2.471l2.43,-2.431c0.26,-0.26 0.67,-0.3 0.96,-0.08l3.03,2.161z"/>
   <path id="svg_25" fill="#546d79" d="m29.99985,18.77712l-0.45,0c-1.406,0 -2.55,1.143 -2.55,2.55l0,1.91c0.485,-0.153 0.986,-0.27 1.5,-0.348l0,-1.562c0,-0.578 0.471,-1.05 1.05,-1.05l0.45,0l0,-1.5z"/>
   <path id="svg_26" fill="#59a35c" d="m23.58985,30.34712l-3.59,2.57l0,-0.14l0,0.141c0.01,0.649 0.08,1.279 0.21,1.899c0.11,0.521 0.26,1.03 0.45,1.521c1.44,3.759 5.09,6.439 9.34,6.439l0,-8.53l-2.92,2.51c-0.143,0.119 -0.317,0.179 -0.491,0.179c-0.191,0 -0.382,-0.073 -0.529,-0.219l-2.47,-2.47l-2.93,2.09c-0.19,-0.49 -0.34,-1 -0.45,-1.521l3.03,-2.16c0.127,-0.096 0.277,-0.143 0.427,-0.143c0.193,0 0.387,0.077 0.533,0.223l2.43,2.431l2.88,-2.471c0.14,-0.12 0.315,-0.179 0.49,-0.179l0,-2.16l-2.92,2.5c-0.142,0.123 -0.315,0.183 -0.487,0.183c-0.193,0 -0.385,-0.075 -0.533,-0.223l-2.47,-2.47zm6.41,-7.57c-0.51,0 -1.011,0.038 -1.5,0.112c-0.514,0.078 -1.015,0.195 -1.5,0.348c-3.486,1.1 -6.153,4.064 -6.83,7.721l3.06,-2.2c0.133,-0.093 0.287,-0.139 0.44,-0.139c0.193,0 0.385,0.073 0.53,0.219l2.43,2.43l2.88,-2.47c0.14,-0.12 0.315,-0.18 0.49,-0.18l0,-5.841z"/>
   <g id="svg_29" fill="#d04846">
    <path id="svg_27" d="m29.99985,28.61712c-0.175,0 -0.35,0.06 -0.49,0.18l-2.88,2.47l-2.43,-2.43c-0.145,-0.145 -0.337,-0.219 -0.53,-0.219c-0.153,0 -0.307,0.046 -0.44,0.139l-3.06,2.2c-0.11,0.59 -0.17,1.2 -0.17,1.82l0,0.141l3.59,-2.57l2.47,2.47c0.148,0.148 0.34,0.223 0.533,0.223c0.173,0 0.346,-0.06 0.487,-0.183l2.92,-2.5l0,-1.741z"/>
    <path id="svg_28" d="m23.66685,32.51412c-0.15,0 -0.3,0.046 -0.427,0.143l-3.03,2.16c0.11,0.521 0.26,1.03 0.45,1.521l2.93,-2.091l2.47,2.471c0.147,0.146 0.337,0.219 0.529,0.219c0.174,0 0.349,-0.06 0.491,-0.179l2.92,-2.511l0,-1.73c-0.175,0 -0.35,0.06 -0.49,0.179l-2.88,2.471l-2.43,-2.43c-0.146,-0.146 -0.34,-0.223 -0.533,-0.223z"/>
   </g>
  </g>
  <g id="svg_40">
   <path id="svg_31" fill="#607d8b" d="m50.61334,5.63782c-0.414,0 -0.75,-0.336 -0.75,-0.75l0,-2.106c0,-0.578 -0.471,-1.05 -1.05,-1.05l-0.9,0c-0.579,0 -1.05,0.472 -1.05,1.05l0,2.106c0,0.414 -0.336,0.75 -0.75,0.75s-0.75,-0.336 -0.75,-0.75l0,-2.106c0,-1.406 1.144,-2.55 2.55,-2.55l0.9,0c1.406,0 2.55,1.143 2.55,2.55l0,2.106c0,0.414 -0.336,0.75 -0.75,0.75z"/>
   <path id="svg_32" fill="#66bb6a" d="m58.36334,14.23182l0,0.141c-0.01,0.649 -0.08,1.279 -0.21,1.899c-0.11,0.521 -0.26,1.03 -0.45,1.521c-1.44,3.759 -5.09,6.439 -9.34,6.439s-7.9,-2.68 -9.34,-6.439c-0.19,-0.49 -0.34,-1 -0.45,-1.521c-0.13,-0.62 -0.2,-1.25 -0.21,-1.9l0,-0.14c0,-0.62 0.06,-1.229 0.17,-1.819c0.86,-4.651 4.94,-8.181 9.83,-8.181c4.88,0 8.97,3.53 9.83,8.17c0.11,0.59 0.17,1.21 0.17,1.83z"/>
   <path id="svg_33" fill="#ef5350" d="m58.36334,14.23182l0,0.141l-3.59,-2.57l-2.47,2.47c-0.28,0.28 -0.72,0.3 -1.02,0.04l-2.92,-2.501l-2.92,2.5c-0.3,0.26 -0.74,0.24 -1.02,-0.04l-2.47,-2.47l-3.59,2.57l0,-0.14c0,-0.62 0.06,-1.229 0.17,-1.819l3.06,-2.2c0.3,-0.21 0.71,-0.181 0.97,0.08l2.43,2.43l2.88,-2.47c0.28,-0.24 0.7,-0.24 0.98,0l2.88,2.47l2.43,-2.43c0.26,-0.261 0.67,-0.29 0.97,-0.08l3.06,2.189c0.11,0.59 0.17,1.21 0.17,1.83z"/>
   <path id="svg_34" fill="#ef5350" d="m58.15334,16.27182c-0.11,0.521 -0.26,1.03 -0.45,1.521l-2.93,-2.091l-2.47,2.471c-0.28,0.279 -0.72,0.29 -1.02,0.04l-2.92,-2.511l-2.92,2.51c-0.3,0.25 -0.74,0.239 -1.02,-0.04l-2.47,-2.47l-2.93,2.09c-0.19,-0.49 -0.34,-1 -0.45,-1.521l3.03,-2.16c0.29,-0.22 0.7,-0.18 0.96,0.08l2.43,2.431l2.88,-2.471c0.28,-0.239 0.7,-0.239 0.98,0l2.88,2.471l2.43,-2.431c0.26,-0.26 0.67,-0.3 0.96,-0.08l3.03,2.161z"/>
   <path id="svg_35" fill="#546d79" d="m48.36334,0.23182l-0.45,0c-1.406,0 -2.55,1.143 -2.55,2.55l0,1.91c0.485,-0.153 0.986,-0.27 1.5,-0.348l0,-1.562c0,-0.578 0.471,-1.05 1.05,-1.05l0.45,0l0,-1.5z"/>
   <path id="svg_36" fill="#59a35c" d="m41.95334,11.80182l-3.59,2.57l0,-0.14l0,0.141c0.01,0.649 0.08,1.279 0.21,1.899c0.11,0.521 0.26,1.03 0.45,1.521c1.44,3.759 5.09,6.439 9.34,6.439l0,-8.53l-2.92,2.51c-0.143,0.119 -0.317,0.179 -0.491,0.179c-0.191,0 -0.382,-0.073 -0.529,-0.219l-2.47,-2.47l-2.93,2.09c-0.19,-0.49 -0.34,-1 -0.45,-1.521l3.03,-2.16c0.127,-0.096 0.277,-0.143 0.427,-0.143c0.193,0 0.387,0.077 0.533,0.223l2.43,2.431l2.88,-2.471c0.14,-0.12 0.315,-0.179 0.49,-0.179l0,-2.16l-2.92,2.5c-0.142,0.123 -0.315,0.183 -0.487,0.183c-0.193,0 -0.385,-0.075 -0.533,-0.223l-2.47,-2.47zm6.41,-7.57c-0.51,0 -1.011,0.038 -1.5,0.112c-0.514,0.078 -1.015,0.195 -1.5,0.348c-3.486,1.1 -6.153,4.064 -6.83,7.721l3.06,-2.2c0.133,-0.093 0.287,-0.139 0.44,-0.139c0.193,0 0.385,0.073 0.53,0.219l2.43,2.43l2.88,-2.47c0.14,-0.12 0.315,-0.18 0.49,-0.18l0,-5.841z"/>
   <g id="svg_39" fill="#d04846">
    <path id="svg_37" d="m48.36334,10.07182c-0.175,0 -0.35,0.06 -0.49,0.18l-2.88,2.47l-2.43,-2.43c-0.145,-0.145 -0.337,-0.219 -0.53,-0.219c-0.153,0 -0.307,0.046 -0.44,0.139l-3.06,2.2c-0.11,0.59 -0.17,1.2 -0.17,1.82l0,0.141l3.59,-2.57l2.47,2.47c0.148,0.148 0.34,0.223 0.533,0.223c0.173,0 0.346,-0.06 0.487,-0.183l2.92,-2.5l0,-1.741z"/>
    <path id="svg_38" d="m42.03034,13.96882c-0.15,0 -0.3,0.046 -0.427,0.143l-3.03,2.16c0.11,0.521 0.26,1.03 0.45,1.521l2.93,-2.091l2.47,2.471c0.147,0.146 0.337,0.219 0.529,0.219c0.174,0 0.349,-0.06 0.491,-0.179l2.92,-2.511l0,-1.73c-0.175,0 -0.35,0.06 -0.49,0.179l-2.88,2.471l-2.43,-2.43c-0.146,-0.146 -0.34,-0.223 -0.533,-0.223z"/>
   </g>
  </g>
  <g id="svg_50">
   <path id="svg_41" fill="#607d8b" d="m50.61334,41.13461c-0.414,0 -0.75,-0.336 -0.75,-0.75l0,-2.106c0,-0.578 -0.471,-1.05 -1.05,-1.05l-0.9,0c-0.579,0 -1.05,0.472 -1.05,1.05l0,2.106c0,0.414 -0.336,0.75 -0.75,0.75s-0.75,-0.336 -0.75,-0.75l0,-2.106c0,-1.406 1.144,-2.55 2.55,-2.55l0.9,0c1.406,0 2.55,1.143 2.55,2.55l0,2.106c0,0.414 -0.336,0.75 -0.75,0.75z"/>
   <path id="svg_42" fill="#66bb6a" d="m58.36334,49.72861l0,0.141c-0.01,0.649 -0.08,1.279 -0.21,1.899c-0.11,0.521 -0.26,1.03 -0.45,1.521c-1.44,3.759 -5.09,6.439 -9.34,6.439s-7.9,-2.68 -9.34,-6.439c-0.19,-0.49 -0.34,-1 -0.45,-1.521c-0.13,-0.62 -0.2,-1.25 -0.21,-1.9l0,-0.14c0,-0.62 0.06,-1.229 0.17,-1.819c0.86,-4.651 4.94,-8.181 9.83,-8.181c4.88,0 8.97,3.53 9.83,8.17c0.11,0.59 0.17,1.21 0.17,1.83z"/>
   <path id="svg_43" fill="#ef5350" d="m58.36334,49.72861l0,0.141l-3.59,-2.57l-2.47,2.47c-0.28,0.28 -0.72,0.3 -1.02,0.04l-2.92,-2.501l-2.92,2.5c-0.3,0.26 -0.74,0.24 -1.02,-0.04l-2.47,-2.47l-3.59,2.57l0,-0.14c0,-0.62 0.06,-1.229 0.17,-1.819l3.06,-2.2c0.3,-0.21 0.71,-0.181 0.97,0.08l2.43,2.43l2.88,-2.47c0.28,-0.24 0.7,-0.24 0.98,0l2.88,2.47l2.43,-2.43c0.26,-0.261 0.67,-0.29 0.97,-0.08l3.06,2.189c0.11,0.59 0.17,1.21 0.17,1.83z"/>
   <path id="svg_44" fill="#ef5350" d="m58.15334,51.76861c-0.11,0.521 -0.26,1.03 -0.45,1.521l-2.93,-2.091l-2.47,2.471c-0.28,0.279 -0.72,0.29 -1.02,0.04l-2.92,-2.511l-2.92,2.51c-0.3,0.25 -0.74,0.239 -1.02,-0.04l-2.47,-2.47l-2.93,2.09c-0.19,-0.49 -0.34,-1 -0.45,-1.521l3.03,-2.16c0.29,-0.22 0.7,-0.18 0.96,0.08l2.43,2.431l2.88,-2.471c0.28,-0.239 0.7,-0.239 0.98,0l2.88,2.471l2.43,-2.431c0.26,-0.26 0.67,-0.3 0.96,-0.08l3.03,2.161z"/>
   <path id="svg_45" fill="#546d79" d="m48.36334,35.72861l-0.45,0c-1.406,0 -2.55,1.143 -2.55,2.55l0,1.91c0.485,-0.153 0.986,-0.27 1.5,-0.348l0,-1.562c0,-0.578 0.471,-1.05 1.05,-1.05l0.45,0l0,-1.5z"/>
   <path id="svg_46" fill="#59a35c" d="m41.95334,47.29861l-3.59,2.57l0,-0.14l0,0.141c0.01,0.649 0.08,1.279 0.21,1.899c0.11,0.521 0.26,1.03 0.45,1.521c1.44,3.759 5.09,6.439 9.34,6.439l0,-8.53l-2.92,2.51c-0.143,0.119 -0.317,0.179 -0.491,0.179c-0.191,0 -0.382,-0.073 -0.529,-0.219l-2.47,-2.47l-2.93,2.09c-0.19,-0.49 -0.34,-1 -0.45,-1.521l3.03,-2.16c0.127,-0.096 0.277,-0.143 0.427,-0.143c0.193,0 0.387,0.077 0.533,0.223l2.43,2.431l2.88,-2.471c0.14,-0.12 0.315,-0.179 0.49,-0.179l0,-2.16l-2.92,2.5c-0.142,0.123 -0.315,0.183 -0.487,0.183c-0.193,0 -0.385,-0.075 -0.533,-0.223l-2.47,-2.47zm6.41,-7.57c-0.51,0 -1.011,0.038 -1.5,0.112c-0.514,0.078 -1.015,0.195 -1.5,0.348c-3.486,1.1 -6.153,4.064 -6.83,7.721l3.06,-2.2c0.133,-0.093 0.287,-0.139 0.44,-0.139c0.193,0 0.385,0.073 0.53,0.219l2.43,2.43l2.88,-2.47c0.14,-0.12 0.315,-0.18 0.49,-0.18l0,-5.841z"/>
   <g id="svg_49" fill="#d04846">
    <path id="svg_47" d="m48.36334,45.56861c-0.175,0 -0.35,0.06 -0.49,0.18l-2.88,2.47l-2.43,-2.43c-0.145,-0.145 -0.337,-0.219 -0.53,-0.219c-0.153,0 -0.307,0.046 -0.44,0.139l-3.06,2.2c-0.11,0.59 -0.17,1.2 -0.17,1.82l0,0.141l3.59,-2.57l2.47,2.47c0.148,0.148 0.34,0.223 0.533,0.223c0.173,0 0.346,-0.06 0.487,-0.183l2.92,-2.5l0,-1.741z"/>
    <path id="svg_48" d="m42.03034,49.46561c-0.15,0 -0.3,0.046 -0.427,0.143l-3.03,2.16c0.11,0.521 0.26,1.03 0.45,1.521l2.93,-2.091l2.47,2.471c0.147,0.146 0.337,0.219 0.529,0.219c0.174,0 0.349,-0.06 0.491,-0.179l2.92,-2.511l0,-1.73c-0.175,0 -0.35,0.06 -0.49,0.179l-2.88,2.471l-2.43,-2.43c-0.146,-0.146 -0.34,-0.223 -0.533,-0.223z"/>
   </g>
  </g>
 </g>
</svg>