<svg width="60" height="60" xmlns="http://www.w3.org/2000/svg">

 <g>
  <title>background</title>
  <rect fill="none" id="canvas_background" height="62" width="62" y="-1" x="-1"/>
 </g>
 <g>
  <title>Layer 1</title>
  <g id="svg_9">
   <path id="svg_1" fill="#607d8b" d="m13.5,19.5l-3,0c-0.414,0 -0.75,0.336 -0.75,0.75l0,2.5c0,0.689 0.56,1.25 1.25,1.25l2,0c0.689,0 1.25,-0.56 1.25,-1.25l0,-2.5c0,-0.414 -0.336,-0.75 -0.75,-0.75z"/>
   <path id="svg_2" fill="#388e3c" d="m20.864,19.771l-4.325,-5.805c-0.143,-0.191 -0.367,-0.303 -0.605,-0.302l-7.9,0.034c-0.238,0.001 -0.462,0.115 -0.602,0.308l-4.275,5.844c-0.167,0.228 -0.191,0.531 -0.062,0.783s0.388,0.41 0.671,0.409l16.5,-0.072c0.283,-0.001 0.541,-0.162 0.667,-0.415c0.127,-0.253 0.1,-0.557 -0.069,-0.784z"/>
   <path id="svg_3" fill="#43a047" d="m19.847,13.846l-4.338,-5.691c-0.142,-0.186 -0.363,-0.295 -0.597,-0.295l-5.824,0c-0.234,0 -0.455,0.109 -0.597,0.295l-4.338,5.691c-0.173,0.227 -0.202,0.531 -0.076,0.787c0.127,0.256 0.387,0.417 0.672,0.417l14.5,0c0.285,0 0.545,-0.161 0.672,-0.417c0.128,-0.256 0.098,-0.561 -0.074,-0.787z"/>
   <path id="svg_4" fill="#66bb6a" d="m17.864,7.869l-5.25,-7.5c-0.28,-0.4 -0.948,-0.4 -1.229,0l-5.25,7.5c-0.161,0.229 -0.18,0.529 -0.051,0.777c0.13,0.249 0.386,0.404 0.666,0.404l10.5,0c0.28,0 0.536,-0.155 0.665,-0.403c0.129,-0.249 0.11,-0.548 -0.051,-0.778z"/>
   <path id="svg_5" fill="#546d79" d="m12,21.006l-2.25,0.01l0,1.734c0,0.689 0.56,1.25 1.25,1.25l1,0l0,-2.994z"/>
   <path id="svg_6" fill="#317c34" d="m12,15.05l-5.331,0l-3.511,4.8c-0.167,0.228 -0.191,0.531 -0.062,0.783c0.128,0.251 0.387,0.409 0.669,0.409l0.003,0l5.984,-0.026l2.25,-0.01l0,-5.956l-0.002,0z"/>
   <path id="svg_7" fill="#3a8b3e" d="m12,9.05l-4.191,0l-3.656,4.796c-0.173,0.227 -0.202,0.531 -0.076,0.787c0.127,0.256 0.387,0.417 0.672,0.417l1.919,0l5.332,0l0,-6z"/>
   <path id="svg_8" fill="#59a35c" d="m12,0.069c-0.237,0 -0.474,0.1 -0.614,0.3l-5.25,7.5c-0.161,0.229 -0.18,0.529 -0.051,0.777c0.129,0.249 0.385,0.404 0.665,0.404l1.059,0l4.191,0l0,-8.981z"/>
  </g>
  <g id="svg_18">
   <path id="svg_10" fill="#607d8b" d="m52.40178,22.13741l-3,0c-0.414,0 -0.75,0.336 -0.75,0.75l0,2.5c0,0.689 0.56,1.25 1.25,1.25l2,0c0.689,0 1.25,-0.56 1.25,-1.25l0,-2.5c0,-0.414 -0.336,-0.75 -0.75,-0.75z"/>
   <path id="svg_11" fill="#388e3c" d="m59.76578,22.40841l-4.325,-5.805c-0.143,-0.191 -0.367,-0.303 -0.605,-0.302l-7.9,0.034c-0.238,0.001 -0.462,0.115 -0.602,0.308l-4.275,5.844c-0.167,0.228 -0.191,0.531 -0.062,0.783s0.388,0.41 0.671,0.409l16.5,-0.072c0.283,-0.001 0.541,-0.162 0.667,-0.415c0.127,-0.253 0.1,-0.557 -0.069,-0.784z"/>
   <path id="svg_12" fill="#43a047" d="m58.74878,16.48341l-4.338,-5.691c-0.142,-0.186 -0.363,-0.295 -0.597,-0.295l-5.824,0c-0.234,0 -0.455,0.109 -0.597,0.295l-4.338,5.691c-0.173,0.227 -0.202,0.531 -0.076,0.787c0.127,0.256 0.387,0.417 0.672,0.417l14.5,0c0.285,0 0.545,-0.161 0.672,-0.417c0.128,-0.256 0.098,-0.561 -0.074,-0.787z"/>
   <path id="svg_13" fill="#66bb6a" d="m56.76578,10.50641l-5.25,-7.5c-0.28,-0.4 -0.948,-0.4 -1.229,0l-5.25,7.5c-0.161,0.229 -0.18,0.529 -0.051,0.777c0.13,0.249 0.386,0.404 0.666,0.404l10.5,0c0.28,0 0.536,-0.155 0.665,-0.403c0.129,-0.249 0.11,-0.548 -0.051,-0.778z"/>
   <path id="svg_14" fill="#546d79" d="m50.90178,23.64341l-2.25,0.01l0,1.734c0,0.689 0.56,1.25 1.25,1.25l1,0l0,-2.994z"/>
   <path id="svg_15" fill="#317c34" d="m50.90178,17.68741l-5.331,0l-3.511,4.8c-0.167,0.228 -0.191,0.531 -0.062,0.783c0.128,0.251 0.387,0.409 0.669,0.409l0.003,0l5.984,-0.026l2.25,-0.01l0,-5.956l-0.002,0z"/>
   <path id="svg_16" fill="#3a8b3e" d="m50.90178,11.68741l-4.191,0l-3.656,4.796c-0.173,0.227 -0.202,0.531 -0.076,0.787c0.127,0.256 0.387,0.417 0.672,0.417l1.919,0l5.332,0l0,-6z"/>
   <path id="svg_17" fill="#59a35c" d="m50.90178,2.70641c-0.237,0 -0.474,0.1 -0.614,0.3l-5.25,7.5c-0.161,0.229 -0.18,0.529 -0.051,0.777c0.129,0.249 0.385,0.404 0.665,0.404l1.059,0l4.191,0l0,-8.981z"/>
  </g>
  <g id="svg_27">
   <path id="svg_19" fill="#607d8b" d="m32.4234,30.11557l-3,0c-0.414,0 -0.75,0.336 -0.75,0.75l0,2.5c0,0.689 0.56,1.25 1.25,1.25l2,0c0.689,0 1.25,-0.56 1.25,-1.25l0,-2.5c0,-0.414 -0.336,-0.75 -0.75,-0.75z"/>
   <path id="svg_20" fill="#388e3c" d="m39.7874,30.38657l-4.325,-5.805c-0.143,-0.191 -0.367,-0.303 -0.605,-0.302l-7.9,0.034c-0.238,0.001 -0.462,0.115 -0.602,0.308l-4.275,5.844c-0.167,0.228 -0.191,0.531 -0.062,0.783s0.388,0.41 0.671,0.409l16.5,-0.072c0.283,-0.001 0.541,-0.162 0.667,-0.415c0.127,-0.253 0.1,-0.557 -0.069,-0.784z"/>
   <path id="svg_21" fill="#43a047" d="m38.7704,24.46157l-4.338,-5.691c-0.142,-0.186 -0.363,-0.295 -0.597,-0.295l-5.824,0c-0.234,0 -0.455,0.109 -0.597,0.295l-4.338,5.691c-0.173,0.227 -0.202,0.531 -0.076,0.787c0.127,0.256 0.387,0.417 0.672,0.417l14.5,0c0.285,0 0.545,-0.161 0.672,-0.417c0.128,-0.256 0.098,-0.561 -0.074,-0.787z"/>
   <path id="svg_22" fill="#66bb6a" d="m36.7874,18.48457l-5.25,-7.5c-0.28,-0.4 -0.948,-0.4 -1.229,0l-5.25,7.5c-0.161,0.229 -0.18,0.529 -0.051,0.777c0.13,0.249 0.386,0.404 0.666,0.404l10.5,0c0.28,0 0.536,-0.155 0.665,-0.403c0.129,-0.249 0.11,-0.548 -0.051,-0.778z"/>
   <path id="svg_23" fill="#546d79" d="m30.9234,31.62157l-2.25,0.01l0,1.734c0,0.689 0.56,1.25 1.25,1.25l1,0l0,-2.994z"/>
   <path id="svg_24" fill="#317c34" d="m30.9234,25.66557l-5.331,0l-3.511,4.8c-0.167,0.228 -0.191,0.531 -0.062,0.783c0.128,0.251 0.387,0.409 0.669,0.409l0.003,0l5.984,-0.026l2.25,-0.01l0,-5.956l-0.002,0z"/>
   <path id="svg_25" fill="#3a8b3e" d="m30.9234,19.66557l-4.191,0l-3.656,4.796c-0.173,0.227 -0.202,0.531 -0.076,0.787c0.127,0.256 0.387,0.417 0.672,0.417l1.919,0l5.332,0l0,-6z"/>
   <path id="svg_26" fill="#59a35c" d="m30.9234,10.68457c-0.237,0 -0.474,0.1 -0.614,0.3l-5.25,7.5c-0.161,0.229 -0.18,0.529 -0.051,0.777c0.129,0.249 0.385,0.404 0.665,0.404l1.059,0l4.191,0l0,-8.981z"/>
  </g>
  <g id="svg_63">
   <path id="svg_55" fill="#607d8b" d="m11.45601,45.61034l-3,0c-0.414,0 -0.75,0.336 -0.75,0.75l0,2.5c0,0.689 0.56,1.25 1.25,1.25l2,0c0.689,0 1.25,-0.56 1.25,-1.25l0,-2.5c0,-0.414 -0.336,-0.75 -0.75,-0.75z"/>
   <path id="svg_56" fill="#388e3c" d="m18.82001,45.88134l-4.325,-5.805c-0.143,-0.191 -0.367,-0.303 -0.605,-0.302l-7.9,0.034c-0.238,0.001 -0.462,0.115 -0.602,0.308l-4.275,5.844c-0.167,0.228 -0.191,0.531 -0.062,0.783s0.388,0.41 0.671,0.409l16.5,-0.072c0.283,-0.001 0.541,-0.162 0.667,-0.415c0.127,-0.253 0.1,-0.557 -0.069,-0.784z"/>
   <path id="svg_57" fill="#43a047" d="m17.80301,39.95634l-4.338,-5.691c-0.142,-0.186 -0.363,-0.295 -0.597,-0.295l-5.824,0c-0.234,0 -0.455,0.109 -0.597,0.295l-4.338,5.691c-0.173,0.227 -0.202,0.531 -0.076,0.787c0.127,0.256 0.387,0.417 0.672,0.417l14.5,0c0.285,0 0.545,-0.161 0.672,-0.417c0.128,-0.256 0.098,-0.561 -0.074,-0.787z"/>
   <path id="svg_58" fill="#66bb6a" d="m15.82001,33.97934l-5.25,-7.5c-0.28,-0.4 -0.948,-0.4 -1.229,0l-5.25,7.5c-0.161,0.229 -0.18,0.529 -0.051,0.777c0.13,0.249 0.386,0.404 0.666,0.404l10.5,0c0.28,0 0.536,-0.155 0.665,-0.403c0.129,-0.249 0.11,-0.548 -0.051,-0.778z"/>
   <path id="svg_59" fill="#546d79" d="m9.95601,47.11634l-2.25,0.01l0,1.734c0,0.689 0.56,1.25 1.25,1.25l1,0l0,-2.994z"/>
   <path id="svg_60" fill="#317c34" d="m9.95601,41.16034l-5.331,0l-3.511,4.8c-0.167,0.228 -0.191,0.531 -0.062,0.783c0.128,0.251 0.387,0.409 0.669,0.409l0.003,0l5.984,-0.026l2.25,-0.01l0,-5.956l-0.002,0z"/>
   <path id="svg_61" fill="#3a8b3e" d="m9.95601,35.16034l-4.191,0l-3.656,4.796c-0.173,0.227 -0.202,0.531 -0.076,0.787c0.127,0.256 0.387,0.417 0.672,0.417l1.919,0l5.332,0l0,-6z"/>
   <path id="svg_62" fill="#59a35c" d="m9.95601,26.17934c-0.237,0 -0.474,0.1 -0.614,0.3l-5.25,7.5c-0.161,0.229 -0.18,0.529 -0.051,0.777c0.129,0.249 0.385,0.404 0.665,0.404l1.059,0l4.191,0l0,-8.981z"/>
  </g>
  <g id="svg_72">
   <path id="svg_64" fill="#607d8b" d="m50.35778,48.24775l-3,0c-0.414,0 -0.75,0.336 -0.75,0.75l0,2.5c0,0.689 0.56,1.25 1.25,1.25l2,0c0.689,0 1.25,-0.56 1.25,-1.25l0,-2.5c0,-0.414 -0.336,-0.75 -0.75,-0.75z"/>
   <path id="svg_65" fill="#388e3c" d="m57.72178,48.51875l-4.325,-5.805c-0.143,-0.191 -0.367,-0.303 -0.605,-0.302l-7.9,0.034c-0.238,0.001 -0.462,0.115 -0.602,0.308l-4.275,5.844c-0.167,0.228 -0.191,0.531 -0.062,0.783s0.388,0.41 0.671,0.409l16.5,-0.072c0.283,-0.001 0.541,-0.162 0.667,-0.415c0.127,-0.253 0.1,-0.557 -0.069,-0.784z"/>
   <path id="svg_66" fill="#43a047" d="m56.70478,42.59375l-4.338,-5.691c-0.142,-0.186 -0.363,-0.295 -0.597,-0.295l-5.824,0c-0.234,0 -0.455,0.109 -0.597,0.295l-4.338,5.691c-0.173,0.227 -0.202,0.531 -0.076,0.787c0.127,0.256 0.387,0.417 0.672,0.417l14.5,0c0.285,0 0.545,-0.161 0.672,-0.417c0.128,-0.256 0.098,-0.561 -0.074,-0.787z"/>
   <path id="svg_67" fill="#66bb6a" d="m54.72178,36.61675l-5.25,-7.5c-0.28,-0.4 -0.948,-0.4 -1.229,0l-5.25,7.5c-0.161,0.229 -0.18,0.529 -0.051,0.777c0.13,0.249 0.386,0.404 0.666,0.404l10.5,0c0.28,0 0.536,-0.155 0.665,-0.403c0.129,-0.249 0.11,-0.548 -0.051,-0.778z"/>
   <path id="svg_68" fill="#546d79" d="m48.85778,49.75375l-2.25,0.01l0,1.734c0,0.689 0.56,1.25 1.25,1.25l1,0l0,-2.994z"/>
   <path id="svg_69" fill="#317c34" d="m48.85778,43.79775l-5.331,0l-3.511,4.8c-0.167,0.228 -0.191,0.531 -0.062,0.783c0.128,0.251 0.387,0.409 0.669,0.409l0.003,0l5.984,-0.026l2.25,-0.01l0,-5.956l-0.002,0z"/>
   <path id="svg_70" fill="#3a8b3e" d="m48.85778,37.79775l-4.191,0l-3.656,4.796c-0.173,0.227 -0.202,0.531 -0.076,0.787c0.127,0.256 0.387,0.417 0.672,0.417l1.919,0l5.332,0l0,-6z"/>
   <path id="svg_71" fill="#59a35c" d="m48.85778,28.81675c-0.237,0 -0.474,0.1 -0.614,0.3l-5.25,7.5c-0.161,0.229 -0.18,0.529 -0.051,0.777c0.129,0.249 0.385,0.404 0.665,0.404l1.059,0l4.191,0l0,-8.981z"/>
  </g>
  <g id="svg_81">
   <path id="svg_73" fill="#607d8b" d="m30.70909,55.56656l-3,0c-0.414,0 -0.75,0.336 -0.75,0.75l0,2.5c0,0.689 0.56,1.25 1.25,1.25l2,0c0.689,0 1.25,-0.56 1.25,-1.25l0,-2.5c0,-0.414 -0.336,-0.75 -0.75,-0.75z"/>
   <path id="svg_74" fill="#388e3c" d="m38.07309,55.83756l-4.325,-5.805c-0.143,-0.191 -0.367,-0.303 -0.605,-0.302l-7.9,0.034c-0.238,0.001 -0.462,0.115 -0.602,0.308l-4.275,5.844c-0.167,0.228 -0.191,0.531 -0.062,0.783s0.388,0.41 0.671,0.409l16.5,-0.072c0.283,-0.001 0.541,-0.162 0.667,-0.415c0.127,-0.253 0.1,-0.557 -0.069,-0.784z"/>
   <path id="svg_75" fill="#43a047" d="m37.05609,49.91256l-4.338,-5.691c-0.142,-0.186 -0.363,-0.295 -0.597,-0.295l-5.824,0c-0.234,0 -0.455,0.109 -0.597,0.295l-4.338,5.691c-0.173,0.227 -0.202,0.531 -0.076,0.787c0.127,0.256 0.387,0.417 0.672,0.417l14.5,0c0.285,0 0.545,-0.161 0.672,-0.417c0.128,-0.256 0.098,-0.561 -0.074,-0.787z"/>
   <path id="svg_76" fill="#66bb6a" d="m35.07309,43.93556l-5.25,-7.5c-0.28,-0.4 -0.948,-0.4 -1.229,0l-5.25,7.5c-0.161,0.229 -0.18,0.529 -0.051,0.777c0.13,0.249 0.386,0.404 0.666,0.404l10.5,0c0.28,0 0.536,-0.155 0.665,-0.403c0.129,-0.249 0.11,-0.548 -0.051,-0.778z"/>
   <path id="svg_77" fill="#546d79" d="m29.20909,57.07256l-2.25,0.01l0,1.734c0,0.689 0.56,1.25 1.25,1.25l1,0l0,-2.994z"/>
   <path id="svg_78" fill="#317c34" d="m29.20909,51.11656l-5.331,0l-3.511,4.8c-0.167,0.228 -0.191,0.531 -0.062,0.783c0.128,0.251 0.387,0.409 0.669,0.409l0.003,0l5.984,-0.026l2.25,-0.01l0,-5.956l-0.002,0z"/>
   <path id="svg_79" fill="#3a8b3e" d="m29.20909,45.11656l-4.191,0l-3.656,4.796c-0.173,0.227 -0.202,0.531 -0.076,0.787c0.127,0.256 0.387,0.417 0.672,0.417l1.919,0l5.332,0l0,-6z"/>
   <path id="svg_80" fill="#59a35c" d="m29.20909,36.13556c-0.237,0 -0.474,0.1 -0.614,0.3l-5.25,7.5c-0.161,0.229 -0.18,0.529 -0.051,0.777c0.129,0.249 0.385,0.404 0.665,0.404l1.059,0l4.191,0l0,-8.981z"/>
  </g>
 </g>
</svg>