<svg width="70" height="70" xmlns="http://www.w3.org/2000/svg">

 <g>
  <title>background</title>
  <rect fill="none" id="canvas_background" height="72" width="72" y="-1" x="-1"/>
 </g>
 <g>
  <title>Layer 1</title>
  <g id="svg_13">
   <path id="svg_1" fill="#ef5350" d="m8.36903,2.5429c-2.799,0 -5.077,2.278 -5.077,5.077c0,1.209 0.983,2.192 2.192,2.192s2.192,-0.983 2.192,-2.192c0,-0.382 0.311,-0.692 0.692,-0.692s0.692,0.311 0.692,0.692l0,16.346c0,1.208 0.983,2.192 2.192,2.192s2.192,-0.983 2.192,-2.192l0,-16.346c0.002,-2.799 -2.276,-5.077 -5.075,-5.077z"/>
   <path id="svg_2" fill="#ffb300" d="m17.19103,17.8219l-1.414,-2.442c-0.208,-0.359 -0.666,-0.481 -1.024,-0.273c-0.186,0.107 -0.305,0.283 -0.351,0.476l-2.143,-0.51l-0.357,-0.616c-0.208,-0.358 -0.667,-0.479 -1.025,-0.272c-0.358,0.208 -0.48,0.667 -0.272,1.025l2.789,4.808c0.135,0.233 0.384,0.374 0.649,0.374l0.099,-0.006c0.3,-0.04 0.547,-0.257 0.626,-0.549l0.334,-1.247l1.247,0.334c0.294,0.078 0.605,-0.027 0.79,-0.268c0.183,-0.244 0.204,-0.572 0.052,-0.834z"/>
   <path id="svg_3" fill="#ffb300" d="m11.63003,14.1829c-0.359,-0.207 -0.817,-0.086 -1.025,0.272l-0.357,0.616l-2.143,0.51c-0.046,-0.193 -0.165,-0.369 -0.351,-0.476c-0.356,-0.208 -0.817,-0.085 -1.024,0.273l-1.414,2.442c-0.152,0.263 -0.131,0.591 0.054,0.832s0.496,0.345 0.79,0.268l1.247,-0.334l0.334,1.247c0.079,0.292 0.326,0.509 0.626,0.549l0.099,0.006c0.265,0 0.514,-0.141 0.649,-0.374l2.789,-4.808c0.206,-0.356 0.084,-0.815 -0.274,-1.023z"/>
   <path id="svg_4" fill="#d04846" d="m11.25303,16.3269l-2.14,3.689c-0.016,0.028 -0.034,0.054 -0.053,0.079l0,3.872c0,1.208 0.983,2.192 2.192,2.192l0.039,0l0,-9.765l-0.038,-0.067zm-2.192,-1.885l0,0.912l0.771,-0.184c-0.114,-0.073 -0.223,-0.155 -0.326,-0.247c-0.17,-0.14 -0.319,-0.302 -0.445,-0.481zm-0.692,-11.899c-2.799,0 -5.077,2.278 -5.077,5.077c0,1.209 0.983,2.192 2.192,2.192s2.192,-0.983 2.192,-2.192c0,-0.382 0.311,-0.692 0.692,-0.692s0.692,0.311 0.692,0.692l0,3.763c0.13,-0.185 0.285,-0.353 0.462,-0.5c0.453,-0.413 1.084,-0.625 1.722,-0.625l0.047,0l0,-6.787c-0.826,-0.584 -1.835,-0.928 -2.922,-0.928z"/>
   <path id="svg_5" fill="#de9c00" d="m11.29203,16.2609l-0.039,0.066l0.039,0.066l0,-0.132z"/>
   <path id="svg_6" fill="#de9c00" d="m7.38003,15.0049c-0.259,0 -0.511,0.134 -0.65,0.375l-1.414,2.442c-0.152,0.263 -0.131,0.591 0.054,0.832c0.144,0.188 0.366,0.293 0.596,0.293c0.064,0 0.129,-0.008 0.193,-0.025l1.247,-0.334l0.334,1.247c0.079,0.292 0.326,0.509 0.626,0.549l0.099,0.006c0.234,0 0.454,-0.109 0.596,-0.295c0.019,-0.025 0.037,-0.051 0.053,-0.079l2.14,-3.689l0.038,-0.066l0,-0.68c-0.013,0 -0.027,0 -0.04,0c-0.516,0 -0.999,-0.141 -1.42,-0.411l-0.771,0.184l-0.957,0.228c-0.046,-0.193 -0.165,-0.369 -0.351,-0.476c-0.117,-0.069 -0.246,-0.101 -0.373,-0.101z"/>
   <path id="svg_7" fill="#ffd54f" d="m14.79203,9.2709c-0.599,0 -1.183,0.223 -1.645,0.626l-1.14,1c-0.165,0.145 -0.258,0.355 -0.255,0.575c0.003,0.219 0.103,0.427 0.271,0.567c0.25,0.207 0.398,0.533 0.398,0.872s-0.149,0.666 -0.399,0.873c-0.169,0.14 -0.268,0.347 -0.271,0.567s0.09,0.429 0.255,0.574l1.104,0.966l0.142,0.113c0.435,0.346 0.98,0.537 1.538,0.537c0.199,0 0.37,-0.021 0.477,-0.053c1.174,-0.217 2.025,-1.246 2.025,-2.447l0,-2.27c0,-1.379 -1.122,-2.5 -2.5,-2.5z"/>
   <path id="svg_8" fill="#ffd54f" d="m10.08203,12.9109c0,-0.339 0.149,-0.666 0.398,-0.872c0.168,-0.14 0.268,-0.346 0.271,-0.565s-0.089,-0.429 -0.253,-0.574l-1.133,-1.003c-0.46,-0.404 -1.048,-0.626 -1.653,-0.626c-1.378,0 -2.5,1.122 -2.5,2.5l0,2.271c0,1.199 0.855,2.229 1.975,2.434c0.164,0.044 0.336,0.066 0.525,0.066c0.573,0 1.108,-0.186 1.549,-0.537l0.108,-0.082l1.13,-1c0.164,-0.145 0.256,-0.354 0.253,-0.573s-0.103,-0.426 -0.271,-0.565c-0.25,-0.208 -0.399,-0.535 -0.399,-0.874z"/>
   <path id="svg_9" fill="#deb945" d="m17.29203,12.9199l-4.87,0c-0.003,0.336 -0.151,0.659 -0.399,0.864c-0.169,0.14 -0.268,0.347 -0.271,0.567s0.09,0.429 0.255,0.574l1.104,0.966l0.142,0.113c0.435,0.346 0.98,0.537 1.538,0.537c0.199,0 0.37,-0.021 0.477,-0.053c1.173,-0.217 2.024,-1.246 2.024,-2.447l0,-1.121z"/>
   <path id="svg_10" fill="#deb945" d="m10.08203,12.9199l-4.87,0l0,1.121c0,1.199 0.855,2.229 1.975,2.434c0.164,0.044 0.336,0.066 0.525,0.066c0.573,0 1.108,-0.186 1.549,-0.537l0.108,-0.082l1.13,-1c0.164,-0.145 0.256,-0.354 0.253,-0.573s-0.103,-0.426 -0.271,-0.565c-0.248,-0.205 -0.396,-0.528 -0.399,-0.864z"/>
   <path id="svg_11" fill="#ffb300" d="m13.00703,10.9059c-0.958,-0.871 -2.578,-0.848 -3.483,-0.023c-0.599,0.496 -0.942,1.235 -0.942,2.028c0,0.792 0.343,1.531 0.924,2.013c0.488,0.43 1.091,0.658 1.746,0.658s1.258,-0.228 1.729,-0.643c0.598,-0.496 0.941,-1.235 0.941,-2.027c0,-0.794 -0.343,-1.533 -0.915,-2.006z"/>
   <path id="svg_12" fill="#de9c00" d="m11.24503,10.2589c-0.638,0 -1.269,0.212 -1.722,0.625c-0.177,0.147 -0.332,0.315 -0.462,0.5c-0.309,0.438 -0.479,0.969 -0.479,1.527c0,0.561 0.172,1.096 0.479,1.531c0.126,0.179 0.275,0.341 0.445,0.482c0.104,0.091 0.213,0.174 0.326,0.247c0.421,0.27 0.904,0.411 1.42,0.411l0.04,0l0,-5.323c-0.016,0 -0.031,0 -0.047,0z"/>
  </g>
  <g id="svg_39">
   <path id="svg_27" fill="#ef5350" d="m59.75529,18.97209c-2.799,0 -5.077,2.278 -5.077,5.077c0,1.209 0.983,2.192 2.192,2.192s2.192,-0.983 2.192,-2.192c0,-0.382 0.311,-0.692 0.692,-0.692s0.692,0.311 0.692,0.692l0,16.346c0,1.208 0.983,2.192 2.192,2.192s2.192,-0.983 2.192,-2.192l0,-16.346c0.002,-2.799 -2.276,-5.077 -5.075,-5.077z"/>
   <path id="svg_28" fill="#ffb300" d="m68.57729,34.25109l-1.414,-2.442c-0.208,-0.359 -0.666,-0.481 -1.024,-0.273c-0.186,0.107 -0.305,0.283 -0.351,0.476l-2.143,-0.51l-0.357,-0.616c-0.208,-0.358 -0.667,-0.479 -1.025,-0.272c-0.358,0.208 -0.48,0.667 -0.272,1.025l2.789,4.808c0.135,0.233 0.384,0.374 0.649,0.374l0.099,-0.006c0.3,-0.04 0.547,-0.257 0.626,-0.549l0.334,-1.247l1.247,0.334c0.294,0.078 0.605,-0.027 0.79,-0.268c0.183,-0.244 0.204,-0.572 0.052,-0.834z"/>
   <path id="svg_29" fill="#ffb300" d="m63.01629,30.61209c-0.359,-0.207 -0.817,-0.086 -1.025,0.272l-0.357,0.616l-2.143,0.51c-0.046,-0.193 -0.165,-0.369 -0.351,-0.476c-0.356,-0.208 -0.817,-0.085 -1.024,0.273l-1.414,2.442c-0.152,0.263 -0.131,0.591 0.054,0.832s0.496,0.345 0.79,0.268l1.247,-0.334l0.334,1.247c0.079,0.292 0.326,0.509 0.626,0.549l0.099,0.006c0.265,0 0.514,-0.141 0.649,-0.374l2.789,-4.808c0.206,-0.356 0.084,-0.815 -0.274,-1.023z"/>
   <path id="svg_30" fill="#d04846" d="m62.63929,32.75609l-2.14,3.689c-0.016,0.028 -0.034,0.054 -0.053,0.079l0,3.872c0,1.208 0.983,2.192 2.192,2.192l0.039,0l0,-9.765l-0.038,-0.067zm-2.192,-1.885l0,0.912l0.771,-0.184c-0.114,-0.073 -0.223,-0.155 -0.326,-0.247c-0.17,-0.14 -0.319,-0.302 -0.445,-0.481zm-0.692,-11.899c-2.799,0 -5.077,2.278 -5.077,5.077c0,1.209 0.983,2.192 2.192,2.192s2.192,-0.983 2.192,-2.192c0,-0.382 0.311,-0.692 0.692,-0.692s0.692,0.311 0.692,0.692l0,3.763c0.13,-0.185 0.285,-0.353 0.462,-0.5c0.453,-0.413 1.084,-0.625 1.722,-0.625l0.047,0l0,-6.787c-0.826,-0.584 -1.835,-0.928 -2.922,-0.928z"/>
   <path id="svg_31" fill="#de9c00" d="m62.67829,32.69009l-0.039,0.066l0.039,0.066l0,-0.132z"/>
   <path id="svg_32" fill="#de9c00" d="m58.76629,31.43409c-0.259,0 -0.511,0.134 -0.65,0.375l-1.414,2.442c-0.152,0.263 -0.131,0.591 0.054,0.832c0.144,0.188 0.366,0.293 0.596,0.293c0.064,0 0.129,-0.008 0.193,-0.025l1.247,-0.334l0.334,1.247c0.079,0.292 0.326,0.509 0.626,0.549l0.099,0.006c0.234,0 0.454,-0.109 0.596,-0.295c0.019,-0.025 0.037,-0.051 0.053,-0.079l2.14,-3.689l0.038,-0.066l0,-0.68c-0.013,0 -0.027,0 -0.04,0c-0.516,0 -0.999,-0.141 -1.42,-0.411l-0.771,0.184l-0.957,0.228c-0.046,-0.193 -0.165,-0.369 -0.351,-0.476c-0.117,-0.069 -0.246,-0.101 -0.373,-0.101z"/>
   <path id="svg_33" fill="#ffd54f" d="m66.17829,25.70009c-0.599,0 -1.183,0.223 -1.645,0.626l-1.14,1c-0.165,0.145 -0.258,0.355 -0.255,0.575c0.003,0.219 0.103,0.427 0.271,0.567c0.25,0.207 0.398,0.533 0.398,0.872s-0.149,0.666 -0.399,0.873c-0.169,0.14 -0.268,0.347 -0.271,0.567s0.09,0.429 0.255,0.574l1.104,0.966l0.142,0.113c0.435,0.346 0.98,0.537 1.538,0.537c0.199,0 0.37,-0.021 0.477,-0.053c1.174,-0.217 2.025,-1.246 2.025,-2.447l0,-2.27c0,-1.379 -1.122,-2.5 -2.5,-2.5z"/>
   <path id="svg_34" fill="#ffd54f" d="m61.46829,29.34009c0,-0.339 0.149,-0.666 0.398,-0.872c0.168,-0.14 0.268,-0.346 0.271,-0.565s-0.089,-0.429 -0.253,-0.574l-1.133,-1.003c-0.46,-0.404 -1.048,-0.626 -1.653,-0.626c-1.378,0 -2.5,1.122 -2.5,2.5l0,2.271c0,1.199 0.855,2.229 1.975,2.434c0.164,0.044 0.336,0.066 0.525,0.066c0.573,0 1.108,-0.186 1.549,-0.537l0.108,-0.082l1.13,-1c0.164,-0.145 0.256,-0.354 0.253,-0.573s-0.103,-0.426 -0.271,-0.565c-0.25,-0.208 -0.399,-0.535 -0.399,-0.874z"/>
   <path id="svg_35" fill="#deb945" d="m68.67829,29.34909l-4.87,0c-0.003,0.336 -0.151,0.659 -0.399,0.864c-0.169,0.14 -0.268,0.347 -0.271,0.567s0.09,0.429 0.255,0.574l1.104,0.966l0.142,0.113c0.435,0.346 0.98,0.537 1.538,0.537c0.199,0 0.37,-0.021 0.477,-0.053c1.173,-0.217 2.024,-1.246 2.024,-2.447l0,-1.121z"/>
   <path id="svg_36" fill="#deb945" d="m61.46829,29.34909l-4.87,0l0,1.121c0,1.199 0.855,2.229 1.975,2.434c0.164,0.044 0.336,0.066 0.525,0.066c0.573,0 1.108,-0.186 1.549,-0.537l0.108,-0.082l1.13,-1c0.164,-0.145 0.256,-0.354 0.253,-0.573s-0.103,-0.426 -0.271,-0.565c-0.248,-0.205 -0.396,-0.528 -0.399,-0.864z"/>
   <path id="svg_37" fill="#ffb300" d="m64.39329,27.33509c-0.958,-0.871 -2.578,-0.848 -3.483,-0.023c-0.599,0.496 -0.942,1.235 -0.942,2.028c0,0.792 0.343,1.531 0.924,2.013c0.488,0.43 1.091,0.658 1.746,0.658s1.258,-0.228 1.729,-0.643c0.598,-0.496 0.941,-1.235 0.941,-2.027c0,-0.794 -0.343,-1.533 -0.915,-2.006z"/>
   <path id="svg_38" fill="#de9c00" d="m62.63129,26.68809c-0.638,0 -1.269,0.212 -1.722,0.625c-0.177,0.147 -0.332,0.315 -0.462,0.5c-0.309,0.438 -0.479,0.969 -0.479,1.527c0,0.561 0.172,1.096 0.479,1.531c0.126,0.179 0.275,0.341 0.445,0.482c0.104,0.091 0.213,0.174 0.326,0.247c0.421,0.27 0.904,0.411 1.42,0.411l0.04,0l0,-5.323c-0.016,0 -0.031,0 -0.047,0z"/>
  </g>
  <g id="svg_52">
   <path id="svg_40" fill="#ef5350" d="m8.3417,35.97111c-2.799,0 -5.077,2.278 -5.077,5.077c0,1.209 0.983,2.192 2.192,2.192s2.192,-0.983 2.192,-2.192c0,-0.382 0.311,-0.692 0.692,-0.692s0.692,0.311 0.692,0.692l0,16.346c0,1.208 0.983,2.192 2.192,2.192s2.192,-0.983 2.192,-2.192l0,-16.346c0.002,-2.799 -2.276,-5.077 -5.075,-5.077z"/>
   <path id="svg_41" fill="#ffb300" d="m17.1637,51.25011l-1.414,-2.442c-0.208,-0.359 -0.666,-0.481 -1.024,-0.273c-0.186,0.107 -0.305,0.283 -0.351,0.476l-2.143,-0.51l-0.357,-0.616c-0.208,-0.358 -0.667,-0.479 -1.025,-0.272c-0.358,0.208 -0.48,0.667 -0.272,1.025l2.789,4.808c0.135,0.233 0.384,0.374 0.649,0.374l0.099,-0.006c0.3,-0.04 0.547,-0.257 0.626,-0.549l0.334,-1.247l1.247,0.334c0.294,0.078 0.605,-0.027 0.79,-0.268c0.183,-0.244 0.204,-0.572 0.052,-0.834z"/>
   <path id="svg_42" fill="#ffb300" d="m11.6027,47.61111c-0.359,-0.207 -0.817,-0.086 -1.025,0.272l-0.357,0.616l-2.143,0.51c-0.046,-0.193 -0.165,-0.369 -0.351,-0.476c-0.356,-0.208 -0.817,-0.085 -1.024,0.273l-1.414,2.442c-0.152,0.263 -0.131,0.591 0.054,0.832s0.496,0.345 0.79,0.268l1.247,-0.334l0.334,1.247c0.079,0.292 0.326,0.509 0.626,0.549l0.099,0.006c0.265,0 0.514,-0.141 0.649,-0.374l2.789,-4.808c0.206,-0.356 0.084,-0.815 -0.274,-1.023z"/>
   <path id="svg_43" fill="#d04846" d="m11.2257,49.75511l-2.14,3.689c-0.016,0.028 -0.034,0.054 -0.053,0.079l0,3.872c0,1.208 0.983,2.192 2.192,2.192l0.039,0l0,-9.765l-0.038,-0.067zm-2.192,-1.885l0,0.912l0.771,-0.184c-0.114,-0.073 -0.223,-0.155 -0.326,-0.247c-0.17,-0.14 -0.319,-0.302 -0.445,-0.481zm-0.692,-11.899c-2.799,0 -5.077,2.278 -5.077,5.077c0,1.209 0.983,2.192 2.192,2.192s2.192,-0.983 2.192,-2.192c0,-0.382 0.311,-0.692 0.692,-0.692s0.692,0.311 0.692,0.692l0,3.763c0.13,-0.185 0.285,-0.353 0.462,-0.5c0.453,-0.413 1.084,-0.625 1.722,-0.625l0.047,0l0,-6.787c-0.826,-0.584 -1.835,-0.928 -2.922,-0.928z"/>
   <path id="svg_44" fill="#de9c00" d="m11.2647,49.68911l-0.039,0.066l0.039,0.066l0,-0.132z"/>
   <path id="svg_45" fill="#de9c00" d="m7.3527,48.43311c-0.259,0 -0.511,0.134 -0.65,0.375l-1.414,2.442c-0.152,0.263 -0.131,0.591 0.054,0.832c0.144,0.188 0.366,0.293 0.596,0.293c0.064,0 0.129,-0.008 0.193,-0.025l1.247,-0.334l0.334,1.247c0.079,0.292 0.326,0.509 0.626,0.549l0.099,0.006c0.234,0 0.454,-0.109 0.596,-0.295c0.019,-0.025 0.037,-0.051 0.053,-0.079l2.14,-3.689l0.038,-0.066l0,-0.68c-0.013,0 -0.027,0 -0.04,0c-0.516,0 -0.999,-0.141 -1.42,-0.411l-0.771,0.184l-0.957,0.228c-0.046,-0.193 -0.165,-0.369 -0.351,-0.476c-0.117,-0.069 -0.246,-0.101 -0.373,-0.101z"/>
   <path id="svg_46" fill="#ffd54f" d="m14.7647,42.69911c-0.599,0 -1.183,0.223 -1.645,0.626l-1.14,1c-0.165,0.145 -0.258,0.355 -0.255,0.575c0.003,0.219 0.103,0.427 0.271,0.567c0.25,0.207 0.398,0.533 0.398,0.872s-0.149,0.666 -0.399,0.873c-0.169,0.14 -0.268,0.347 -0.271,0.567s0.09,0.429 0.255,0.574l1.104,0.966l0.142,0.113c0.435,0.346 0.98,0.537 1.538,0.537c0.199,0 0.37,-0.021 0.477,-0.053c1.174,-0.217 2.025,-1.246 2.025,-2.447l0,-2.27c0,-1.379 -1.122,-2.5 -2.5,-2.5z"/>
   <path id="svg_47" fill="#ffd54f" d="m10.0547,46.33911c0,-0.339 0.149,-0.666 0.398,-0.872c0.168,-0.14 0.268,-0.346 0.271,-0.565s-0.089,-0.429 -0.253,-0.574l-1.133,-1.003c-0.46,-0.404 -1.048,-0.626 -1.653,-0.626c-1.378,0 -2.5,1.122 -2.5,2.5l0,2.271c0,1.199 0.855,2.229 1.975,2.434c0.164,0.044 0.336,0.066 0.525,0.066c0.573,0 1.108,-0.186 1.549,-0.537l0.108,-0.082l1.13,-1c0.164,-0.145 0.256,-0.354 0.253,-0.573s-0.103,-0.426 -0.271,-0.565c-0.25,-0.208 -0.399,-0.535 -0.399,-0.874z"/>
   <path id="svg_48" fill="#deb945" d="m17.2647,46.34811l-4.87,0c-0.003,0.336 -0.151,0.659 -0.399,0.864c-0.169,0.14 -0.268,0.347 -0.271,0.567s0.09,0.429 0.255,0.574l1.104,0.966l0.142,0.113c0.435,0.346 0.98,0.537 1.538,0.537c0.199,0 0.37,-0.021 0.477,-0.053c1.173,-0.217 2.024,-1.246 2.024,-2.447l0,-1.121z"/>
   <path id="svg_49" fill="#deb945" d="m10.0547,46.34811l-4.87,0l0,1.121c0,1.199 0.855,2.229 1.975,2.434c0.164,0.044 0.336,0.066 0.525,0.066c0.573,0 1.108,-0.186 1.549,-0.537l0.108,-0.082l1.13,-1c0.164,-0.145 0.256,-0.354 0.253,-0.573s-0.103,-0.426 -0.271,-0.565c-0.248,-0.205 -0.396,-0.528 -0.399,-0.864z"/>
   <path id="svg_50" fill="#ffb300" d="m12.9797,44.33411c-0.958,-0.871 -2.578,-0.848 -3.483,-0.023c-0.599,0.496 -0.942,1.235 -0.942,2.028c0,0.792 0.343,1.531 0.924,2.013c0.488,0.43 1.091,0.658 1.746,0.658s1.258,-0.228 1.729,-0.643c0.598,-0.496 0.941,-1.235 0.941,-2.027c0,-0.794 -0.343,-1.533 -0.915,-2.006z"/>
   <path id="svg_51" fill="#de9c00" d="m11.2177,43.68711c-0.638,0 -1.269,0.212 -1.722,0.625c-0.177,0.147 -0.332,0.315 -0.462,0.5c-0.309,0.438 -0.479,0.969 -0.479,1.527c0,0.561 0.172,1.096 0.479,1.531c0.126,0.179 0.275,0.341 0.445,0.482c0.104,0.091 0.213,0.174 0.326,0.247c0.421,0.27 0.904,0.411 1.42,0.411l0.04,0l0,-5.323c-0.016,0 -0.031,0 -0.047,0z"/>
  </g>
  <g id="svg_104">
   <path id="svg_92" fill="#ef5350" d="m27.44661,8.41292c-2.799,0 -5.077,2.278 -5.077,5.077c0,1.209 0.983,2.192 2.192,2.192s2.192,-0.983 2.192,-2.192c0,-0.382 0.311,-0.692 0.692,-0.692s0.692,0.311 0.692,0.692l0,16.346c0,1.208 0.983,2.192 2.192,2.192s2.192,-0.983 2.192,-2.192l0,-16.346c0.002,-2.799 -2.276,-5.077 -5.075,-5.077z"/>
   <path id="svg_93" fill="#ffb300" d="m36.26861,23.69192l-1.414,-2.442c-0.208,-0.359 -0.666,-0.481 -1.024,-0.273c-0.186,0.107 -0.305,0.283 -0.351,0.476l-2.143,-0.51l-0.357,-0.616c-0.208,-0.358 -0.667,-0.479 -1.025,-0.272c-0.358,0.208 -0.48,0.667 -0.272,1.025l2.789,4.808c0.135,0.233 0.384,0.374 0.649,0.374l0.099,-0.006c0.3,-0.04 0.547,-0.257 0.626,-0.549l0.334,-1.247l1.247,0.334c0.294,0.078 0.605,-0.027 0.79,-0.268c0.183,-0.244 0.204,-0.572 0.052,-0.834z"/>
   <path id="svg_94" fill="#ffb300" d="m30.70761,20.05292c-0.359,-0.207 -0.817,-0.086 -1.025,0.272l-0.357,0.616l-2.143,0.51c-0.046,-0.193 -0.165,-0.369 -0.351,-0.476c-0.356,-0.208 -0.817,-0.085 -1.024,0.273l-1.414,2.442c-0.152,0.263 -0.131,0.591 0.054,0.832s0.496,0.345 0.79,0.268l1.247,-0.334l0.334,1.247c0.079,0.292 0.326,0.509 0.626,0.549l0.099,0.006c0.265,0 0.514,-0.141 0.649,-0.374l2.789,-4.808c0.206,-0.356 0.084,-0.815 -0.274,-1.023z"/>
   <path id="svg_95" fill="#d04846" d="m30.33061,22.19692l-2.14,3.689c-0.016,0.028 -0.034,0.054 -0.053,0.079l0,3.872c0,1.208 0.983,2.192 2.192,2.192l0.039,0l0,-9.765l-0.038,-0.067zm-2.192,-1.885l0,0.912l0.771,-0.184c-0.114,-0.073 -0.223,-0.155 -0.326,-0.247c-0.17,-0.14 -0.319,-0.302 -0.445,-0.481zm-0.692,-11.899c-2.799,0 -5.077,2.278 -5.077,5.077c0,1.209 0.983,2.192 2.192,2.192s2.192,-0.983 2.192,-2.192c0,-0.382 0.311,-0.692 0.692,-0.692s0.692,0.311 0.692,0.692l0,3.763c0.13,-0.185 0.285,-0.353 0.462,-0.5c0.453,-0.413 1.084,-0.625 1.722,-0.625l0.047,0l0,-6.787c-0.826,-0.584 -1.835,-0.928 -2.922,-0.928z"/>
   <path id="svg_96" fill="#de9c00" d="m30.36961,22.13092l-0.039,0.066l0.039,0.066l0,-0.132z"/>
   <path id="svg_97" fill="#de9c00" d="m26.45761,20.87492c-0.259,0 -0.511,0.134 -0.65,0.375l-1.414,2.442c-0.152,0.263 -0.131,0.591 0.054,0.832c0.144,0.188 0.366,0.293 0.596,0.293c0.064,0 0.129,-0.008 0.193,-0.025l1.247,-0.334l0.334,1.247c0.079,0.292 0.326,0.509 0.626,0.549l0.099,0.006c0.234,0 0.454,-0.109 0.596,-0.295c0.019,-0.025 0.037,-0.051 0.053,-0.079l2.14,-3.689l0.038,-0.066l0,-0.68c-0.013,0 -0.027,0 -0.04,0c-0.516,0 -0.999,-0.141 -1.42,-0.411l-0.771,0.184l-0.957,0.228c-0.046,-0.193 -0.165,-0.369 -0.351,-0.476c-0.117,-0.069 -0.246,-0.101 -0.373,-0.101z"/>
   <path id="svg_98" fill="#ffd54f" d="m33.86961,15.14092c-0.599,0 -1.183,0.223 -1.645,0.626l-1.14,1c-0.165,0.145 -0.258,0.355 -0.255,0.575c0.003,0.219 0.103,0.427 0.271,0.567c0.25,0.207 0.398,0.533 0.398,0.872s-0.149,0.666 -0.399,0.873c-0.169,0.14 -0.268,0.347 -0.271,0.567s0.09,0.429 0.255,0.574l1.104,0.966l0.142,0.113c0.435,0.346 0.98,0.537 1.538,0.537c0.199,0 0.37,-0.021 0.477,-0.053c1.174,-0.217 2.025,-1.246 2.025,-2.447l0,-2.27c0,-1.379 -1.122,-2.5 -2.5,-2.5z"/>
   <path id="svg_99" fill="#ffd54f" d="m29.15961,18.78092c0,-0.339 0.149,-0.666 0.398,-0.872c0.168,-0.14 0.268,-0.346 0.271,-0.565s-0.089,-0.429 -0.253,-0.574l-1.133,-1.003c-0.46,-0.404 -1.048,-0.626 -1.653,-0.626c-1.378,0 -2.5,1.122 -2.5,2.5l0,2.271c0,1.199 0.855,2.229 1.975,2.434c0.164,0.044 0.336,0.066 0.525,0.066c0.573,0 1.108,-0.186 1.549,-0.537l0.108,-0.082l1.13,-1c0.164,-0.145 0.256,-0.354 0.253,-0.573s-0.103,-0.426 -0.271,-0.565c-0.25,-0.208 -0.399,-0.535 -0.399,-0.874z"/>
   <path id="svg_100" fill="#deb945" d="m36.36961,18.78992l-4.87,0c-0.003,0.336 -0.151,0.659 -0.399,0.864c-0.169,0.14 -0.268,0.347 -0.271,0.567s0.09,0.429 0.255,0.574l1.104,0.966l0.142,0.113c0.435,0.346 0.98,0.537 1.538,0.537c0.199,0 0.37,-0.021 0.477,-0.053c1.173,-0.217 2.024,-1.246 2.024,-2.447l0,-1.121z"/>
   <path id="svg_101" fill="#deb945" d="m29.15961,18.78992l-4.87,0l0,1.121c0,1.199 0.855,2.229 1.975,2.434c0.164,0.044 0.336,0.066 0.525,0.066c0.573,0 1.108,-0.186 1.549,-0.537l0.108,-0.082l1.13,-1c0.164,-0.145 0.256,-0.354 0.253,-0.573s-0.103,-0.426 -0.271,-0.565c-0.248,-0.205 -0.396,-0.528 -0.399,-0.864z"/>
   <path id="svg_102" fill="#ffb300" d="m32.08461,16.77592c-0.958,-0.871 -2.578,-0.848 -3.483,-0.023c-0.599,0.496 -0.942,1.235 -0.942,2.028c0,0.792 0.343,1.531 0.924,2.013c0.488,0.43 1.091,0.658 1.746,0.658s1.258,-0.228 1.729,-0.643c0.598,-0.496 0.941,-1.235 0.941,-2.027c0,-0.794 -0.343,-1.533 -0.915,-2.006z"/>
   <path id="svg_103" fill="#de9c00" d="m30.32261,16.12892c-0.638,0 -1.269,0.212 -1.722,0.625c-0.177,0.147 -0.332,0.315 -0.462,0.5c-0.309,0.438 -0.479,0.969 -0.479,1.527c0,0.561 0.172,1.096 0.479,1.531c0.126,0.179 0.275,0.341 0.445,0.482c0.104,0.091 0.213,0.174 0.326,0.247c0.421,0.27 0.904,0.411 1.42,0.411l0.04,0l0,-5.323c-0.016,0 -0.031,0 -0.047,0z"/>
  </g>
  <g id="svg_117">
   <path id="svg_105" fill="#ef5350" d="m27.41928,41.84114c-2.799,0 -5.077,2.278 -5.077,5.077c0,1.209 0.983,2.192 2.192,2.192s2.192,-0.983 2.192,-2.192c0,-0.382 0.311,-0.692 0.692,-0.692s0.692,0.311 0.692,0.692l0,16.346c0,1.208 0.983,2.192 2.192,2.192s2.192,-0.983 2.192,-2.192l0,-16.346c0.002,-2.799 -2.276,-5.077 -5.075,-5.077z"/>
   <path id="svg_106" fill="#ffb300" d="m36.24128,57.12014l-1.414,-2.442c-0.208,-0.359 -0.666,-0.481 -1.024,-0.273c-0.186,0.107 -0.305,0.283 -0.351,0.476l-2.143,-0.51l-0.357,-0.616c-0.208,-0.358 -0.667,-0.479 -1.025,-0.272c-0.358,0.208 -0.48,0.667 -0.272,1.025l2.789,4.808c0.135,0.233 0.384,0.374 0.649,0.374l0.099,-0.006c0.3,-0.04 0.547,-0.257 0.626,-0.549l0.334,-1.247l1.247,0.334c0.294,0.078 0.605,-0.027 0.79,-0.268c0.183,-0.244 0.204,-0.572 0.052,-0.834z"/>
   <path id="svg_107" fill="#ffb300" d="m30.68028,53.48114c-0.359,-0.207 -0.817,-0.086 -1.025,0.272l-0.357,0.616l-2.143,0.51c-0.046,-0.193 -0.165,-0.369 -0.351,-0.476c-0.356,-0.208 -0.817,-0.085 -1.024,0.273l-1.414,2.442c-0.152,0.263 -0.131,0.591 0.054,0.832s0.496,0.345 0.79,0.268l1.247,-0.334l0.334,1.247c0.079,0.292 0.326,0.509 0.626,0.549l0.099,0.006c0.265,0 0.514,-0.141 0.649,-0.374l2.789,-4.808c0.206,-0.356 0.084,-0.815 -0.274,-1.023z"/>
   <path id="svg_108" fill="#d04846" d="m30.30328,55.62514l-2.14,3.689c-0.016,0.028 -0.034,0.054 -0.053,0.079l0,3.872c0,1.208 0.983,2.192 2.192,2.192l0.039,0l0,-9.765l-0.038,-0.067zm-2.192,-1.885l0,0.912l0.771,-0.184c-0.114,-0.073 -0.223,-0.155 -0.326,-0.247c-0.17,-0.14 -0.319,-0.302 -0.445,-0.481zm-0.692,-11.899c-2.799,0 -5.077,2.278 -5.077,5.077c0,1.209 0.983,2.192 2.192,2.192s2.192,-0.983 2.192,-2.192c0,-0.382 0.311,-0.692 0.692,-0.692s0.692,0.311 0.692,0.692l0,3.763c0.13,-0.185 0.285,-0.353 0.462,-0.5c0.453,-0.413 1.084,-0.625 1.722,-0.625l0.047,0l0,-6.787c-0.826,-0.584 -1.835,-0.928 -2.922,-0.928z"/>
   <path id="svg_109" fill="#de9c00" d="m30.34228,55.55914l-0.039,0.066l0.039,0.066l0,-0.132z"/>
   <path id="svg_110" fill="#de9c00" d="m26.43028,54.30314c-0.259,0 -0.511,0.134 -0.65,0.375l-1.414,2.442c-0.152,0.263 -0.131,0.591 0.054,0.832c0.144,0.188 0.366,0.293 0.596,0.293c0.064,0 0.129,-0.008 0.193,-0.025l1.247,-0.334l0.334,1.247c0.079,0.292 0.326,0.509 0.626,0.549l0.099,0.006c0.234,0 0.454,-0.109 0.596,-0.295c0.019,-0.025 0.037,-0.051 0.053,-0.079l2.14,-3.689l0.038,-0.066l0,-0.68c-0.013,0 -0.027,0 -0.04,0c-0.516,0 -0.999,-0.141 -1.42,-0.411l-0.771,0.184l-0.957,0.228c-0.046,-0.193 -0.165,-0.369 -0.351,-0.476c-0.117,-0.069 -0.246,-0.101 -0.373,-0.101z"/>
   <path id="svg_111" fill="#ffd54f" d="m33.84228,48.56914c-0.599,0 -1.183,0.223 -1.645,0.626l-1.14,1c-0.165,0.145 -0.258,0.355 -0.255,0.575c0.003,0.219 0.103,0.427 0.271,0.567c0.25,0.207 0.398,0.533 0.398,0.872s-0.149,0.666 -0.399,0.873c-0.169,0.14 -0.268,0.347 -0.271,0.567s0.09,0.429 0.255,0.574l1.104,0.966l0.142,0.113c0.435,0.346 0.98,0.537 1.538,0.537c0.199,0 0.37,-0.021 0.477,-0.053c1.174,-0.217 2.025,-1.246 2.025,-2.447l0,-2.27c0,-1.379 -1.122,-2.5 -2.5,-2.5z"/>
   <path id="svg_112" fill="#ffd54f" d="m29.13228,52.20914c0,-0.339 0.149,-0.666 0.398,-0.872c0.168,-0.14 0.268,-0.346 0.271,-0.565s-0.089,-0.429 -0.253,-0.574l-1.133,-1.003c-0.46,-0.404 -1.048,-0.626 -1.653,-0.626c-1.378,0 -2.5,1.122 -2.5,2.5l0,2.271c0,1.199 0.855,2.229 1.975,2.434c0.164,0.044 0.336,0.066 0.525,0.066c0.573,0 1.108,-0.186 1.549,-0.537l0.108,-0.082l1.13,-1c0.164,-0.145 0.256,-0.354 0.253,-0.573s-0.103,-0.426 -0.271,-0.565c-0.25,-0.208 -0.399,-0.535 -0.399,-0.874z"/>
   <path id="svg_113" fill="#deb945" d="m36.34228,52.21814l-4.87,0c-0.003,0.336 -0.151,0.659 -0.399,0.864c-0.169,0.14 -0.268,0.347 -0.271,0.567s0.09,0.429 0.255,0.574l1.104,0.966l0.142,0.113c0.435,0.346 0.98,0.537 1.538,0.537c0.199,0 0.37,-0.021 0.477,-0.053c1.173,-0.217 2.024,-1.246 2.024,-2.447l0,-1.121z"/>
   <path id="svg_114" fill="#deb945" d="m29.13228,52.21814l-4.87,0l0,1.121c0,1.199 0.855,2.229 1.975,2.434c0.164,0.044 0.336,0.066 0.525,0.066c0.573,0 1.108,-0.186 1.549,-0.537l0.108,-0.082l1.13,-1c0.164,-0.145 0.256,-0.354 0.253,-0.573s-0.103,-0.426 -0.271,-0.565c-0.248,-0.205 -0.396,-0.528 -0.399,-0.864z"/>
   <path id="svg_115" fill="#ffb300" d="m32.05728,50.20414c-0.958,-0.871 -2.578,-0.848 -3.483,-0.023c-0.599,0.496 -0.942,1.235 -0.942,2.028c0,0.792 0.343,1.531 0.924,2.013c0.488,0.43 1.091,0.658 1.746,0.658s1.258,-0.228 1.729,-0.643c0.598,-0.496 0.941,-1.235 0.941,-2.027c0,-0.794 -0.343,-1.533 -0.915,-2.006z"/>
   <path id="svg_116" fill="#de9c00" d="m30.29528,49.55714c-0.638,0 -1.269,0.212 -1.722,0.625c-0.177,0.147 -0.332,0.315 -0.462,0.5c-0.309,0.438 -0.479,0.969 -0.479,1.527c0,0.561 0.172,1.096 0.479,1.531c0.126,0.179 0.275,0.341 0.445,0.482c0.104,0.091 0.213,0.174 0.326,0.247c0.421,0.27 0.904,0.411 1.42,0.411l0.04,0l0,-5.323c-0.016,0 -0.031,0 -0.047,0z"/>
  </g>
  <g id="svg_130">
   <path id="svg_118" fill="#ef5350" d="m44.42775,1.5995c-2.799,0 -5.077,2.278 -5.077,5.077c0,1.209 0.983,2.192 2.192,2.192s2.192,-0.983 2.192,-2.192c0,-0.382 0.311,-0.692 0.692,-0.692s0.692,0.311 0.692,0.692l0,16.346c0,1.208 0.983,2.192 2.192,2.192s2.192,-0.983 2.192,-2.192l0,-16.346c0.002,-2.799 -2.276,-5.077 -5.075,-5.077z"/>
   <path id="svg_119" fill="#ffb300" d="m53.24975,16.8785l-1.414,-2.442c-0.208,-0.359 -0.666,-0.481 -1.024,-0.273c-0.186,0.107 -0.305,0.283 -0.351,0.476l-2.143,-0.51l-0.357,-0.616c-0.208,-0.358 -0.667,-0.479 -1.025,-0.272c-0.358,0.208 -0.48,0.667 -0.272,1.025l2.789,4.808c0.135,0.233 0.384,0.374 0.649,0.374l0.099,-0.006c0.3,-0.04 0.547,-0.257 0.626,-0.549l0.334,-1.247l1.247,0.334c0.294,0.078 0.605,-0.027 0.79,-0.268c0.183,-0.244 0.204,-0.572 0.052,-0.834z"/>
   <path id="svg_120" fill="#ffb300" d="m47.68875,13.2395c-0.359,-0.207 -0.817,-0.086 -1.025,0.272l-0.357,0.616l-2.143,0.51c-0.046,-0.193 -0.165,-0.369 -0.351,-0.476c-0.356,-0.208 -0.817,-0.085 -1.024,0.273l-1.414,2.442c-0.152,0.263 -0.131,0.591 0.054,0.832s0.496,0.345 0.79,0.268l1.247,-0.334l0.334,1.247c0.079,0.292 0.326,0.509 0.626,0.549l0.099,0.006c0.265,0 0.514,-0.141 0.649,-0.374l2.789,-4.808c0.206,-0.356 0.084,-0.815 -0.274,-1.023z"/>
   <path id="svg_121" fill="#d04846" d="m47.31175,15.3835l-2.14,3.689c-0.016,0.028 -0.034,0.054 -0.053,0.079l0,3.872c0,1.208 0.983,2.192 2.192,2.192l0.039,0l0,-9.765l-0.038,-0.067zm-2.192,-1.885l0,0.912l0.771,-0.184c-0.114,-0.073 -0.223,-0.155 -0.326,-0.247c-0.17,-0.14 -0.319,-0.302 -0.445,-0.481zm-0.692,-11.899c-2.799,0 -5.077,2.278 -5.077,5.077c0,1.209 0.983,2.192 2.192,2.192s2.192,-0.983 2.192,-2.192c0,-0.382 0.311,-0.692 0.692,-0.692s0.692,0.311 0.692,0.692l0,3.763c0.13,-0.185 0.285,-0.353 0.462,-0.5c0.453,-0.413 1.084,-0.625 1.722,-0.625l0.047,0l0,-6.787c-0.826,-0.584 -1.835,-0.928 -2.922,-0.928z"/>
   <path id="svg_122" fill="#de9c00" d="m47.35075,15.3175l-0.039,0.066l0.039,0.066l0,-0.132z"/>
   <path id="svg_123" fill="#de9c00" d="m43.43875,14.0615c-0.259,0 -0.511,0.134 -0.65,0.375l-1.414,2.442c-0.152,0.263 -0.131,0.591 0.054,0.832c0.144,0.188 0.366,0.293 0.596,0.293c0.064,0 0.129,-0.008 0.193,-0.025l1.247,-0.334l0.334,1.247c0.079,0.292 0.326,0.509 0.626,0.549l0.099,0.006c0.234,0 0.454,-0.109 0.596,-0.295c0.019,-0.025 0.037,-0.051 0.053,-0.079l2.14,-3.689l0.038,-0.066l0,-0.68c-0.013,0 -0.027,0 -0.04,0c-0.516,0 -0.999,-0.141 -1.42,-0.411l-0.771,0.184l-0.957,0.228c-0.046,-0.193 -0.165,-0.369 -0.351,-0.476c-0.117,-0.069 -0.246,-0.101 -0.373,-0.101z"/>
   <path id="svg_124" fill="#ffd54f" d="m50.85075,8.3275c-0.599,0 -1.183,0.223 -1.645,0.626l-1.14,1c-0.165,0.145 -0.258,0.355 -0.255,0.575c0.003,0.219 0.103,0.427 0.271,0.567c0.25,0.207 0.398,0.533 0.398,0.872s-0.149,0.666 -0.399,0.873c-0.169,0.14 -0.268,0.347 -0.271,0.567s0.09,0.429 0.255,0.574l1.104,0.966l0.142,0.113c0.435,0.346 0.98,0.537 1.538,0.537c0.199,0 0.37,-0.021 0.477,-0.053c1.174,-0.217 2.025,-1.246 2.025,-2.447l0,-2.27c0,-1.379 -1.122,-2.5 -2.5,-2.5z"/>
   <path id="svg_125" fill="#ffd54f" d="m46.14075,11.9675c0,-0.339 0.149,-0.666 0.398,-0.872c0.168,-0.14 0.268,-0.346 0.271,-0.565s-0.089,-0.429 -0.253,-0.574l-1.133,-1.003c-0.46,-0.404 -1.048,-0.626 -1.653,-0.626c-1.378,0 -2.5,1.122 -2.5,2.5l0,2.271c0,1.199 0.855,2.229 1.975,2.434c0.164,0.044 0.336,0.066 0.525,0.066c0.573,0 1.108,-0.186 1.549,-0.537l0.108,-0.082l1.13,-1c0.164,-0.145 0.256,-0.354 0.253,-0.573s-0.103,-0.426 -0.271,-0.565c-0.25,-0.208 -0.399,-0.535 -0.399,-0.874z"/>
   <path id="svg_126" fill="#deb945" d="m53.35075,11.9765l-4.87,0c-0.003,0.336 -0.151,0.659 -0.399,0.864c-0.169,0.14 -0.268,0.347 -0.271,0.567s0.09,0.429 0.255,0.574l1.104,0.966l0.142,0.113c0.435,0.346 0.98,0.537 1.538,0.537c0.199,0 0.37,-0.021 0.477,-0.053c1.173,-0.217 2.024,-1.246 2.024,-2.447l0,-1.121z"/>
   <path id="svg_127" fill="#deb945" d="m46.14075,11.9765l-4.87,0l0,1.121c0,1.199 0.855,2.229 1.975,2.434c0.164,0.044 0.336,0.066 0.525,0.066c0.573,0 1.108,-0.186 1.549,-0.537l0.108,-0.082l1.13,-1c0.164,-0.145 0.256,-0.354 0.253,-0.573s-0.103,-0.426 -0.271,-0.565c-0.248,-0.205 -0.396,-0.528 -0.399,-0.864z"/>
   <path id="svg_128" fill="#ffb300" d="m49.06575,9.9625c-0.958,-0.871 -2.578,-0.848 -3.483,-0.023c-0.599,0.496 -0.942,1.235 -0.942,2.028c0,0.792 0.343,1.531 0.924,2.013c0.488,0.43 1.091,0.658 1.746,0.658s1.258,-0.228 1.729,-0.643c0.598,-0.496 0.941,-1.235 0.941,-2.027c0,-0.794 -0.343,-1.533 -0.915,-2.006z"/>
   <path id="svg_129" fill="#de9c00" d="m47.30375,9.3155c-0.638,0 -1.269,0.212 -1.722,0.625c-0.177,0.147 -0.332,0.315 -0.462,0.5c-0.309,0.438 -0.479,0.969 -0.479,1.527c0,0.561 0.172,1.096 0.479,1.531c0.126,0.179 0.275,0.341 0.445,0.482c0.104,0.091 0.213,0.174 0.326,0.247c0.421,0.27 0.904,0.411 1.42,0.411l0.04,0l0,-5.323c-0.016,0 -0.031,0 -0.047,0z"/>
  </g>
  <g id="svg_143">
   <path id="svg_131" fill="#ef5350" d="m44.40042,35.02771c-2.799,0 -5.077,2.278 -5.077,5.077c0,1.209 0.983,2.192 2.192,2.192s2.192,-0.983 2.192,-2.192c0,-0.382 0.311,-0.692 0.692,-0.692s0.692,0.311 0.692,0.692l0,16.346c0,1.208 0.983,2.192 2.192,2.192s2.192,-0.983 2.192,-2.192l0,-16.346c0.002,-2.799 -2.276,-5.077 -5.075,-5.077z"/>
   <path id="svg_132" fill="#ffb300" d="m53.22242,50.30671l-1.414,-2.442c-0.208,-0.359 -0.666,-0.481 -1.024,-0.273c-0.186,0.107 -0.305,0.283 -0.351,0.476l-2.143,-0.51l-0.357,-0.616c-0.208,-0.358 -0.667,-0.479 -1.025,-0.272c-0.358,0.208 -0.48,0.667 -0.272,1.025l2.789,4.808c0.135,0.233 0.384,0.374 0.649,0.374l0.099,-0.006c0.3,-0.04 0.547,-0.257 0.626,-0.549l0.334,-1.247l1.247,0.334c0.294,0.078 0.605,-0.027 0.79,-0.268c0.183,-0.244 0.204,-0.572 0.052,-0.834z"/>
   <path id="svg_133" fill="#ffb300" d="m47.66142,46.66771c-0.359,-0.207 -0.817,-0.086 -1.025,0.272l-0.357,0.616l-2.143,0.51c-0.046,-0.193 -0.165,-0.369 -0.351,-0.476c-0.356,-0.208 -0.817,-0.085 -1.024,0.273l-1.414,2.442c-0.152,0.263 -0.131,0.591 0.054,0.832s0.496,0.345 0.79,0.268l1.247,-0.334l0.334,1.247c0.079,0.292 0.326,0.509 0.626,0.549l0.099,0.006c0.265,0 0.514,-0.141 0.649,-0.374l2.789,-4.808c0.206,-0.356 0.084,-0.815 -0.274,-1.023z"/>
   <path id="svg_134" fill="#d04846" d="m47.28442,48.81171l-2.14,3.689c-0.016,0.028 -0.034,0.054 -0.053,0.079l0,3.872c0,1.208 0.983,2.192 2.192,2.192l0.039,0l0,-9.765l-0.038,-0.067zm-2.192,-1.885l0,0.912l0.771,-0.184c-0.114,-0.073 -0.223,-0.155 -0.326,-0.247c-0.17,-0.14 -0.319,-0.302 -0.445,-0.481zm-0.692,-11.899c-2.799,0 -5.077,2.278 -5.077,5.077c0,1.209 0.983,2.192 2.192,2.192s2.192,-0.983 2.192,-2.192c0,-0.382 0.311,-0.692 0.692,-0.692s0.692,0.311 0.692,0.692l0,3.763c0.13,-0.185 0.285,-0.353 0.462,-0.5c0.453,-0.413 1.084,-0.625 1.722,-0.625l0.047,0l0,-6.787c-0.826,-0.584 -1.835,-0.928 -2.922,-0.928z"/>
   <path id="svg_135" fill="#de9c00" d="m47.32342,48.74571l-0.039,0.066l0.039,0.066l0,-0.132z"/>
   <path id="svg_136" fill="#de9c00" d="m43.41142,47.48971c-0.259,0 -0.511,0.134 -0.65,0.375l-1.414,2.442c-0.152,0.263 -0.131,0.591 0.054,0.832c0.144,0.188 0.366,0.293 0.596,0.293c0.064,0 0.129,-0.008 0.193,-0.025l1.247,-0.334l0.334,1.247c0.079,0.292 0.326,0.509 0.626,0.549l0.099,0.006c0.234,0 0.454,-0.109 0.596,-0.295c0.019,-0.025 0.037,-0.051 0.053,-0.079l2.14,-3.689l0.038,-0.066l0,-0.68c-0.013,0 -0.027,0 -0.04,0c-0.516,0 -0.999,-0.141 -1.42,-0.411l-0.771,0.184l-0.957,0.228c-0.046,-0.193 -0.165,-0.369 -0.351,-0.476c-0.117,-0.069 -0.246,-0.101 -0.373,-0.101z"/>
   <path id="svg_137" fill="#ffd54f" d="m50.82342,41.75571c-0.599,0 -1.183,0.223 -1.645,0.626l-1.14,1c-0.165,0.145 -0.258,0.355 -0.255,0.575c0.003,0.219 0.103,0.427 0.271,0.567c0.25,0.207 0.398,0.533 0.398,0.872s-0.149,0.666 -0.399,0.873c-0.169,0.14 -0.268,0.347 -0.271,0.567s0.09,0.429 0.255,0.574l1.104,0.966l0.142,0.113c0.435,0.346 0.98,0.537 1.538,0.537c0.199,0 0.37,-0.021 0.477,-0.053c1.174,-0.217 2.025,-1.246 2.025,-2.447l0,-2.27c0,-1.379 -1.122,-2.5 -2.5,-2.5z"/>
   <path id="svg_138" fill="#ffd54f" d="m46.11342,45.39571c0,-0.339 0.149,-0.666 0.398,-0.872c0.168,-0.14 0.268,-0.346 0.271,-0.565s-0.089,-0.429 -0.253,-0.574l-1.133,-1.003c-0.46,-0.404 -1.048,-0.626 -1.653,-0.626c-1.378,0 -2.5,1.122 -2.5,2.5l0,2.271c0,1.199 0.855,2.229 1.975,2.434c0.164,0.044 0.336,0.066 0.525,0.066c0.573,0 1.108,-0.186 1.549,-0.537l0.108,-0.082l1.13,-1c0.164,-0.145 0.256,-0.354 0.253,-0.573s-0.103,-0.426 -0.271,-0.565c-0.25,-0.208 -0.399,-0.535 -0.399,-0.874z"/>
   <path id="svg_139" fill="#deb945" d="m53.32342,45.40471l-4.87,0c-0.003,0.336 -0.151,0.659 -0.399,0.864c-0.169,0.14 -0.268,0.347 -0.271,0.567s0.09,0.429 0.255,0.574l1.104,0.966l0.142,0.113c0.435,0.346 0.98,0.537 1.538,0.537c0.199,0 0.37,-0.021 0.477,-0.053c1.173,-0.217 2.024,-1.246 2.024,-2.447l0,-1.121z"/>
   <path id="svg_140" fill="#deb945" d="m46.11342,45.40471l-4.87,0l0,1.121c0,1.199 0.855,2.229 1.975,2.434c0.164,0.044 0.336,0.066 0.525,0.066c0.573,0 1.108,-0.186 1.549,-0.537l0.108,-0.082l1.13,-1c0.164,-0.145 0.256,-0.354 0.253,-0.573s-0.103,-0.426 -0.271,-0.565c-0.248,-0.205 -0.396,-0.528 -0.399,-0.864z"/>
   <path id="svg_141" fill="#ffb300" d="m49.03842,43.39071c-0.958,-0.871 -2.578,-0.848 -3.483,-0.023c-0.599,0.496 -0.942,1.235 -0.942,2.028c0,0.792 0.343,1.531 0.924,2.013c0.488,0.43 1.091,0.658 1.746,0.658s1.258,-0.228 1.729,-0.643c0.598,-0.496 0.941,-1.235 0.941,-2.027c0,-0.794 -0.343,-1.533 -0.915,-2.006z"/>
   <path id="svg_142" fill="#de9c00" d="m47.27642,42.74371c-0.638,0 -1.269,0.212 -1.722,0.625c-0.177,0.147 -0.332,0.315 -0.462,0.5c-0.309,0.438 -0.479,0.969 -0.479,1.527c0,0.561 0.172,1.096 0.479,1.531c0.126,0.179 0.275,0.341 0.445,0.482c0.104,0.091 0.213,0.174 0.326,0.247c0.421,0.27 0.904,0.411 1.42,0.411l0.04,0l0,-5.323c-0.016,0 -0.031,0 -0.047,0z"/>
  </g>
 </g>
</svg>