<svg width="59.99999999999999" height="59.99999999999999" xmlns="http://www.w3.org/2000/svg">

 <g>
  <title>background</title>
  <rect fill="none" id="canvas_background" height="62" width="62" y="-1" x="-1"/>
 </g>
 <g>
  <title>Layer 1</title>
  <g id="svg_7"/>
  <g id="svg_8">
   <path id="svg_1" fill="#ef5350" d="m12.1863,5.0908l2.90986,-2.74454c0.44054,-0.41517 0.54101,-0.98404 0.26278,-1.48478c-0.27823,-0.50074 -0.86755,-0.81132 -1.53898,-0.81132l-10.23766,0c-0.6724,0 -1.26268,0.31217 -1.53995,0.81449c-0.27823,0.50153 -0.17486,1.07199 0.26857,1.48636l2.91759,2.72711c-3.09535,1.67414 -5.22848,5.21891 -5.22848,8.77953c0,2.59242 1.67327,5.20782 5.41301,5.20782l6.56362,0c3.73974,0 5.41301,-2.6154 5.41301,-5.20782c0,-3.55111 -2.12153,-7.08796 -5.20336,-8.76685z"/>
   <path id="svg_2" fill="#ffca28" d="m12.80074,5.99245l-8.21177,0c-0.53328,0 -0.96609,-0.35495 -0.96609,-0.7923s0.43281,-0.7923 0.96609,-0.7923l8.21177,0c0.53328,0 0.96609,0.35495 0.96609,0.7923s-0.43281,0.7923 -0.96609,0.7923z"/>
   <path id="svg_3" fill="#fff" d="m10.91783,12.72704l0.91682,0c0.28789,0 0.54874,-0.14024 0.6637,-0.35654s0.0628,-0.46904 -0.13332,-0.64177l-3.13979,-2.77307c-0.27437,-0.24245 -0.78736,-0.24245 -1.0627,0l-3.13979,2.77307c-0.19612,0.17272 -0.24829,0.42547 -0.13332,0.64177s0.37581,0.35654 0.6637,0.35654l0.92358,0l-1.47039,1.39366c-0.18549,0.17589 -0.22896,0.42468 -0.1111,0.63622c0.11883,0.21075 0.37678,0.34703 0.65984,0.34703l2.41523,0l0,0.99038c0,0.32801 0.32461,0.59423 0.72457,0.59423s0.72457,-0.26621 0.72457,-0.59423l0,-0.99038l2.41523,0c0.28306,0 0.54101,-0.13548 0.65887,-0.34703c0.11883,-0.21155 0.07536,-0.45954 -0.10917,-0.63543l-1.46653,-1.39446z"/>
   <path id="svg_4" fill="#d04846" d="m4.0354,5.84904c-2.43745,1.85558 -4.03536,4.92655 -4.03536,8.00861c0,2.59242 1.67327,5.20782 5.41301,5.20782l3.28181,0l0,-2.37691c-0.39996,0 -0.72457,-0.26621 -0.72457,-0.59423l0,-0.99038l-2.41523,0c-0.28306,0 -0.54101,-0.13548 -0.65887,-0.34703s-0.07439,-0.46033 0.1111,-0.63622l1.47039,-1.39366l-0.92262,0c-0.28789,0 -0.54874,-0.14024 -0.6637,-0.35654s-0.0628,-0.46904 0.13332,-0.64177l3.13979,-2.77307c0.13718,-0.12122 0.33427,-0.18144 0.53135,-0.18144l0,-2.78178l-4.10685,0c-0.20578,0 -0.39706,-0.05308 -0.55357,-0.14341zm4.65945,-5.79888l-5.11255,0c-0.6724,0 -1.26268,0.31217 -1.53995,0.81449c-0.27823,0.50153 -0.17486,1.07199 0.26857,1.48636l2.20269,2.0592c0.02415,-0.00158 0.05024,-0.00238 0.07536,-0.00238l4.10588,0l0,-4.35768z"/>
   <path id="svg_5" fill="#deb023" d="m8.69485,4.40784l-4.10588,0c-0.02512,0 -0.0512,0.00079 -0.07632,0.00238c-0.49754,0.03169 -0.88977,0.37318 -0.88977,0.78993c0,0.26859 0.16327,0.50628 0.41252,0.64969c0.15651,0.09032 0.34779,0.14261 0.55357,0.14261l4.10588,0l0,-1.58461z"/>
   <path id="svg_6" fill="#dedede" d="m8.69485,8.77344c-0.19708,0 -0.39416,0.06022 -0.53135,0.18144l-3.13979,2.77307c-0.19612,0.17272 -0.24829,0.42547 -0.13332,0.64177s0.37581,0.35654 0.6637,0.35654l0.92358,0l-1.47039,1.39366c-0.18549,0.17589 -0.22896,0.42468 -0.1111,0.63622s0.37581,0.34782 0.65887,0.34782l2.41523,0l0,0.99038c0,0.32801 0.32461,0.59423 0.72457,0.59423l0,-7.91512z"/>
  </g>
  <g id="svg_15">
   <path id="svg_9" fill="#ef5350" d="m45.19608,25.23302l2.90986,-2.74454c0.44054,-0.41517 0.54101,-0.98404 0.26278,-1.48478c-0.27823,-0.50074 -0.86755,-0.81132 -1.53898,-0.81132l-10.23766,0c-0.6724,0 -1.26268,0.31217 -1.53995,0.81449c-0.27823,0.50153 -0.17486,1.07199 0.26857,1.48636l2.91759,2.72711c-3.09535,1.67414 -5.22848,5.21891 -5.22848,8.77953c0,2.59242 1.67327,5.20782 5.41301,5.20782l6.56362,0c3.73974,0 5.41301,-2.6154 5.41301,-5.20782c0,-3.55111 -2.12153,-7.08796 -5.20336,-8.76685z"/>
   <path id="svg_10" fill="#ffca28" d="m45.81051,26.13466l-8.21177,0c-0.53328,0 -0.96609,-0.35495 -0.96609,-0.7923s0.43281,-0.7923 0.96609,-0.7923l8.21177,0c0.53328,0 0.96609,0.35495 0.96609,0.7923s-0.43281,0.7923 -0.96609,0.7923z"/>
   <path id="svg_11" fill="#fff" d="m43.9276,32.86925l0.91682,0c0.28789,0 0.54874,-0.14024 0.6637,-0.35654s0.0628,-0.46904 -0.13332,-0.64177l-3.13979,-2.77307c-0.27437,-0.24245 -0.78736,-0.24245 -1.0627,0l-3.13979,2.77307c-0.19612,0.17272 -0.24829,0.42547 -0.13332,0.64177s0.37581,0.35654 0.6637,0.35654l0.92358,0l-1.47039,1.39366c-0.18549,0.17589 -0.22896,0.42468 -0.1111,0.63622c0.11883,0.21075 0.37678,0.34703 0.65984,0.34703l2.41523,0l0,0.99038c0,0.32801 0.32461,0.59423 0.72457,0.59423s0.72457,-0.26621 0.72457,-0.59423l0,-0.99038l2.41523,0c0.28306,0 0.54101,-0.13548 0.65887,-0.34703c0.11883,-0.21155 0.07536,-0.45954 -0.10917,-0.63543l-1.46653,-1.39446z"/>
   <path id="svg_12" fill="#d04846" d="m37.04518,25.99126c-2.43745,1.85558 -4.03536,4.92655 -4.03536,8.00861c0,2.59242 1.67327,5.20782 5.41301,5.20782l3.28181,0l0,-2.37691c-0.39996,0 -0.72457,-0.26621 -0.72457,-0.59423l0,-0.99038l-2.41523,0c-0.28306,0 -0.54101,-0.13548 -0.65887,-0.34703s-0.07439,-0.46033 0.1111,-0.63622l1.47039,-1.39366l-0.92262,0c-0.28789,0 -0.54874,-0.14024 -0.6637,-0.35654s-0.0628,-0.46904 0.13332,-0.64177l3.13979,-2.77307c0.13718,-0.12122 0.33427,-0.18144 0.53135,-0.18144l0,-2.78178l-4.10685,0c-0.20578,0 -0.39706,-0.05308 -0.55357,-0.14341zm4.65945,-5.79888l-5.11255,0c-0.6724,0 -1.26268,0.31217 -1.53995,0.81449c-0.27823,0.50153 -0.17486,1.07199 0.26857,1.48636l2.20269,2.0592c0.02415,-0.00158 0.05024,-0.00238 0.07536,-0.00238l4.10588,0l0,-4.35768z"/>
   <path id="svg_13" fill="#deb023" d="m41.70463,24.55005l-4.10588,0c-0.02512,0 -0.0512,0.00079 -0.07632,0.00238c-0.49754,0.03169 -0.88977,0.37318 -0.88977,0.78993c0,0.26859 0.16327,0.50628 0.41252,0.64969c0.15651,0.09032 0.34779,0.14261 0.55357,0.14261l4.10588,0l0,-1.58461z"/>
   <path id="svg_14" fill="#dedede" d="m41.70463,28.91565c-0.19708,0 -0.39416,0.06022 -0.53135,0.18144l-3.13979,2.77307c-0.19612,0.17272 -0.24829,0.42547 -0.13332,0.64177s0.37581,0.35654 0.6637,0.35654l0.92358,0l-1.47039,1.39366c-0.18549,0.17589 -0.22896,0.42468 -0.1111,0.63622s0.37581,0.34782 0.65887,0.34782l2.41523,0l0,0.99038c0,0.32801 0.32461,0.59423 0.72457,0.59423l0,-7.91512z"/>
  </g>
  <g id="svg_22">
   <path id="svg_16" fill="#ef5350" d="m54.6968,5.0908l2.90986,-2.74454c0.44054,-0.41517 0.54101,-0.98404 0.26278,-1.48478c-0.27823,-0.50074 -0.86755,-0.81132 -1.53898,-0.81132l-10.23766,0c-0.6724,0 -1.26268,0.31217 -1.53995,0.81449c-0.27823,0.50153 -0.17486,1.07199 0.26857,1.48636l2.91759,2.72711c-3.09535,1.67414 -5.22848,5.21891 -5.22848,8.77953c0,2.59242 1.67327,5.20782 5.41301,5.20782l6.56362,0c3.73974,0 5.41301,-2.6154 5.41301,-5.20782c0,-3.55111 -2.12153,-7.08796 -5.20336,-8.76685z"/>
   <path id="svg_17" fill="#ffca28" d="m55.31123,5.99245l-8.21177,0c-0.53328,0 -0.96609,-0.35495 -0.96609,-0.7923s0.43281,-0.7923 0.96609,-0.7923l8.21177,0c0.53328,0 0.96609,0.35495 0.96609,0.7923s-0.43281,0.7923 -0.96609,0.7923z"/>
   <path id="svg_18" fill="#fff" d="m53.42832,12.72704l0.91682,0c0.28789,0 0.54874,-0.14024 0.6637,-0.35654s0.0628,-0.46904 -0.13332,-0.64177l-3.13979,-2.77307c-0.27437,-0.24245 -0.78736,-0.24245 -1.0627,0l-3.13979,2.77307c-0.19612,0.17272 -0.24829,0.42547 -0.13332,0.64177s0.37581,0.35654 0.6637,0.35654l0.92358,0l-1.47039,1.39366c-0.18549,0.17589 -0.22896,0.42468 -0.1111,0.63622c0.11883,0.21075 0.37678,0.34703 0.65984,0.34703l2.41523,0l0,0.99038c0,0.32801 0.32461,0.59423 0.72457,0.59423s0.72457,-0.26621 0.72457,-0.59423l0,-0.99038l2.41523,0c0.28306,0 0.54101,-0.13548 0.65887,-0.34703c0.11883,-0.21155 0.07536,-0.45954 -0.10917,-0.63543l-1.46653,-1.39446z"/>
   <path id="svg_19" fill="#d04846" d="m46.54589,5.84904c-2.43745,1.85558 -4.03536,4.92655 -4.03536,8.00861c0,2.59242 1.67327,5.20782 5.41301,5.20782l3.28181,0l0,-2.37691c-0.39996,0 -0.72457,-0.26621 -0.72457,-0.59423l0,-0.99038l-2.41523,0c-0.28306,0 -0.54101,-0.13548 -0.65887,-0.34703s-0.07439,-0.46033 0.1111,-0.63622l1.47039,-1.39366l-0.92262,0c-0.28789,0 -0.54874,-0.14024 -0.6637,-0.35654s-0.0628,-0.46904 0.13332,-0.64177l3.13979,-2.77307c0.13718,-0.12122 0.33427,-0.18144 0.53135,-0.18144l0,-2.78178l-4.10685,0c-0.20578,0 -0.39706,-0.05308 -0.55357,-0.14341zm4.65945,-5.79888l-5.11255,0c-0.6724,0 -1.26268,0.31217 -1.53995,0.81449c-0.27823,0.50153 -0.17486,1.07199 0.26857,1.48636l2.20269,2.0592c0.02415,-0.00158 0.05024,-0.00238 0.07536,-0.00238l4.10588,0l0,-4.35768z"/>
   <path id="svg_20" fill="#deb023" d="m51.20535,4.40784l-4.10588,0c-0.02512,0 -0.0512,0.00079 -0.07632,0.00238c-0.49754,0.03169 -0.88977,0.37318 -0.88977,0.78993c0,0.26859 0.16327,0.50628 0.41252,0.64969c0.15651,0.09032 0.34779,0.14261 0.55357,0.14261l4.10588,0l0,-1.58461z"/>
   <path id="svg_21" fill="#dedede" d="m51.20535,8.77344c-0.19708,0 -0.39416,0.06022 -0.53135,0.18144l-3.13979,2.77307c-0.19612,0.17272 -0.24829,0.42547 -0.13332,0.64177s0.37581,0.35654 0.6637,0.35654l0.92358,0l-1.47039,1.39366c-0.18549,0.17589 -0.22896,0.42468 -0.1111,0.63622s0.37581,0.34782 0.65887,0.34782l2.41523,0l0,0.99038c0,0.32801 0.32461,0.59423 0.72457,0.59423l0,-7.91512z"/>
  </g>
  <g id="svg_29">
   <path id="svg_23" fill="#ef5350" d="m33.49242,4.98908l2.90986,-2.74454c0.44054,-0.41517 0.54101,-0.98404 0.26278,-1.48478c-0.27823,-0.50074 -0.86755,-0.81132 -1.53898,-0.81132l-10.23766,0c-0.6724,0 -1.26268,0.31217 -1.53995,0.81449c-0.27823,0.50153 -0.17486,1.07199 0.26857,1.48636l2.91759,2.72711c-3.09535,1.67414 -5.22848,5.21891 -5.22848,8.77953c0,2.59242 1.67327,5.20782 5.41301,5.20782l6.56362,0c3.73974,0 5.41301,-2.6154 5.41301,-5.20782c0,-3.55111 -2.12153,-7.08796 -5.20336,-8.76685z"/>
   <path id="svg_24" fill="#ffca28" d="m34.10685,5.89072l-8.21177,0c-0.53328,0 -0.96609,-0.35495 -0.96609,-0.7923s0.43281,-0.7923 0.96609,-0.7923l8.21177,0c0.53328,0 0.96609,0.35495 0.96609,0.7923s-0.43281,0.7923 -0.96609,0.7923z"/>
   <path id="svg_25" fill="#fff" d="m32.22394,12.62531l0.91682,0c0.28789,0 0.54874,-0.14024 0.6637,-0.35654s0.0628,-0.46904 -0.13332,-0.64177l-3.13979,-2.77307c-0.27437,-0.24245 -0.78736,-0.24245 -1.0627,0l-3.13979,2.77307c-0.19612,0.17272 -0.24829,0.42547 -0.13332,0.64177s0.37581,0.35654 0.6637,0.35654l0.92358,0l-1.47039,1.39366c-0.18549,0.17589 -0.22896,0.42468 -0.1111,0.63622c0.11883,0.21075 0.37678,0.34703 0.65984,0.34703l2.41523,0l0,0.99038c0,0.32801 0.32461,0.59423 0.72457,0.59423s0.72457,-0.26621 0.72457,-0.59423l0,-0.99038l2.41523,0c0.28306,0 0.54101,-0.13548 0.65887,-0.34703c0.11883,-0.21155 0.07536,-0.45954 -0.10917,-0.63543l-1.46653,-1.39446z"/>
   <path id="svg_26" fill="#d04846" d="m25.34151,5.74731c-2.43745,1.85558 -4.03536,4.92655 -4.03536,8.00861c0,2.59242 1.67327,5.20782 5.41301,5.20782l3.28181,0l0,-2.37691c-0.39996,0 -0.72457,-0.26621 -0.72457,-0.59423l0,-0.99038l-2.41523,0c-0.28306,0 -0.54101,-0.13548 -0.65887,-0.34703s-0.07439,-0.46033 0.1111,-0.63622l1.47039,-1.39366l-0.92262,0c-0.28789,0 -0.54874,-0.14024 -0.6637,-0.35654s-0.0628,-0.46904 0.13332,-0.64177l3.13979,-2.77307c0.13718,-0.12122 0.33427,-0.18144 0.53135,-0.18144l0,-2.78178l-4.10685,0c-0.20578,0 -0.39706,-0.05308 -0.55357,-0.14341zm4.65945,-5.79888l-5.11255,0c-0.6724,0 -1.26268,0.31217 -1.53995,0.81449c-0.27823,0.50153 -0.17486,1.07199 0.26857,1.48636l2.20269,2.0592c0.02415,-0.00158 0.05024,-0.00238 0.07536,-0.00238l4.10588,0l0,-4.35768z"/>
   <path id="svg_27" fill="#deb023" d="m30.00097,4.30611l-4.10588,0c-0.02512,0 -0.0512,0.00079 -0.07632,0.00238c-0.49754,0.03169 -0.88977,0.37318 -0.88977,0.78993c0,0.26859 0.16327,0.50628 0.41252,0.64969c0.15651,0.09032 0.34779,0.14261 0.55357,0.14261l4.10588,0l0,-1.58461z"/>
   <path id="svg_28" fill="#dedede" d="m30.00097,8.67171c-0.19708,0 -0.39416,0.06022 -0.53135,0.18144l-3.13979,2.77307c-0.19612,0.17272 -0.24829,0.42547 -0.13332,0.64177s0.37581,0.35654 0.6637,0.35654l0.92358,0l-1.47039,1.39366c-0.18549,0.17589 -0.22896,0.42468 -0.1111,0.63622s0.37581,0.34782 0.65887,0.34782l2.41523,0l0,0.99038c0,0.32801 0.32461,0.59423 0.72457,0.59423l0,-7.91512z"/>
  </g>
  <g id="svg_36">
   <path id="svg_30" fill="#ef5350" d="m23.52794,25.34521l2.90986,-2.74454c0.44054,-0.41517 0.54101,-0.98404 0.26278,-1.48478c-0.27823,-0.50074 -0.86755,-0.81132 -1.53898,-0.81132l-10.23766,0c-0.6724,0 -1.26268,0.31217 -1.53995,0.81449c-0.27823,0.50153 -0.17486,1.07199 0.26857,1.48636l2.91759,2.72711c-3.09535,1.67414 -5.22848,5.21891 -5.22848,8.77953c0,2.59242 1.67327,5.20782 5.41301,5.20782l6.56362,0c3.73974,0 5.41301,-2.6154 5.41301,-5.20782c0,-3.55111 -2.12153,-7.08796 -5.20336,-8.76685z"/>
   <path id="svg_31" fill="#ffca28" d="m24.14237,26.24685l-8.21177,0c-0.53328,0 -0.96609,-0.35495 -0.96609,-0.7923s0.43281,-0.7923 0.96609,-0.7923l8.21177,0c0.53328,0 0.96609,0.35495 0.96609,0.7923s-0.43281,0.7923 -0.96609,0.7923z"/>
   <path id="svg_32" fill="#fff" d="m22.25946,32.98144l0.91682,0c0.28789,0 0.54874,-0.14024 0.6637,-0.35654s0.0628,-0.46904 -0.13332,-0.64177l-3.13979,-2.77307c-0.27437,-0.24245 -0.78736,-0.24245 -1.0627,0l-3.13979,2.77307c-0.19612,0.17272 -0.24829,0.42547 -0.13332,0.64177s0.37581,0.35654 0.6637,0.35654l0.92358,0l-1.47039,1.39366c-0.18549,0.17589 -0.22896,0.42468 -0.1111,0.63622c0.11883,0.21075 0.37678,0.34703 0.65984,0.34703l2.41523,0l0,0.99038c0,0.32801 0.32461,0.59423 0.72457,0.59423s0.72457,-0.26621 0.72457,-0.59423l0,-0.99038l2.41523,0c0.28306,0 0.54101,-0.13548 0.65887,-0.34703c0.11883,-0.21155 0.07536,-0.45954 -0.10917,-0.63543l-1.46653,-1.39446z"/>
   <path id="svg_33" fill="#d04846" d="m15.37703,26.10344c-2.43745,1.85558 -4.03536,4.92655 -4.03536,8.00861c0,2.59242 1.67327,5.20782 5.41301,5.20782l3.28181,0l0,-2.37691c-0.39996,0 -0.72457,-0.26621 -0.72457,-0.59423l0,-0.99038l-2.41523,0c-0.28306,0 -0.54101,-0.13548 -0.65887,-0.34703s-0.07439,-0.46033 0.1111,-0.63622l1.47039,-1.39366l-0.92262,0c-0.28789,0 -0.54874,-0.14024 -0.6637,-0.35654s-0.0628,-0.46904 0.13332,-0.64177l3.13979,-2.77307c0.13718,-0.12122 0.33427,-0.18144 0.53135,-0.18144l0,-2.78178l-4.10685,0c-0.20578,0 -0.39706,-0.05308 -0.55357,-0.14341zm4.65945,-5.79888l-5.11255,0c-0.6724,0 -1.26268,0.31217 -1.53995,0.81449c-0.27823,0.50153 -0.17486,1.07199 0.26857,1.48636l2.20269,2.0592c0.02415,-0.00158 0.05024,-0.00238 0.07536,-0.00238l4.10588,0l0,-4.35768z"/>
   <path id="svg_34" fill="#deb023" d="m20.03649,24.66224l-4.10588,0c-0.02512,0 -0.0512,0.00079 -0.07632,0.00238c-0.49754,0.03169 -0.88977,0.37318 -0.88977,0.78993c0,0.26859 0.16327,0.50628 0.41252,0.64969c0.15651,0.09032 0.34779,0.14261 0.55357,0.14261l4.10588,0l0,-1.58461z"/>
   <path id="svg_35" fill="#dedede" d="m20.03649,29.02784c-0.19708,0 -0.39416,0.06022 -0.53135,0.18144l-3.13979,2.77307c-0.19612,0.17272 -0.24829,0.42547 -0.13332,0.64177s0.37581,0.35654 0.6637,0.35654l0.92358,0l-1.47039,1.39366c-0.18549,0.17589 -0.22896,0.42468 -0.1111,0.63622s0.37581,0.34782 0.65887,0.34782l2.41523,0l0,0.99038c0,0.32801 0.32461,0.59423 0.72457,0.59423l0,-7.91512z"/>
  </g>
  <g id="svg_64">
   <path id="svg_58" fill="#ef5350" d="m12.1863,45.93813l2.90986,-2.74454c0.44054,-0.41517 0.54101,-0.98404 0.26278,-1.48478c-0.27823,-0.50074 -0.86755,-0.81132 -1.53898,-0.81132l-10.23766,0c-0.6724,0 -1.26268,0.31217 -1.53995,0.81449c-0.27823,0.50153 -0.17486,1.07199 0.26857,1.48636l2.91759,2.72711c-3.09535,1.67414 -5.22848,5.21891 -5.22848,8.77953c0,2.59242 1.67327,5.20782 5.41301,5.20782l6.56362,0c3.73974,0 5.41301,-2.6154 5.41301,-5.20782c0,-3.55111 -2.12153,-7.08796 -5.20336,-8.76685z"/>
   <path id="svg_59" fill="#ffca28" d="m12.80074,46.83977l-8.21177,0c-0.53328,0 -0.96609,-0.35495 -0.96609,-0.7923s0.43281,-0.7923 0.96609,-0.7923l8.21177,0c0.53328,0 0.96609,0.35495 0.96609,0.7923s-0.43281,0.7923 -0.96609,0.7923z"/>
   <path id="svg_60" fill="#fff" d="m10.91783,53.57436l0.91682,0c0.28789,0 0.54874,-0.14024 0.6637,-0.35654s0.0628,-0.46904 -0.13332,-0.64177l-3.13979,-2.77307c-0.27437,-0.24245 -0.78736,-0.24245 -1.0627,0l-3.13979,2.77307c-0.19612,0.17272 -0.24829,0.42547 -0.13332,0.64177s0.37581,0.35654 0.6637,0.35654l0.92358,0l-1.47039,1.39366c-0.18549,0.17589 -0.22896,0.42468 -0.1111,0.63622c0.11883,0.21075 0.37678,0.34703 0.65984,0.34703l2.41523,0l0,0.99038c0,0.32801 0.32461,0.59423 0.72457,0.59423s0.72457,-0.26621 0.72457,-0.59423l0,-0.99038l2.41523,0c0.28306,0 0.54101,-0.13548 0.65887,-0.34703c0.11883,-0.21155 0.07536,-0.45954 -0.10917,-0.63543l-1.46653,-1.39446z"/>
   <path id="svg_61" fill="#d04846" d="m4.0354,46.69636c-2.43745,1.85558 -4.03536,4.92655 -4.03536,8.00861c0,2.59242 1.67327,5.20782 5.41301,5.20782l3.28181,0l0,-2.37691c-0.39996,0 -0.72457,-0.26621 -0.72457,-0.59423l0,-0.99038l-2.41523,0c-0.28306,0 -0.54101,-0.13548 -0.65887,-0.34703s-0.07439,-0.46033 0.1111,-0.63622l1.47039,-1.39366l-0.92262,0c-0.28789,0 -0.54874,-0.14024 -0.6637,-0.35654s-0.0628,-0.46904 0.13332,-0.64177l3.13979,-2.77307c0.13718,-0.12122 0.33427,-0.18144 0.53135,-0.18144l0,-2.78178l-4.10685,0c-0.20578,0 -0.39706,-0.05308 -0.55357,-0.14341zm4.65945,-5.79888l-5.11255,0c-0.6724,0 -1.26268,0.31217 -1.53995,0.81449c-0.27823,0.50153 -0.17486,1.07199 0.26857,1.48636l2.20269,2.0592c0.02415,-0.00158 0.05024,-0.00238 0.07536,-0.00238l4.10588,0l0,-4.35768z"/>
   <path id="svg_62" fill="#deb023" d="m8.69485,45.25516l-4.10588,0c-0.02512,0 -0.0512,0.00079 -0.07632,0.00238c-0.49754,0.03169 -0.88977,0.37318 -0.88977,0.78993c0,0.26859 0.16327,0.50628 0.41252,0.64969c0.15651,0.09032 0.34779,0.14261 0.55357,0.14261l4.10588,0l0,-1.58461z"/>
   <path id="svg_63" fill="#dedede" d="m8.69485,49.62076c-0.19708,0 -0.39416,0.06022 -0.53135,0.18144l-3.13979,2.77307c-0.19612,0.17272 -0.24829,0.42547 -0.13332,0.64177s0.37581,0.35654 0.6637,0.35654l0.92358,0l-1.47039,1.39366c-0.18549,0.17589 -0.22896,0.42468 -0.1111,0.63622s0.37581,0.34782 0.65887,0.34782l2.41523,0l0,0.99038c0,0.32801 0.32461,0.59423 0.72457,0.59423l0,-7.91512z"/>
  </g>
  <g id="svg_71">
   <path id="svg_65" fill="#ef5350" d="m54.6968,45.93813l2.90986,-2.74454c0.44054,-0.41517 0.54101,-0.98404 0.26278,-1.48478c-0.27823,-0.50074 -0.86755,-0.81132 -1.53898,-0.81132l-10.23766,0c-0.6724,0 -1.26268,0.31217 -1.53995,0.81449c-0.27823,0.50153 -0.17486,1.07199 0.26857,1.48636l2.91759,2.72711c-3.09535,1.67414 -5.22848,5.21891 -5.22848,8.77953c0,2.59242 1.67327,5.20782 5.41301,5.20782l6.56362,0c3.73974,0 5.41301,-2.6154 5.41301,-5.20782c0,-3.55111 -2.12153,-7.08796 -5.20336,-8.76685z"/>
   <path id="svg_66" fill="#ffca28" d="m55.31123,46.83977l-8.21177,0c-0.53328,0 -0.96609,-0.35495 -0.96609,-0.7923s0.43281,-0.7923 0.96609,-0.7923l8.21177,0c0.53328,0 0.96609,0.35495 0.96609,0.7923s-0.43281,0.7923 -0.96609,0.7923z"/>
   <path id="svg_67" fill="#fff" d="m53.42832,53.57436l0.91682,0c0.28789,0 0.54874,-0.14024 0.6637,-0.35654s0.0628,-0.46904 -0.13332,-0.64177l-3.13979,-2.77307c-0.27437,-0.24245 -0.78736,-0.24245 -1.0627,0l-3.13979,2.77307c-0.19612,0.17272 -0.24829,0.42547 -0.13332,0.64177s0.37581,0.35654 0.6637,0.35654l0.92358,0l-1.47039,1.39366c-0.18549,0.17589 -0.22896,0.42468 -0.1111,0.63622c0.11883,0.21075 0.37678,0.34703 0.65984,0.34703l2.41523,0l0,0.99038c0,0.32801 0.32461,0.59423 0.72457,0.59423s0.72457,-0.26621 0.72457,-0.59423l0,-0.99038l2.41523,0c0.28306,0 0.54101,-0.13548 0.65887,-0.34703c0.11883,-0.21155 0.07536,-0.45954 -0.10917,-0.63543l-1.46653,-1.39446z"/>
   <path id="svg_68" fill="#d04846" d="m46.54589,46.69636c-2.43745,1.85558 -4.03536,4.92655 -4.03536,8.00861c0,2.59242 1.67327,5.20782 5.41301,5.20782l3.28181,0l0,-2.37691c-0.39996,0 -0.72457,-0.26621 -0.72457,-0.59423l0,-0.99038l-2.41523,0c-0.28306,0 -0.54101,-0.13548 -0.65887,-0.34703s-0.07439,-0.46033 0.1111,-0.63622l1.47039,-1.39366l-0.92262,0c-0.28789,0 -0.54874,-0.14024 -0.6637,-0.35654s-0.0628,-0.46904 0.13332,-0.64177l3.13979,-2.77307c0.13718,-0.12122 0.33427,-0.18144 0.53135,-0.18144l0,-2.78178l-4.10685,0c-0.20578,0 -0.39706,-0.05308 -0.55357,-0.14341zm4.65945,-5.79888l-5.11255,0c-0.6724,0 -1.26268,0.31217 -1.53995,0.81449c-0.27823,0.50153 -0.17486,1.07199 0.26857,1.48636l2.20269,2.0592c0.02415,-0.00158 0.05024,-0.00238 0.07536,-0.00238l4.10588,0l0,-4.35768z"/>
   <path id="svg_69" fill="#deb023" d="m51.20535,45.25516l-4.10588,0c-0.02512,0 -0.0512,0.00079 -0.07632,0.00238c-0.49754,0.03169 -0.88977,0.37318 -0.88977,0.78993c0,0.26859 0.16327,0.50628 0.41252,0.64969c0.15651,0.09032 0.34779,0.14261 0.55357,0.14261l4.10588,0l0,-1.58461z"/>
   <path id="svg_70" fill="#dedede" d="m51.20535,49.62076c-0.19708,0 -0.39416,0.06022 -0.53135,0.18144l-3.13979,2.77307c-0.19612,0.17272 -0.24829,0.42547 -0.13332,0.64177s0.37581,0.35654 0.6637,0.35654l0.92358,0l-1.47039,1.39366c-0.18549,0.17589 -0.22896,0.42468 -0.1111,0.63622s0.37581,0.34782 0.65887,0.34782l2.41523,0l0,0.99038c0,0.32801 0.32461,0.59423 0.72457,0.59423l0,-7.91512z"/>
  </g>
  <g id="svg_78">
   <path id="svg_72" fill="#ef5350" d="m33.49242,45.8364l2.90986,-2.74454c0.44054,-0.41517 0.54101,-0.98404 0.26278,-1.48478c-0.27823,-0.50074 -0.86755,-0.81132 -1.53898,-0.81132l-10.23766,0c-0.6724,0 -1.26268,0.31217 -1.53995,0.81449c-0.27823,0.50153 -0.17486,1.07199 0.26857,1.48636l2.91759,2.72711c-3.09535,1.67414 -5.22848,5.21891 -5.22848,8.77953c0,2.59242 1.67327,5.20782 5.41301,5.20782l6.56362,0c3.73974,0 5.41301,-2.6154 5.41301,-5.20782c0,-3.55111 -2.12153,-7.08796 -5.20336,-8.76685z"/>
   <path id="svg_73" fill="#ffca28" d="m34.10685,46.73804l-8.21177,0c-0.53328,0 -0.96609,-0.35495 -0.96609,-0.7923s0.43281,-0.7923 0.96609,-0.7923l8.21177,0c0.53328,0 0.96609,0.35495 0.96609,0.7923s-0.43281,0.7923 -0.96609,0.7923z"/>
   <path id="svg_74" fill="#fff" d="m32.22394,53.47263l0.91682,0c0.28789,0 0.54874,-0.14024 0.6637,-0.35654s0.0628,-0.46904 -0.13332,-0.64177l-3.13979,-2.77307c-0.27437,-0.24245 -0.78736,-0.24245 -1.0627,0l-3.13979,2.77307c-0.19612,0.17272 -0.24829,0.42547 -0.13332,0.64177s0.37581,0.35654 0.6637,0.35654l0.92358,0l-1.47039,1.39366c-0.18549,0.17589 -0.22896,0.42468 -0.1111,0.63622c0.11883,0.21075 0.37678,0.34703 0.65984,0.34703l2.41523,0l0,0.99038c0,0.32801 0.32461,0.59423 0.72457,0.59423s0.72457,-0.26621 0.72457,-0.59423l0,-0.99038l2.41523,0c0.28306,0 0.54101,-0.13548 0.65887,-0.34703c0.11883,-0.21155 0.07536,-0.45954 -0.10917,-0.63543l-1.46653,-1.39446z"/>
   <path id="svg_75" fill="#d04846" d="m25.34151,46.59464c-2.43745,1.85558 -4.03536,4.92655 -4.03536,8.00861c0,2.59242 1.67327,5.20782 5.41301,5.20782l3.28181,0l0,-2.37691c-0.39996,0 -0.72457,-0.26621 -0.72457,-0.59423l0,-0.99038l-2.41523,0c-0.28306,0 -0.54101,-0.13548 -0.65887,-0.34703s-0.07439,-0.46033 0.1111,-0.63622l1.47039,-1.39366l-0.92262,0c-0.28789,0 -0.54874,-0.14024 -0.6637,-0.35654s-0.0628,-0.46904 0.13332,-0.64177l3.13979,-2.77307c0.13718,-0.12122 0.33427,-0.18144 0.53135,-0.18144l0,-2.78178l-4.10685,0c-0.20578,0 -0.39706,-0.05308 -0.55357,-0.14341zm4.65945,-5.79888l-5.11255,0c-0.6724,0 -1.26268,0.31217 -1.53995,0.81449c-0.27823,0.50153 -0.17486,1.07199 0.26857,1.48636l2.20269,2.0592c0.02415,-0.00158 0.05024,-0.00238 0.07536,-0.00238l4.10588,0l0,-4.35768z"/>
   <path id="svg_76" fill="#deb023" d="m30.00097,45.15343l-4.10588,0c-0.02512,0 -0.0512,0.00079 -0.07632,0.00238c-0.49754,0.03169 -0.88977,0.37318 -0.88977,0.78993c0,0.26859 0.16327,0.50628 0.41252,0.64969c0.15651,0.09032 0.34779,0.14261 0.55357,0.14261l4.10588,0l0,-1.58461z"/>
   <path id="svg_77" fill="#dedede" d="m30.00097,49.51903c-0.19708,0 -0.39416,0.06022 -0.53135,0.18144l-3.13979,2.77307c-0.19612,0.17272 -0.24829,0.42547 -0.13332,0.64177s0.37581,0.35654 0.6637,0.35654l0.92358,0l-1.47039,1.39366c-0.18549,0.17589 -0.22896,0.42468 -0.1111,0.63622s0.37581,0.34782 0.65887,0.34782l2.41523,0l0,0.99038c0,0.32801 0.32461,0.59423 0.72457,0.59423l0,-7.91512z"/>
  </g>
 </g>
</svg>