<svg width="60" height="60" xmlns="http://www.w3.org/2000/svg">
 <defs>
  <filter id="svg_126_blur">
   <feGaussianBlur stdDeviation="0" in="SourceGraphic"/>
  </filter>
 </defs>
 <g>
  <title>background</title>
  <rect fill="none" id="canvas_background" height="62" width="62" y="-1" x="-1"/>
 </g>
 <g>
  <title>Layer 1</title>
  <g id="svg_9">
   <path id="svg_1" fill="#ef5350" d="m16.93313,8.78298l-13.0012,0c-0.29095,0 -0.52708,0.23258 -0.52708,0.51915l0,7.44118c0,1.05007 0.86651,1.90356 1.93261,1.90356l10.19013,0c1.0661,0 1.93261,-0.85349 1.93261,-1.90356l0,-7.44118c0,-0.28657 -0.23613,-0.51915 -0.52708,-0.51915z"/>
   <path id="svg_2" fill="#ffd54f" d="m12.01376,15.87806c-0.1026,0 -0.2038,-0.02976 -0.29235,-0.08722l-1.28888,-0.84656l-1.28888,0.84656c-0.16093,0.10521 -0.37036,0.11629 -0.54113,0.02561c-0.17148,-0.08999 -0.2783,-0.2665 -0.2783,-0.45755l0,-5.36457c0,-0.28657 0.23613,-0.51915 0.52708,-0.51915l3.16245,0c0.29095,0 0.52708,0.23258 0.52708,0.51915l0,5.36457c0,0.19105 -0.10682,0.36756 -0.2783,0.45755c-0.07801,0.04084 -0.16374,0.06161 -0.24878,0.06161z"/>
   <path id="svg_3" fill="#ffd54f" d="m13.75241,2.51924c-0.70417,-0.69289 -1.9305,-0.69289 -2.63327,0c-0.25651,0.25265 -0.49053,0.77734 -0.6866,1.33526c-0.19607,-0.55792 -0.43009,-1.0833 -0.6866,-1.33526c-0.70277,-0.69289 -1.9291,-0.69289 -2.63327,0c-0.35209,0.3461 -0.54535,0.80711 -0.54535,1.29719c0,0.48939 0.19326,0.95039 0.54535,1.2965c0.5847,0.57591 2.60165,1.05146 3.20603,1.18297l0.11385,0.01246l0.11385,-0.01246c0.60368,-0.13152 2.62062,-0.60706 3.20532,-1.18297c0.35209,-0.3461 0.54535,-0.80711 0.54535,-1.2965c0.0007,-0.49008 -0.19256,-0.95109 -0.54464,-1.29719zm-5.89411,1.85926c-0.1525,-0.14952 -0.23683,-0.34956 -0.23683,-0.56207c0,-0.2132 0.08433,-0.41324 0.23683,-0.56345c0.1532,-0.15021 0.3556,-0.23258 0.57135,-0.23258s0.41885,0.08237 0.57135,0.23258l0,0.00069c0.18623,0.18343 0.47437,0.97877 0.70909,1.82395c-0.85738,-0.23189 -1.66556,-0.51569 -1.85179,-0.69912zm5.14848,0c-0.18623,0.18343 -0.99442,0.46724 -1.85179,0.69843c0.23472,-0.84449 0.52286,-1.64052 0.70909,-1.82395c0.1525,-0.15021 0.3556,-0.23258 0.57135,-0.23258c0.21645,0 0.41885,0.08237 0.57135,0.23327c0.1525,0.14952 0.23683,0.34956 0.23683,0.56276c0,0.21251 -0.08433,0.41255 -0.23683,0.56207z"/>
   <path id="svg_4" fill="#e53935" d="m17.6359,5.49502l-14.40674,0c-0.67817,0 -1.22984,0.54338 -1.22984,1.21135l0,2.42271c0,0.66798 0.55167,1.21135 1.22984,1.21135l14.40674,0c0.67817,0 1.22984,-0.54338 1.22984,-1.21135l0,-2.42271c0,-0.66798 -0.55167,-1.21135 -1.22984,-1.21135z"/>
   <path id="svg_5" fill="#d04846" d="m8.32423,10.34044l-4.91937,0l0,6.40287c0,1.05007 0.86651,1.90356 1.93261,1.90356l5.09507,0l0,-3.70259l-1.28888,0.84656c-0.08785,0.05745 -0.19045,0.08722 -0.29305,0.08722c-0.08503,0 -0.17007,-0.02007 -0.24737,-0.06161c-0.17218,-0.08999 -0.279,-0.2665 -0.279,-0.45755l0,-5.01847z"/>
   <path id="svg_6" fill="#deb945" d="m10.43253,10.34044l-2.1083,0l0,5.01847c0,0.19105 0.10682,0.36756 0.2783,0.45755c0.0773,0.04084 0.16234,0.06161 0.24737,0.06161c0.1026,0 0.20521,-0.02907 0.29305,-0.08722l1.28958,-0.84656l0,-4.60384z"/>
   <path id="svg_7" fill="#deb945" d="m9.71009,5.07693c-0.85738,-0.2312 -1.66556,-0.515 -1.85179,-0.69843c-0.1525,-0.14952 -0.23683,-0.34956 -0.23683,-0.56207c0,-0.2132 0.08433,-0.41324 0.23683,-0.56345c0.1532,-0.15021 0.3556,-0.23258 0.57135,-0.23258s0.41885,0.08237 0.57135,0.23258l0,0.00069c0.18623,0.18274 0.47437,0.97877 0.70909,1.82326zm-1.27974,-3.07753c-0.4828,0 -0.9656,0.17305 -1.31769,0.51984c-0.35209,0.3461 -0.54535,0.80711 -0.54535,1.29719c0,0.48939 0.19326,0.95039 0.54535,1.2965c0.13634,0.1336 0.34928,0.26234 0.60368,0.3821l2.7162,0l0,-1.64052c-0.19607,-0.55792 -0.43009,-1.0833 -0.6866,-1.33526c-0.35138,-0.34679 -0.83348,-0.51984 -1.31558,-0.51984z"/>
   <path id="svg_8" fill="#c7322e" d="m10.43253,5.49502l-2.7162,0l-4.48717,0c-0.67817,0 -1.22984,0.54338 -1.22984,1.21135l0,2.42271c0,0.66798 0.55167,1.21135 1.22984,1.21135l0.17569,0l4.91937,0l2.1083,0l0,-4.84542z"/>
  </g>
  <g id="svg_36">
   <path id="svg_28" fill="#ef5350" d="m16.93424,47.78314l-13.0012,0c-0.29095,0 -0.52708,0.23258 -0.52708,0.51915l0,7.44118c0,1.05007 0.86651,1.90356 1.93261,1.90356l10.19013,0c1.0661,0 1.93261,-0.85349 1.93261,-1.90356l0,-7.44118c0,-0.28657 -0.23613,-0.51915 -0.52708,-0.51915z"/>
   <path id="svg_29" fill="#ffd54f" d="m12.01486,54.87822c-0.1026,0 -0.2038,-0.02976 -0.29235,-0.08722l-1.28888,-0.84656l-1.28888,0.84656c-0.16093,0.10521 -0.37036,0.11629 -0.54113,0.02561c-0.17148,-0.08999 -0.2783,-0.2665 -0.2783,-0.45755l0,-5.36457c0,-0.28657 0.23613,-0.51915 0.52708,-0.51915l3.16245,0c0.29095,0 0.52708,0.23258 0.52708,0.51915l0,5.36457c0,0.19105 -0.10682,0.36756 -0.2783,0.45755c-0.07801,0.04084 -0.16374,0.06161 -0.24878,0.06161z"/>
   <path id="svg_30" fill="#ffd54f" d="m13.75351,41.5194c-0.70417,-0.69289 -1.9305,-0.69289 -2.63327,0c-0.25651,0.25265 -0.49053,0.77734 -0.6866,1.33526c-0.19607,-0.55792 -0.43009,-1.0833 -0.6866,-1.33526c-0.70277,-0.69289 -1.9291,-0.69289 -2.63327,0c-0.35209,0.3461 -0.54535,0.80711 -0.54535,1.29719c0,0.48939 0.19326,0.95039 0.54535,1.2965c0.5847,0.57591 2.60165,1.05146 3.20603,1.18297l0.11385,0.01246l0.11385,-0.01246c0.60368,-0.13152 2.62062,-0.60706 3.20532,-1.18297c0.35209,-0.3461 0.54535,-0.80711 0.54535,-1.2965c0.0007,-0.49008 -0.19256,-0.95109 -0.54464,-1.29719zm-5.89411,1.85926c-0.1525,-0.14952 -0.23683,-0.34956 -0.23683,-0.56207c0,-0.2132 0.08433,-0.41324 0.23683,-0.56345c0.1532,-0.15021 0.3556,-0.23258 0.57135,-0.23258s0.41885,0.08237 0.57135,0.23258l0,0.00069c0.18623,0.18343 0.47437,0.97877 0.70909,1.82395c-0.85738,-0.23189 -1.66556,-0.51569 -1.85179,-0.69912zm5.14848,0c-0.18623,0.18343 -0.99442,0.46724 -1.85179,0.69843c0.23472,-0.84449 0.52286,-1.64052 0.70909,-1.82395c0.1525,-0.15021 0.3556,-0.23258 0.57135,-0.23258c0.21645,0 0.41885,0.08237 0.57135,0.23327c0.1525,0.14952 0.23683,0.34956 0.23683,0.56276c0,0.21251 -0.08433,0.41255 -0.23683,0.56207z"/>
   <path id="svg_31" fill="#e53935" d="m17.637,44.49518l-14.40674,0c-0.67817,0 -1.22984,0.54338 -1.22984,1.21135l0,2.42271c0,0.66798 0.55167,1.21135 1.22984,1.21135l14.40674,0c0.67817,0 1.22984,-0.54338 1.22984,-1.21135l0,-2.42271c0,-0.66798 -0.55167,-1.21135 -1.22984,-1.21135z"/>
   <path id="svg_32" fill="#d04846" d="m8.32533,49.3406l-4.91937,0l0,6.40287c0,1.05007 0.86651,1.90356 1.93261,1.90356l5.09507,0l0,-3.70259l-1.28888,0.84656c-0.08785,0.05745 -0.19045,0.08722 -0.29305,0.08722c-0.08503,0 -0.17007,-0.02007 -0.24737,-0.06161c-0.17218,-0.08999 -0.279,-0.2665 -0.279,-0.45755l0,-5.01847z"/>
   <path id="svg_33" fill="#deb945" d="m10.43363,49.3406l-2.1083,0l0,5.01847c0,0.19105 0.10682,0.36756 0.2783,0.45755c0.0773,0.04084 0.16234,0.06161 0.24737,0.06161c0.1026,0 0.20521,-0.02907 0.29305,-0.08722l1.28958,-0.84656l0,-4.60384z"/>
   <path id="svg_34" fill="#deb945" d="m9.71119,44.07709c-0.85738,-0.2312 -1.66556,-0.515 -1.85179,-0.69843c-0.1525,-0.14952 -0.23683,-0.34956 -0.23683,-0.56207c0,-0.2132 0.08433,-0.41324 0.23683,-0.56345c0.1532,-0.15021 0.3556,-0.23258 0.57135,-0.23258s0.41885,0.08237 0.57135,0.23258l0,0.00069c0.18623,0.18274 0.47437,0.97877 0.70909,1.82326zm-1.27974,-3.07753c-0.4828,0 -0.9656,0.17305 -1.31769,0.51984c-0.35209,0.3461 -0.54535,0.80711 -0.54535,1.29719c0,0.48939 0.19326,0.95039 0.54535,1.2965c0.13634,0.1336 0.34928,0.26234 0.60368,0.3821l2.7162,0l0,-1.64052c-0.19607,-0.55792 -0.43009,-1.0833 -0.6866,-1.33526c-0.35138,-0.34679 -0.83348,-0.51984 -1.31558,-0.51984z"/>
   <path id="svg_35" fill="#c7322e" d="m10.43363,44.49518l-2.7162,0l-4.48717,0c-0.67817,0 -1.22984,0.54338 -1.22984,1.21135l0,2.42271c0,0.66798 0.55167,1.21135 1.22984,1.21135l0.17569,0l4.91937,0l2.1083,0l0,-4.84542z"/>
  </g>
  <g id="svg_72">
   <path id="svg_64" fill="#ef5350" d="m16.935,28.78553l-13.0012,0c-0.29095,0 -0.52708,0.23258 -0.52708,0.51915l0,7.44118c0,1.05007 0.86651,1.90356 1.93261,1.90356l10.19013,0c1.0661,0 1.93261,-0.85349 1.93261,-1.90356l0,-7.44118c0,-0.28657 -0.23613,-0.51915 -0.52708,-0.51915z"/>
   <path id="svg_65" fill="#ffd54f" d="m12.01563,35.8806c-0.1026,0 -0.2038,-0.02976 -0.29235,-0.08722l-1.28888,-0.84656l-1.28888,0.84656c-0.16093,0.10521 -0.37036,0.11629 -0.54113,0.02561c-0.17148,-0.08999 -0.2783,-0.2665 -0.2783,-0.45755l0,-5.36457c0,-0.28657 0.23613,-0.51915 0.52708,-0.51915l3.16245,0c0.29095,0 0.52708,0.23258 0.52708,0.51915l0,5.36457c0,0.19105 -0.10682,0.36756 -0.2783,0.45755c-0.07801,0.04084 -0.16374,0.06161 -0.24878,0.06161z"/>
   <path id="svg_66" fill="#ffd54f" d="m13.75427,22.52178c-0.70417,-0.69289 -1.9305,-0.69289 -2.63327,0c-0.25651,0.25265 -0.49053,0.77734 -0.6866,1.33526c-0.19607,-0.55792 -0.43009,-1.0833 -0.6866,-1.33526c-0.70277,-0.69289 -1.9291,-0.69289 -2.63327,0c-0.35209,0.3461 -0.54535,0.80711 -0.54535,1.29719c0,0.48939 0.19326,0.95039 0.54535,1.2965c0.5847,0.57591 2.60165,1.05146 3.20603,1.18297l0.11385,0.01246l0.11385,-0.01246c0.60368,-0.13152 2.62062,-0.60706 3.20532,-1.18297c0.35209,-0.3461 0.54535,-0.80711 0.54535,-1.2965c0.0007,-0.49008 -0.19256,-0.95109 -0.54464,-1.29719zm-5.89411,1.85926c-0.1525,-0.14952 -0.23683,-0.34956 -0.23683,-0.56207c0,-0.2132 0.08433,-0.41324 0.23683,-0.56345c0.1532,-0.15021 0.3556,-0.23258 0.57135,-0.23258s0.41885,0.08237 0.57135,0.23258l0,0.00069c0.18623,0.18343 0.47437,0.97877 0.70909,1.82395c-0.85738,-0.23189 -1.66556,-0.51569 -1.85179,-0.69912zm5.14848,0c-0.18623,0.18343 -0.99442,0.46724 -1.85179,0.69843c0.23472,-0.84449 0.52286,-1.64052 0.70909,-1.82395c0.1525,-0.15021 0.3556,-0.23258 0.57135,-0.23258c0.21645,0 0.41885,0.08237 0.57135,0.23327c0.1525,0.14952 0.23683,0.34956 0.23683,0.56276c0,0.21251 -0.08433,0.41255 -0.23683,0.56207z"/>
   <path id="svg_67" fill="#e53935" d="m17.63777,25.49756l-14.40674,0c-0.67817,0 -1.22984,0.54338 -1.22984,1.21135l0,2.42271c0,0.66798 0.55167,1.21135 1.22984,1.21135l14.40674,0c0.67817,0 1.22984,-0.54338 1.22984,-1.21135l0,-2.42271c0,-0.66798 -0.55167,-1.21135 -1.22984,-1.21135z"/>
   <path id="svg_68" fill="#d04846" d="m8.3261,30.34298l-4.91937,0l0,6.40287c0,1.05007 0.86651,1.90356 1.93261,1.90356l5.09507,0l0,-3.70259l-1.28888,0.84656c-0.08785,0.05745 -0.19045,0.08722 -0.29305,0.08722c-0.08503,0 -0.17007,-0.02007 -0.24737,-0.06161c-0.17218,-0.08999 -0.279,-0.2665 -0.279,-0.45755l0,-5.01847z"/>
   <path id="svg_69" fill="#deb945" d="m10.4344,30.34298l-2.1083,0l0,5.01847c0,0.19105 0.10682,0.36756 0.2783,0.45755c0.0773,0.04084 0.16234,0.06161 0.24737,0.06161c0.1026,0 0.20521,-0.02907 0.29305,-0.08722l1.28958,-0.84656l0,-4.60384z"/>
   <path id="svg_70" fill="#deb945" d="m9.71195,25.07947c-0.85738,-0.2312 -1.66556,-0.515 -1.85179,-0.69843c-0.1525,-0.14952 -0.23683,-0.34956 -0.23683,-0.56207c0,-0.2132 0.08433,-0.41324 0.23683,-0.56345c0.1532,-0.15021 0.3556,-0.23258 0.57135,-0.23258s0.41885,0.08237 0.57135,0.23258l0,0.00069c0.18623,0.18274 0.47437,0.97877 0.70909,1.82326zm-1.27974,-3.07753c-0.4828,0 -0.9656,0.17305 -1.31769,0.51984c-0.35209,0.3461 -0.54535,0.80711 -0.54535,1.29719c0,0.48939 0.19326,0.95039 0.54535,1.2965c0.13634,0.1336 0.34928,0.26234 0.60368,0.3821l2.7162,0l0,-1.64052c-0.19607,-0.55792 -0.43009,-1.0833 -0.6866,-1.33526c-0.35138,-0.34679 -0.83348,-0.51984 -1.31558,-0.51984z"/>
   <path id="svg_71" fill="#c7322e" d="m10.4344,25.49756l-2.7162,0l-4.48717,0c-0.67817,0 -1.22984,0.54338 -1.22984,1.21135l0,2.42271c0,0.66798 0.55167,1.21135 1.22984,1.21135l0.17569,0l4.91937,0l2.1083,0l0,-4.84542z"/>
  </g>
  <g id="svg_81">
   <path id="svg_73" fill="#ef5350" d="m36.935,8.78298l-13.0012,0c-0.29095,0 -0.52708,0.23258 -0.52708,0.51915l0,7.44118c0,1.05007 0.86651,1.90356 1.93261,1.90356l10.19013,0c1.0661,0 1.93261,-0.85349 1.93261,-1.90356l0,-7.44118c0,-0.28657 -0.23613,-0.51915 -0.52708,-0.51915z"/>
   <path id="svg_74" fill="#ffd54f" d="m32.01563,15.87806c-0.1026,0 -0.2038,-0.02976 -0.29235,-0.08722l-1.28888,-0.84656l-1.28888,0.84656c-0.16093,0.10521 -0.37036,0.11629 -0.54113,0.02561c-0.17148,-0.08999 -0.2783,-0.2665 -0.2783,-0.45755l0,-5.36457c0,-0.28657 0.23613,-0.51915 0.52708,-0.51915l3.16245,0c0.29095,0 0.52708,0.23258 0.52708,0.51915l0,5.36457c0,0.19105 -0.10682,0.36756 -0.2783,0.45755c-0.07801,0.04084 -0.16374,0.06161 -0.24878,0.06161z"/>
   <path id="svg_75" fill="#ffd54f" d="m33.75427,2.51924c-0.70417,-0.69289 -1.9305,-0.69289 -2.63327,0c-0.25651,0.25265 -0.49053,0.77734 -0.6866,1.33526c-0.19607,-0.55792 -0.43009,-1.0833 -0.6866,-1.33526c-0.70277,-0.69289 -1.9291,-0.69289 -2.63327,0c-0.35209,0.3461 -0.54535,0.80711 -0.54535,1.29719c0,0.48939 0.19326,0.95039 0.54535,1.2965c0.5847,0.57591 2.60165,1.05146 3.20603,1.18297l0.11385,0.01246l0.11385,-0.01246c0.60368,-0.13152 2.62062,-0.60706 3.20532,-1.18297c0.35209,-0.3461 0.54535,-0.80711 0.54535,-1.2965c0.0007,-0.49008 -0.19256,-0.95109 -0.54464,-1.29719zm-5.89411,1.85926c-0.1525,-0.14952 -0.23683,-0.34956 -0.23683,-0.56207c0,-0.2132 0.08433,-0.41324 0.23683,-0.56345c0.1532,-0.15021 0.3556,-0.23258 0.57135,-0.23258s0.41885,0.08237 0.57135,0.23258l0,0.00069c0.18623,0.18343 0.47437,0.97877 0.70909,1.82395c-0.85738,-0.23189 -1.66556,-0.51569 -1.85179,-0.69912zm5.14848,0c-0.18623,0.18343 -0.99442,0.46724 -1.85179,0.69843c0.23472,-0.84449 0.52286,-1.64052 0.70909,-1.82395c0.1525,-0.15021 0.3556,-0.23258 0.57135,-0.23258c0.21645,0 0.41885,0.08237 0.57135,0.23327c0.1525,0.14952 0.23683,0.34956 0.23683,0.56276c0,0.21251 -0.08433,0.41255 -0.23683,0.56207z"/>
   <path id="svg_76" fill="#e53935" d="m37.63777,5.49502l-14.40674,0c-0.67817,0 -1.22984,0.54338 -1.22984,1.21135l0,2.42271c0,0.66798 0.55167,1.21135 1.22984,1.21135l14.40674,0c0.67817,0 1.22984,-0.54338 1.22984,-1.21135l0,-2.42271c0,-0.66798 -0.55167,-1.21135 -1.22984,-1.21135z"/>
   <path id="svg_77" fill="#d04846" d="m28.3261,10.34044l-4.91937,0l0,6.40287c0,1.05007 0.86651,1.90356 1.93261,1.90356l5.09507,0l0,-3.70259l-1.28888,0.84656c-0.08785,0.05745 -0.19045,0.08722 -0.29305,0.08722c-0.08503,0 -0.17007,-0.02007 -0.24737,-0.06161c-0.17218,-0.08999 -0.279,-0.2665 -0.279,-0.45755l0,-5.01847z"/>
   <path id="svg_78" fill="#deb945" d="m30.4344,10.34044l-2.1083,0l0,5.01847c0,0.19105 0.10682,0.36756 0.2783,0.45755c0.0773,0.04084 0.16234,0.06161 0.24737,0.06161c0.1026,0 0.20521,-0.02907 0.29305,-0.08722l1.28958,-0.84656l0,-4.60384z"/>
   <path id="svg_79" fill="#deb945" d="m29.71195,5.07693c-0.85738,-0.2312 -1.66556,-0.515 -1.85179,-0.69843c-0.1525,-0.14952 -0.23683,-0.34956 -0.23683,-0.56207c0,-0.2132 0.08433,-0.41324 0.23683,-0.56345c0.1532,-0.15021 0.3556,-0.23258 0.57135,-0.23258s0.41885,0.08237 0.57135,0.23258l0,0.00069c0.18623,0.18274 0.47437,0.97877 0.70909,1.82326zm-1.27974,-3.07753c-0.4828,0 -0.9656,0.17305 -1.31769,0.51984c-0.35209,0.3461 -0.54535,0.80711 -0.54535,1.29719c0,0.48939 0.19326,0.95039 0.54535,1.2965c0.13634,0.1336 0.34928,0.26234 0.60368,0.3821l2.7162,0l0,-1.64052c-0.19607,-0.55792 -0.43009,-1.0833 -0.6866,-1.33526c-0.35138,-0.34679 -0.83348,-0.51984 -1.31558,-0.51984z"/>
   <path id="svg_80" fill="#c7322e" d="m30.4344,5.49502l-2.7162,0l-4.48717,0c-0.67817,0 -1.22984,0.54338 -1.22984,1.21135l0,2.42271c0,0.66798 0.55167,1.21135 1.22984,1.21135l0.17569,0l4.91937,0l2.1083,0l0,-4.84542z"/>
  </g>
  <g id="svg_90">
   <path id="svg_82" fill="#ef5350" d="m36.9322,47.78314l-13.0012,0c-0.29095,0 -0.52708,0.23258 -0.52708,0.51915l0,7.44118c0,1.05007 0.86651,1.90356 1.93261,1.90356l10.19013,0c1.0661,0 1.93261,-0.85349 1.93261,-1.90356l0,-7.44118c0,-0.28657 -0.23613,-0.51915 -0.52708,-0.51915z"/>
   <path id="svg_83" fill="#ffd54f" d="m32.01282,54.87822c-0.1026,0 -0.2038,-0.02976 -0.29235,-0.08722l-1.28888,-0.84656l-1.28888,0.84656c-0.16093,0.10521 -0.37036,0.11629 -0.54113,0.02561c-0.17148,-0.08999 -0.2783,-0.2665 -0.2783,-0.45755l0,-5.36457c0,-0.28657 0.23613,-0.51915 0.52708,-0.51915l3.16245,0c0.29095,0 0.52708,0.23258 0.52708,0.51915l0,5.36457c0,0.19105 -0.10682,0.36756 -0.2783,0.45755c-0.07801,0.04084 -0.16374,0.06161 -0.24878,0.06161z"/>
   <path id="svg_84" fill="#ffd54f" d="m33.75147,41.5194c-0.70417,-0.69289 -1.9305,-0.69289 -2.63327,0c-0.25651,0.25265 -0.49053,0.77734 -0.6866,1.33526c-0.19607,-0.55792 -0.43009,-1.0833 -0.6866,-1.33526c-0.70277,-0.69289 -1.9291,-0.69289 -2.63327,0c-0.35209,0.3461 -0.54535,0.80711 -0.54535,1.29719c0,0.48939 0.19326,0.95039 0.54535,1.2965c0.5847,0.57591 2.60165,1.05146 3.20603,1.18297l0.11385,0.01246l0.11385,-0.01246c0.60368,-0.13152 2.62062,-0.60706 3.20532,-1.18297c0.35209,-0.3461 0.54535,-0.80711 0.54535,-1.2965c0.0007,-0.49008 -0.19256,-0.95109 -0.54464,-1.29719zm-5.89411,1.85926c-0.1525,-0.14952 -0.23683,-0.34956 -0.23683,-0.56207c0,-0.2132 0.08433,-0.41324 0.23683,-0.56345c0.1532,-0.15021 0.3556,-0.23258 0.57135,-0.23258s0.41885,0.08237 0.57135,0.23258l0,0.00069c0.18623,0.18343 0.47437,0.97877 0.70909,1.82395c-0.85738,-0.23189 -1.66556,-0.51569 -1.85179,-0.69912zm5.14848,0c-0.18623,0.18343 -0.99442,0.46724 -1.85179,0.69843c0.23472,-0.84449 0.52286,-1.64052 0.70909,-1.82395c0.1525,-0.15021 0.3556,-0.23258 0.57135,-0.23258c0.21645,0 0.41885,0.08237 0.57135,0.23327c0.1525,0.14952 0.23683,0.34956 0.23683,0.56276c0,0.21251 -0.08433,0.41255 -0.23683,0.56207z"/>
   <path id="svg_85" fill="#e53935" d="m37.63497,44.49518l-14.40674,0c-0.67817,0 -1.22984,0.54338 -1.22984,1.21135l0,2.42271c0,0.66798 0.55167,1.21135 1.22984,1.21135l14.40674,0c0.67817,0 1.22984,-0.54338 1.22984,-1.21135l0,-2.42271c0,-0.66798 -0.55167,-1.21135 -1.22984,-1.21135z"/>
   <path id="svg_86" fill="#d04846" d="m28.32329,49.3406l-4.91937,0l0,6.40287c0,1.05007 0.86651,1.90356 1.93261,1.90356l5.09507,0l0,-3.70259l-1.28888,0.84656c-0.08785,0.05745 -0.19045,0.08722 -0.29305,0.08722c-0.08503,0 -0.17007,-0.02007 -0.24737,-0.06161c-0.17218,-0.08999 -0.279,-0.2665 -0.279,-0.45755l0,-5.01847z"/>
   <path id="svg_87" fill="#deb945" d="m30.4316,49.3406l-2.1083,0l0,5.01847c0,0.19105 0.10682,0.36756 0.2783,0.45755c0.0773,0.04084 0.16234,0.06161 0.24737,0.06161c0.1026,0 0.20521,-0.02907 0.29305,-0.08722l1.28958,-0.84656l0,-4.60384z"/>
   <path id="svg_88" fill="#deb945" d="m29.70915,44.07709c-0.85738,-0.2312 -1.66556,-0.515 -1.85179,-0.69843c-0.1525,-0.14952 -0.23683,-0.34956 -0.23683,-0.56207c0,-0.2132 0.08433,-0.41324 0.23683,-0.56345c0.1532,-0.15021 0.3556,-0.23258 0.57135,-0.23258s0.41885,0.08237 0.57135,0.23258l0,0.00069c0.18623,0.18274 0.47437,0.97877 0.70909,1.82326zm-1.27974,-3.07753c-0.4828,0 -0.9656,0.17305 -1.31769,0.51984c-0.35209,0.3461 -0.54535,0.80711 -0.54535,1.29719c0,0.48939 0.19326,0.95039 0.54535,1.2965c0.13634,0.1336 0.34928,0.26234 0.60368,0.3821l2.7162,0l0,-1.64052c-0.19607,-0.55792 -0.43009,-1.0833 -0.6866,-1.33526c-0.35138,-0.34679 -0.83348,-0.51984 -1.31558,-0.51984z"/>
   <path id="svg_89" fill="#c7322e" d="m30.4316,44.49518l-2.7162,0l-4.48717,0c-0.67817,0 -1.22984,0.54338 -1.22984,1.21135l0,2.42271c0,0.66798 0.55167,1.21135 1.22984,1.21135l0.17569,0l4.91937,0l2.1083,0l0,-4.84542z"/>
  </g>
  <g id="svg_99">
   <path id="svg_91" fill="#ef5350" d="m36.93296,28.78553l-13.0012,0c-0.29095,0 -0.52708,0.23258 -0.52708,0.51915l0,7.44118c0,1.05007 0.86651,1.90356 1.93261,1.90356l10.19013,0c1.0661,0 1.93261,-0.85349 1.93261,-1.90356l0,-7.44118c0,-0.28657 -0.23613,-0.51915 -0.52708,-0.51915z"/>
   <path id="svg_92" fill="#ffd54f" d="m32.01359,35.8806c-0.1026,0 -0.2038,-0.02976 -0.29235,-0.08722l-1.28888,-0.84656l-1.28888,0.84656c-0.16093,0.10521 -0.37036,0.11629 -0.54113,0.02561c-0.17148,-0.08999 -0.2783,-0.2665 -0.2783,-0.45755l0,-5.36457c0,-0.28657 0.23613,-0.51915 0.52708,-0.51915l3.16245,0c0.29095,0 0.52708,0.23258 0.52708,0.51915l0,5.36457c0,0.19105 -0.10682,0.36756 -0.2783,0.45755c-0.07801,0.04084 -0.16374,0.06161 -0.24878,0.06161z"/>
   <path id="svg_93" fill="#ffd54f" d="m33.75223,22.52178c-0.70417,-0.69289 -1.9305,-0.69289 -2.63327,0c-0.25651,0.25265 -0.49053,0.77734 -0.6866,1.33526c-0.19607,-0.55792 -0.43009,-1.0833 -0.6866,-1.33526c-0.70277,-0.69289 -1.9291,-0.69289 -2.63327,0c-0.35209,0.3461 -0.54535,0.80711 -0.54535,1.29719c0,0.48939 0.19326,0.95039 0.54535,1.2965c0.5847,0.57591 2.60165,1.05146 3.20603,1.18297l0.11385,0.01246l0.11385,-0.01246c0.60368,-0.13152 2.62062,-0.60706 3.20532,-1.18297c0.35209,-0.3461 0.54535,-0.80711 0.54535,-1.2965c0.0007,-0.49008 -0.19256,-0.95109 -0.54464,-1.29719zm-5.89411,1.85926c-0.1525,-0.14952 -0.23683,-0.34956 -0.23683,-0.56207c0,-0.2132 0.08433,-0.41324 0.23683,-0.56345c0.1532,-0.15021 0.3556,-0.23258 0.57135,-0.23258s0.41885,0.08237 0.57135,0.23258l0,0.00069c0.18623,0.18343 0.47437,0.97877 0.70909,1.82395c-0.85738,-0.23189 -1.66556,-0.51569 -1.85179,-0.69912zm5.14848,0c-0.18623,0.18343 -0.99442,0.46724 -1.85179,0.69843c0.23472,-0.84449 0.52286,-1.64052 0.70909,-1.82395c0.1525,-0.15021 0.3556,-0.23258 0.57135,-0.23258c0.21645,0 0.41885,0.08237 0.57135,0.23327c0.1525,0.14952 0.23683,0.34956 0.23683,0.56276c0,0.21251 -0.08433,0.41255 -0.23683,0.56207z"/>
   <path id="svg_94" fill="#e53935" d="m37.63573,25.49756l-14.40674,0c-0.67817,0 -1.22984,0.54338 -1.22984,1.21135l0,2.42271c0,0.66798 0.55167,1.21135 1.22984,1.21135l14.40674,0c0.67817,0 1.22984,-0.54338 1.22984,-1.21135l0,-2.42271c0,-0.66798 -0.55167,-1.21135 -1.22984,-1.21135z"/>
   <path id="svg_95" fill="#d04846" d="m28.32406,30.34298l-4.91937,0l0,6.40287c0,1.05007 0.86651,1.90356 1.93261,1.90356l5.09507,0l0,-3.70259l-1.28888,0.84656c-0.08785,0.05745 -0.19045,0.08722 -0.29305,0.08722c-0.08503,0 -0.17007,-0.02007 -0.24737,-0.06161c-0.17218,-0.08999 -0.279,-0.2665 -0.279,-0.45755l0,-5.01847z"/>
   <path id="svg_96" fill="#deb945" d="m30.43236,30.34298l-2.1083,0l0,5.01847c0,0.19105 0.10682,0.36756 0.2783,0.45755c0.0773,0.04084 0.16234,0.06161 0.24737,0.06161c0.1026,0 0.20521,-0.02907 0.29305,-0.08722l1.28958,-0.84656l0,-4.60384z"/>
   <path id="svg_97" fill="#deb945" d="m29.70991,25.07947c-0.85738,-0.2312 -1.66556,-0.515 -1.85179,-0.69843c-0.1525,-0.14952 -0.23683,-0.34956 -0.23683,-0.56207c0,-0.2132 0.08433,-0.41324 0.23683,-0.56345c0.1532,-0.15021 0.3556,-0.23258 0.57135,-0.23258s0.41885,0.08237 0.57135,0.23258l0,0.00069c0.18623,0.18274 0.47437,0.97877 0.70909,1.82326zm-1.27974,-3.07753c-0.4828,0 -0.9656,0.17305 -1.31769,0.51984c-0.35209,0.3461 -0.54535,0.80711 -0.54535,1.29719c0,0.48939 0.19326,0.95039 0.54535,1.2965c0.13634,0.1336 0.34928,0.26234 0.60368,0.3821l2.7162,0l0,-1.64052c-0.19607,-0.55792 -0.43009,-1.0833 -0.6866,-1.33526c-0.35138,-0.34679 -0.83348,-0.51984 -1.31558,-0.51984z"/>
   <path id="svg_98" fill="#c7322e" d="m30.43236,25.49756l-2.7162,0l-4.48717,0c-0.67817,0 -1.22984,0.54338 -1.22984,1.21135l0,2.42271c0,0.66798 0.55167,1.21135 1.22984,1.21135l0.17569,0l4.91937,0l2.1083,0l0,-4.84542z"/>
  </g>
  <g filter="url(#svg_126_blur)" id="svg_108">
   <path id="svg_100" fill="#ef5350" d="m56.935,8.91758l-13.0012,0c-0.29095,0 -0.52708,0.23258 -0.52708,0.51915l0,7.44118c0,1.05007 0.86651,1.90356 1.93261,1.90356l10.19013,0c1.0661,0 1.93261,-0.85349 1.93261,-1.90356l0,-7.44118c0,-0.28657 -0.23613,-0.51915 -0.52708,-0.51915z"/>
   <path id="svg_101" fill="#ffd54f" d="m52.01563,16.01265c-0.1026,0 -0.2038,-0.02976 -0.29235,-0.08722l-1.28888,-0.84656l-1.28888,0.84656c-0.16093,0.10521 -0.37036,0.11629 -0.54113,0.02561c-0.17148,-0.08999 -0.2783,-0.2665 -0.2783,-0.45755l0,-5.36457c0,-0.28657 0.23613,-0.51915 0.52708,-0.51915l3.16245,0c0.29095,0 0.52708,0.23258 0.52708,0.51915l0,5.36457c0,0.19105 -0.10682,0.36756 -0.2783,0.45755c-0.07801,0.04084 -0.16374,0.06161 -0.24878,0.06161z"/>
   <path id="svg_102" fill="#ffd54f" d="m53.75427,2.65383c-0.70417,-0.69289 -1.9305,-0.69289 -2.63327,0c-0.25651,0.25265 -0.49053,0.77734 -0.6866,1.33526c-0.19607,-0.55792 -0.43009,-1.0833 -0.6866,-1.33526c-0.70277,-0.69289 -1.9291,-0.69289 -2.63327,0c-0.35209,0.3461 -0.54535,0.80711 -0.54535,1.29719c0,0.48939 0.19326,0.95039 0.54535,1.2965c0.5847,0.57591 2.60165,1.05146 3.20603,1.18297l0.11385,0.01246l0.11385,-0.01246c0.60368,-0.13152 2.62062,-0.60706 3.20532,-1.18297c0.35209,-0.3461 0.54535,-0.80711 0.54535,-1.2965c0.0007,-0.49008 -0.19256,-0.95109 -0.54464,-1.29719zm-5.89411,1.85926c-0.1525,-0.14952 -0.23683,-0.34956 -0.23683,-0.56207c0,-0.2132 0.08433,-0.41324 0.23683,-0.56345c0.1532,-0.15021 0.3556,-0.23258 0.57135,-0.23258s0.41885,0.08237 0.57135,0.23258l0,0.00069c0.18623,0.18343 0.47437,0.97877 0.70909,1.82395c-0.85738,-0.23189 -1.66556,-0.51569 -1.85179,-0.69912zm5.14848,0c-0.18623,0.18343 -0.99442,0.46724 -1.85179,0.69843c0.23472,-0.84449 0.52286,-1.64052 0.70909,-1.82395c0.1525,-0.15021 0.3556,-0.23258 0.57135,-0.23258c0.21645,0 0.41885,0.08237 0.57135,0.23327c0.1525,0.14952 0.23683,0.34956 0.23683,0.56276c0,0.21251 -0.08433,0.41255 -0.23683,0.56207z"/>
   <path id="svg_103" fill="#e53935" d="m57.63777,5.62961l-14.40674,0c-0.67817,0 -1.22984,0.54338 -1.22984,1.21135l0,2.42271c0,0.66798 0.55167,1.21135 1.22984,1.21135l14.40674,0c0.67817,0 1.22984,-0.54338 1.22984,-1.21135l0,-2.42271c0,-0.66798 -0.55167,-1.21135 -1.22984,-1.21135z"/>
   <path id="svg_104" fill="#d04846" d="m48.3261,10.47503l-4.91937,0l0,6.40287c0,1.05007 0.86651,1.90356 1.93261,1.90356l5.09507,0l0,-3.70259l-1.28888,0.84656c-0.08785,0.05745 -0.19045,0.08722 -0.29305,0.08722c-0.08503,0 -0.17007,-0.02007 -0.24737,-0.06161c-0.17218,-0.08999 -0.279,-0.2665 -0.279,-0.45755l0,-5.01847z"/>
   <path id="svg_105" fill="#deb945" d="m50.4344,10.47503l-2.1083,0l0,5.01847c0,0.19105 0.10682,0.36756 0.2783,0.45755c0.0773,0.04084 0.16234,0.06161 0.24737,0.06161c0.1026,0 0.20521,-0.02907 0.29305,-0.08722l1.28958,-0.84656l0,-4.60384z"/>
   <path id="svg_106" fill="#deb945" d="m49.71195,5.21152c-0.85738,-0.2312 -1.66556,-0.515 -1.85179,-0.69843c-0.1525,-0.14952 -0.23683,-0.34956 -0.23683,-0.56207c0,-0.2132 0.08433,-0.41324 0.23683,-0.56345c0.1532,-0.15021 0.3556,-0.23258 0.57135,-0.23258s0.41885,0.08237 0.57135,0.23258l0,0.00069c0.18623,0.18274 0.47437,0.97877 0.70909,1.82326zm-1.27974,-3.07753c-0.4828,0 -0.9656,0.17305 -1.31769,0.51984c-0.35209,0.3461 -0.54535,0.80711 -0.54535,1.29719c0,0.48939 0.19326,0.95039 0.54535,1.2965c0.13634,0.1336 0.34928,0.26234 0.60368,0.3821l2.7162,0l0,-1.64052c-0.19607,-0.55792 -0.43009,-1.0833 -0.6866,-1.33526c-0.35138,-0.34679 -0.83348,-0.51984 -1.31558,-0.51984z"/>
   <path id="svg_107" fill="#c7322e" d="m50.4344,5.62961l-2.7162,0l-4.48717,0c-0.67817,0 -1.22984,0.54338 -1.22984,1.21135l0,2.42271c0,0.66798 0.55167,1.21135 1.22984,1.21135l0.17569,0l4.91937,0l2.1083,0l0,-4.84542z"/>
  </g>
  <g filter="url(#svg_126_blur)" id="svg_117">
   <path id="svg_109" fill="#ef5350" d="m56.9322,47.91774l-13.0012,0c-0.29095,0 -0.52708,0.23258 -0.52708,0.51915l0,7.44118c0,1.05007 0.86651,1.90356 1.93261,1.90356l10.19013,0c1.0661,0 1.93261,-0.85349 1.93261,-1.90356l0,-7.44118c0,-0.28657 -0.23613,-0.51915 -0.52708,-0.51915z"/>
   <path id="svg_110" fill="#ffd54f" d="m52.01282,55.01282c-0.1026,0 -0.2038,-0.02976 -0.29235,-0.08722l-1.28888,-0.84656l-1.28888,0.84656c-0.16093,0.10521 -0.37036,0.11629 -0.54113,0.02561c-0.17148,-0.08999 -0.2783,-0.2665 -0.2783,-0.45755l0,-5.36457c0,-0.28657 0.23613,-0.51915 0.52708,-0.51915l3.16245,0c0.29095,0 0.52708,0.23258 0.52708,0.51915l0,5.36457c0,0.19105 -0.10682,0.36756 -0.2783,0.45755c-0.07801,0.04084 -0.16374,0.06161 -0.24878,0.06161z"/>
   <path id="svg_111" fill="#ffd54f" d="m53.75147,41.654c-0.70417,-0.69289 -1.9305,-0.69289 -2.63327,0c-0.25651,0.25265 -0.49053,0.77734 -0.6866,1.33526c-0.19607,-0.55792 -0.43009,-1.0833 -0.6866,-1.33526c-0.70277,-0.69289 -1.9291,-0.69289 -2.63327,0c-0.35209,0.3461 -0.54535,0.80711 -0.54535,1.29719c0,0.48939 0.19326,0.95039 0.54535,1.2965c0.5847,0.57591 2.60165,1.05146 3.20603,1.18297l0.11385,0.01246l0.11385,-0.01246c0.60368,-0.13152 2.62062,-0.60706 3.20532,-1.18297c0.35209,-0.3461 0.54535,-0.80711 0.54535,-1.2965c0.0007,-0.49008 -0.19256,-0.95109 -0.54464,-1.29719zm-5.89411,1.85926c-0.1525,-0.14952 -0.23683,-0.34956 -0.23683,-0.56207c0,-0.2132 0.08433,-0.41324 0.23683,-0.56345c0.1532,-0.15021 0.3556,-0.23258 0.57135,-0.23258s0.41885,0.08237 0.57135,0.23258l0,0.00069c0.18623,0.18343 0.47437,0.97877 0.70909,1.82395c-0.85738,-0.23189 -1.66556,-0.51569 -1.85179,-0.69912zm5.14848,0c-0.18623,0.18343 -0.99442,0.46724 -1.85179,0.69843c0.23472,-0.84449 0.52286,-1.64052 0.70909,-1.82395c0.1525,-0.15021 0.3556,-0.23258 0.57135,-0.23258c0.21645,0 0.41885,0.08237 0.57135,0.23327c0.1525,0.14952 0.23683,0.34956 0.23683,0.56276c0,0.21251 -0.08433,0.41255 -0.23683,0.56207z"/>
   <path id="svg_112" fill="#e53935" d="m57.63497,44.62978l-14.40674,0c-0.67817,0 -1.22984,0.54338 -1.22984,1.21135l0,2.42271c0,0.66798 0.55167,1.21135 1.22984,1.21135l14.40674,0c0.67817,0 1.22984,-0.54338 1.22984,-1.21135l0,-2.42271c0,-0.66798 -0.55167,-1.21135 -1.22984,-1.21135z"/>
   <path id="svg_113" fill="#d04846" d="m48.32329,49.4752l-4.91937,0l0,6.40287c0,1.05007 0.86651,1.90356 1.93261,1.90356l5.09507,0l0,-3.70259l-1.28888,0.84656c-0.08785,0.05745 -0.19045,0.08722 -0.29305,0.08722c-0.08503,0 -0.17007,-0.02007 -0.24737,-0.06161c-0.17218,-0.08999 -0.279,-0.2665 -0.279,-0.45755l0,-5.01847z"/>
   <path id="svg_114" fill="#deb945" d="m50.4316,49.4752l-2.1083,0l0,5.01847c0,0.19105 0.10682,0.36756 0.2783,0.45755c0.0773,0.04084 0.16234,0.06161 0.24737,0.06161c0.1026,0 0.20521,-0.02907 0.29305,-0.08722l1.28958,-0.84656l0,-4.60384z"/>
   <path id="svg_115" fill="#deb945" d="m49.70915,44.21169c-0.85738,-0.2312 -1.66556,-0.515 -1.85179,-0.69843c-0.1525,-0.14952 -0.23683,-0.34956 -0.23683,-0.56207c0,-0.2132 0.08433,-0.41324 0.23683,-0.56345c0.1532,-0.15021 0.3556,-0.23258 0.57135,-0.23258s0.41885,0.08237 0.57135,0.23258l0,0.00069c0.18623,0.18274 0.47437,0.97877 0.70909,1.82326zm-1.27974,-3.07753c-0.4828,0 -0.9656,0.17305 -1.31769,0.51984c-0.35209,0.3461 -0.54535,0.80711 -0.54535,1.29719c0,0.48939 0.19326,0.95039 0.54535,1.2965c0.13634,0.1336 0.34928,0.26234 0.60368,0.3821l2.7162,0l0,-1.64052c-0.19607,-0.55792 -0.43009,-1.0833 -0.6866,-1.33526c-0.35138,-0.34679 -0.83348,-0.51984 -1.31558,-0.51984z"/>
   <path id="svg_116" fill="#c7322e" d="m50.4316,44.62978l-2.7162,0l-4.48717,0c-0.67817,0 -1.22984,0.54338 -1.22984,1.21135l0,2.42271c0,0.66798 0.55167,1.21135 1.22984,1.21135l0.17569,0l4.91937,0l2.1083,0l0,-4.84542z"/>
  </g>
  <g id="svg_126">
   <path id="svg_118" fill="#ef5350" d="m56.93296,28.92012l-13.0012,0c-0.29095,0 -0.52708,0.23258 -0.52708,0.51915l0,7.44118c0,1.05007 0.86651,1.90356 1.93261,1.90356l10.19013,0c1.0661,0 1.93261,-0.85349 1.93261,-1.90356l0,-7.44118c0,-0.28657 -0.23613,-0.51915 -0.52708,-0.51915z"/>
   <path id="svg_119" fill="#ffd54f" d="m52.01359,36.0152c-0.1026,0 -0.2038,-0.02976 -0.29235,-0.08722l-1.28888,-0.84656l-1.28888,0.84656c-0.16093,0.10521 -0.37036,0.11629 -0.54113,0.02561c-0.17148,-0.08999 -0.2783,-0.2665 -0.2783,-0.45755l0,-5.36457c0,-0.28657 0.23613,-0.51915 0.52708,-0.51915l3.16245,0c0.29095,0 0.52708,0.23258 0.52708,0.51915l0,5.36457c0,0.19105 -0.10682,0.36756 -0.2783,0.45755c-0.07801,0.04084 -0.16374,0.06161 -0.24878,0.06161z"/>
   <path id="svg_120" fill="#ffd54f" d="m53.75223,22.65638c-0.70417,-0.69289 -1.9305,-0.69289 -2.63327,0c-0.25651,0.25265 -0.49053,0.77734 -0.6866,1.33526c-0.19607,-0.55792 -0.43009,-1.0833 -0.6866,-1.33526c-0.70277,-0.69289 -1.9291,-0.69289 -2.63327,0c-0.35209,0.3461 -0.54535,0.80711 -0.54535,1.29719c0,0.48939 0.19326,0.95039 0.54535,1.2965c0.5847,0.57591 2.60165,1.05146 3.20603,1.18297l0.11385,0.01246l0.11385,-0.01246c0.60368,-0.13152 2.62062,-0.60706 3.20532,-1.18297c0.35209,-0.3461 0.54535,-0.80711 0.54535,-1.2965c0.0007,-0.49008 -0.19256,-0.95109 -0.54464,-1.29719zm-5.89411,1.85926c-0.1525,-0.14952 -0.23683,-0.34956 -0.23683,-0.56207c0,-0.2132 0.08433,-0.41324 0.23683,-0.56345c0.1532,-0.15021 0.3556,-0.23258 0.57135,-0.23258s0.41885,0.08237 0.57135,0.23258l0,0.00069c0.18623,0.18343 0.47437,0.97877 0.70909,1.82395c-0.85738,-0.23189 -1.66556,-0.51569 -1.85179,-0.69912zm5.14848,0c-0.18623,0.18343 -0.99442,0.46724 -1.85179,0.69843c0.23472,-0.84449 0.52286,-1.64052 0.70909,-1.82395c0.1525,-0.15021 0.3556,-0.23258 0.57135,-0.23258c0.21645,0 0.41885,0.08237 0.57135,0.23327c0.1525,0.14952 0.23683,0.34956 0.23683,0.56276c0,0.21251 -0.08433,0.41255 -0.23683,0.56207z"/>
   <path id="svg_121" fill="#e53935" d="m57.63573,25.63216l-14.40674,0c-0.67817,0 -1.22984,0.54338 -1.22984,1.21135l0,2.42271c0,0.66798 0.55167,1.21135 1.22984,1.21135l14.40674,0c0.67817,0 1.22984,-0.54338 1.22984,-1.21135l0,-2.42271c0,-0.66798 -0.55167,-1.21135 -1.22984,-1.21135z"/>
   <path id="svg_122" fill="#d04846" d="m48.32406,30.47758l-4.91937,0l0,6.40287c0,1.05007 0.86651,1.90356 1.93261,1.90356l5.09507,0l0,-3.70259l-1.28888,0.84656c-0.08785,0.05745 -0.19045,0.08722 -0.29305,0.08722c-0.08503,0 -0.17007,-0.02007 -0.24737,-0.06161c-0.17218,-0.08999 -0.279,-0.2665 -0.279,-0.45755l0,-5.01847z"/>
   <path id="svg_123" fill="#deb945" d="m50.43236,30.47758l-2.1083,0l0,5.01847c0,0.19105 0.10682,0.36756 0.2783,0.45755c0.0773,0.04084 0.16234,0.06161 0.24737,0.06161c0.1026,0 0.20521,-0.02907 0.29305,-0.08722l1.28958,-0.84656l0,-4.60384z"/>
   <path id="svg_124" fill="#deb945" d="m49.70991,25.21407c-0.85738,-0.2312 -1.66556,-0.515 -1.85179,-0.69843c-0.1525,-0.14952 -0.23683,-0.34956 -0.23683,-0.56207c0,-0.2132 0.08433,-0.41324 0.23683,-0.56345c0.1532,-0.15021 0.3556,-0.23258 0.57135,-0.23258s0.41885,0.08237 0.57135,0.23258l0,0.00069c0.18623,0.18274 0.47437,0.97877 0.70909,1.82326zm-1.27974,-3.07753c-0.4828,0 -0.9656,0.17305 -1.31769,0.51984c-0.35209,0.3461 -0.54535,0.80711 -0.54535,1.29719c0,0.48939 0.19326,0.95039 0.54535,1.2965c0.13634,0.1336 0.34928,0.26234 0.60368,0.3821l2.7162,0l0,-1.64052c-0.19607,-0.55792 -0.43009,-1.0833 -0.6866,-1.33526c-0.35138,-0.34679 -0.83348,-0.51984 -1.31558,-0.51984z"/>
   <path id="svg_125" fill="#c7322e" d="m50.43236,25.63216l-2.7162,0l-4.48717,0c-0.67817,0 -1.22984,0.54338 -1.22984,1.21135l0,2.42271c0,0.66798 0.55167,1.21135 1.22984,1.21135l0.17569,0l4.91937,0l2.1083,0l0,-4.84542z"/>
  </g>
 </g>
</svg>